{
.appVersion = "1075";
date = "2017-11-29 12:46:16 +0000";
disablesAutomaticAlignment = 1;
familyName = "RomainSalomon-Acer";
featurePrefixes = (
{
automatic = 1;
code = "languagesystem DFLT dflt;\012";
name = Languagesystems;
}
);
features = (
{
automatic = 1;
code = "sub f i by fi;\012sub f l by fl;\012";
disabled = 1;
name = liga;
}
);
fontMaster = (
{
ascender = 750;
capHeight = 650;
descender = -250;
guideLines = (
{
locked = 1;
position = "{320, 508}";
},
{
locked = 1;
position = "{303, -8}";
},
{
locked = 1;
position = "{600, -258}";
},
{
locked = 1;
position = "{191, 758}";
},
{
locked = 1;
position = "{100, 495}";
},
{
locked = 1;
position = "{12, 5}";
},
{
locked = 1;
position = "{329, 658}";
},
{
locked = 1;
position = "{321, -47}";
}
);
id = "9CB12610-55A2-455C-B486-F31D9B41679C";
userData = {
GSCornerRadius = 50;
};
xHeight = 500;
}
);
glyphs = (
{
glyphname = A;
lastChange = "2018-06-15 13:03:08 +0000";
layers = (
{
anchors = (
{
name = top;
position = "{124, 706}";
}
);
guideLines = (
{
position = "{480, 114}";
}
);
layerId = "9CB12610-55A2-455C-B486-F31D9B41679C";
paths = (
{
closed = 1;
nodes = (
"108 602 LINE",
"107 -47 LINE",
"181 -15 LINE",
"181 634 LINE"
);
},
{
closed = 1;
nodes = (
"108 602 LINE",
"561 42 LINE",
"602 111 LINE",
"181 634 LINE"
);
},
{
closed = 1;
nodes = (
"179 156 LINE",
"417 261 LINE",
"357 316 LINE",
"119 210 LINE"
);
}
);
width = 582;
},
{
associatedMasterId = "9CB12610-55A2-455C-B486-F31D9B41679C";
layerId = "6D5FDB97-12C3-4EDA-9851-E30A50EC9E19";
name = "May 25 18, 11:47";
paths = (
{
closed = 1;
nodes = (
"19 650 LINE",
"193 0 LINE",
"264 56 LINE",
"89 706 LINE"
);
},
{
closed = 1;
nodes = (
"19 650 LINE",
"573 220 LINE",
"603 303 LINE",
"89 706 LINE"
);
},
{
closed = 1;
nodes = (
"195 259 LINE",
"411 383 LINE",
"342 434 LINE",
"126 309 LINE"
);
}
);
width = 600;
},
{
associatedMasterId = "9CB12610-55A2-455C-B486-F31D9B41679C";
guideLines = (
{
position = "{480, 114}";
}
);
layerId = "E3A41D98-A5F6-4C2E-A037-FACB3868AAF7";
name = "May 25 18, 12:53";
paths = (
{
closed = 1;
nodes = (
"99 649 LINE",
"98 0 LINE",
"181 36 LINE",
"181 685 LINE"
);
},
{
closed = 1;
nodes = (
"99 649 LINE",
"522 114 LINE",
"572 187 LINE",
"181 685 LINE"
);
},
{
closed = 1;
nodes = (
"167 250 LINE",
"408 314 LINE",
"354 381 LINE",
"113 316 LINE"
);
}
);
width = 680;
}
);
unicode = 0041;
},
{
glyphname = B;
lastChange = "2018-06-15 13:03:22 +0000";
layers = (
{
associatedMasterId = "9CB12610-55A2-455C-B486-F31D9B41679C";
layerId = "A73198D8-7448-4AD1-A3B1-706A2280F30C";
name = "Jun 14 18, 20:13";
paths = (
{
closed = 1;
nodes = (
"14 594 LINE",
"173 -1 LINE",
"240 52 LINE",
"79 647 LINE"
);
},
{
closed = 1;
nodes = (
"243 356 LINE",
"315 375 OFFCURVE",
"385 464 OFFCURVE",
"361 556 CURVE SMOOTH",
"337 647 OFFCURVE",
"257 695 OFFCURVE",
"158 668 CURVE",
"6 627 LINE",
"25 556 LINE",
"177 597 LINE",
"242 614 OFFCURVE",
"274 591 OFFCURVE",
"289 536 CURVE SMOOTH",
"303 483 OFFCURVE",
"287 443 OFFCURVE",
"224 426 CURVE",
"69 386 LINE",
"89 314 LINE"
);
},
{
closed = 1;
nodes = (
"395 60 LINE",
"502 88 OFFCURVE",
"554 208 OFFCURVE",
"529 305 CURVE SMOOTH",
"504 401 OFFCURVE",
"399 474 OFFCURVE",
"291 445 CURVE",
"69 386 LINE",
"89 314 LINE",
"310 373 LINE",
"385 394 OFFCURVE",
"441 342 OFFCURVE",
"457 285 CURVE SMOOTH",
"473 229 OFFCURVE",
"449 150 OFFCURVE",
"376 130 CURVE",
"153 72 LINE",
"173 0 LINE"
);
}
);
width = 600;
},
{
layerId = "9CB12610-55A2-455C-B486-F31D9B41679C";
paths = (
{
closed = 1;
nodes = (
"60 548 LINE",
"219 -47 LINE",
"286 6 LINE",
"125 601 LINE"
);
},
{
closed = 1;
nodes = (
"358 328 LINE",
"431 348 OFFCURVE",
"501 436 OFFCURVE",
"476 529 CURVE SMOOTH",
"452 619 OFFCURVE",
"372 668 OFFCURVE",
"274 640 CURVE",
"51 581 LINE",
"70 509 LINE",
"279 566 LINE",
"341 583 OFFCURVE",
"384 563 OFFCURVE",
"398 508 CURVE SMOOTH",
"412 454 OFFCURVE",
"387 411 OFFCURVE",
"323 395 CURVE",
"116 340 LINE",
"135 268 LINE"
);
},
{
closed = 1;
nodes = (
"492 27 LINE",
"610 58 OFFCURVE",
"663 177 OFFCURVE",
"638 275 CURVE SMOOTH",
"613 372 OFFCURVE",
"506 442 OFFCURVE",
"388 411 CURVE",
"116 339 LINE",
"135 267 LINE",
"402 339 LINE",
"483 362 OFFCURVE",
"545 309 OFFCURVE",
"561 255 CURVE SMOOTH",
"578 198 OFFCURVE",
"548 116 OFFCURVE",
"467 95 CURVE",
"200 25 LINE",
"219 -47 LINE"
);
}
);
width = 692;
},
{
associatedMasterId = "9CB12610-55A2-455C-B486-F31D9B41679C";
layerId = "BD5C2733-7BFE-4987-B1C2-8B15B965E1AB";
name = "Jun 14 18, 20:14";
paths = (
{
closed = 1;
nodes = (
"58 595 LINE",
"217 0 LINE",
"284 53 LINE",
"123 648 LINE"
);
},
{
closed = 1;
nodes = (
"287 357 LINE",
"359 376 OFFCURVE",
"430 465 OFFCURVE",
"405 557 CURVE SMOOTH",
"380 648 OFFCURVE",
"301 696 OFFCURVE",
"202 669 CURVE",
"50 628 LINE",
"69 557 LINE",
"221 598 LINE",
"286 615 OFFCURVE",
"319 592 OFFCURVE",
"333 537 CURVE SMOOTH",
"347 484 OFFCURVE",
"331 444 OFFCURVE",
"268 427 CURVE",
"113 387 LINE",
"133 315 LINE"
);
},
{
closed = 1;
nodes = (
"442 60 LINE",
"550 89 OFFCURVE",
"608 210 OFFCURVE",
"583 307 CURVE SMOOTH",
"558 404 OFFCURVE",
"446 474 OFFCURVE",
"338 445 CURVE",
"113 386 LINE",
"133 314 LINE",
"357 374 LINE",
"432 395 OFFCURVE",
"495 344 OFFCURVE",
"511 288 CURVE SMOOTH",
"527 232 OFFCURVE",
"497 150 OFFCURVE",
"423 131 CURVE",
"198 72 LINE",
"217 0 LINE"
);
}
);
width = 639;
},
{
associatedMasterId = "9CB12610-55A2-455C-B486-F31D9B41679C";
layerId = "2C4A1B0C-15F5-4503-95FD-8480C608899D";
name = "Jun 15 18, 09:10";
paths = (
{
closed = 1;
nodes = (
"58 595 LINE",
"217 0 LINE",
"284 53 LINE",
"123 648 LINE"
);
},
{
closed = 1;
nodes = (
"340 371 LINE",
"412 390 OFFCURVE",
"483 479 OFFCURVE",
"458 571 CURVE SMOOTH",
"433 662 OFFCURVE",
"354 710 OFFCURVE",
"255 683 CURVE",
"50 628 LINE",
"69 557 LINE",
"274 612 LINE",
"338 629 OFFCURVE",
"372 606 OFFCURVE",
"386 551 CURVE SMOOTH",
"400 498 OFFCURVE",
"384 458 OFFCURVE",
"320 441 CURVE",
"113 387 LINE",
"133 315 LINE"
);
},
{
closed = 1;
nodes = (
"490 74 LINE",
"608 105 OFFCURVE",
"661 224 OFFCURVE",
"636 322 CURVE SMOOTH",
"611 419 OFFCURVE",
"504 489 OFFCURVE",
"386 458 CURVE",
"113 386 LINE",
"133 314 LINE",
"405 387 LINE",
"486 410 OFFCURVE",
"549 358 OFFCURVE",
"565 303 CURVE SMOOTH",
"582 246 OFFCURVE",
"551 164 OFFCURVE",
"471 144 CURVE",
"198 72 LINE",
"217 0 LINE"
);
}
);
width = 692;
},
{
associatedMasterId = "9CB12610-55A2-455C-B486-F31D9B41679C";
layerId = "F126A765-76EF-48F9-B9E9-F626A328A09B";
name = "Jun 15 18, 09:38";
paths = (
{
closed = 1;
nodes = (
"72 595 LINE",
"231 0 LINE",
"298 53 LINE",
"137 648 LINE"
);
},
{
closed = 1;
nodes = (
"370 375 LINE",
"443 395 OFFCURVE",
"513 483 OFFCURVE",
"488 576 CURVE SMOOTH",
"464 666 OFFCURVE",
"384 715 OFFCURVE",
"286 687 CURVE",
"64 628 LINE",
"83 557 LINE",
"305 617 LINE",
"368 634 OFFCURVE",
"402 611 OFFCURVE",
"416 556 CURVE SMOOTH",
"430 502 OFFCURVE",
"414 463 OFFCURVE",
"350 446 CURVE",
"129 387 LINE",
"147 315 LINE"
);
},
{
closed = 1;
nodes = (
"504 74 LINE",
"622 105 OFFCURVE",
"675 224 OFFCURVE",
"650 322 CURVE SMOOTH",
"625 419 OFFCURVE",
"518 489 OFFCURVE",
"400 458 CURVE",
"129 386 LINE",
"147 314 LINE",
"419 387 LINE",
"500 410 OFFCURVE",
"563 358 OFFCURVE",
"579 303 CURVE SMOOTH",
"596 246 OFFCURVE",
"565 164 OFFCURVE",
"485 144 CURVE",
"212 72 LINE",
"231 0 LINE"
);
}
);
width = 692;
}
);
unicode = 0042;
},
{
glyphname = C;
lastChange = "2018-06-15 07:20:54 +0000";
layers = (
{
associatedMasterId = "9CB12610-55A2-455C-B486-F31D9B41679C";
guideLines = (
{
angle = 18.4349;
position = "{459, 455}";
},
{
position = "{455, 184}";
}
);
layerId = "ED511FBC-D323-41C6-995B-514DB9C5C0E0";
name = "Jun 11 18, 22:42";
paths = (
{
closed = 1;
nodes = (
"655 52 OFFCURVE",
"745 226 OFFCURVE",
"699 407 CURVE SMOOTH",
"652 588 OFFCURVE",
"483 696 OFFCURVE",
"302 647 CURVE SMOOTH",
"121 599 OFFCURVE",
"32 422 OFFCURVE",
"81 241 CURVE SMOOTH",
"129 62 OFFCURVE",
"295 -44 OFFCURVE",
"474 4 CURVE SMOOTH"
);
},
{
closed = 1;
nodes = (
"314 44 OFFCURVE",
"200 123 OFFCURVE",
"163 263 CURVE SMOOTH",
"125 403 OFFCURVE",
"183 532 OFFCURVE",
"323 570 CURVE SMOOTH",
"464 607 OFFCURVE",
"579 525 OFFCURVE",
"617 385 CURVE SMOOTH",
"654 244 OFFCURVE",
"596 119 OFFCURVE",
"454 81 CURVE SMOOTH"
);
}
);
visible = 1;
width = 743;
},
{
associatedMasterId = "9CB12610-55A2-455C-B486-F31D9B41679C";
guideLines = (
{
angle = 18.4349;
position = "{578, 195}";
},
{
position = "{455, 184}";
}
);
layerId = "D23EE541-1E2A-489C-800E-8BCE267358A9";
name = "Jun 11 18, 22:47";
paths = (
{
closed = 1;
nodes = (
"660 473 LINE",
"616 595 OFFCURVE",
"505 658 OFFCURVE",
"387 658 CURVE SMOOTH",
"209 658 OFFCURVE",
"66 525 OFFCURVE",
"66 339 CURVE SMOOTH",
"66 154 OFFCURVE",
"198 -8 OFFCURVE",
"385 -8 CURVE SMOOTH",
"510 -8 OFFCURVE",
"647 67 OFFCURVE",
"692 201 CURVE",
"594 201 LINE",
"558 117 OFFCURVE",
"468 77 OFFCURVE",
"384 77 CURVE SMOOTH",
"243 77 OFFCURVE",
"153 201 OFFCURVE",
"153 345 CURVE SMOOTH",
"153 483 OFFCURVE",
"253 572 OFFCURVE",
"388 572 CURVE SMOOTH",
"462 572 OFFCURVE",
"526 548 OFFCURVE",
"576 444 CURVE"
);
}
);
width = 743;
},
{
guideLines = (
{
angle = 18.4349;
position = "{578, 195}";
},
{
position = "{455, 184}";
},
{
angle = 109.8321;
position = "{638, 534}";
}
);
layerId = "9CB12610-55A2-455C-B486-F31D9B41679C";
paths = (
{
closed = 1;
nodes = (
"660 473 LINE",
"615 598 OFFCURVE",
"505 658 OFFCURVE",
"387 658 CURVE SMOOTH",
"209 658 OFFCURVE",
"66 525 OFFCURVE",
"66 339 CURVE SMOOTH",
"66 154 OFFCURVE",
"198 -8 OFFCURVE",
"385 -8 CURVE SMOOTH",
"510 -8 OFFCURVE",
"665 69 OFFCURVE",
"700 225 CURVE",
"607 205 LINE",
"574 112 OFFCURVE",
"468 71 OFFCURVE",
"384 71 CURVE SMOOTH",
"243 71 OFFCURVE",
"150 201 OFFCURVE",
"150 345 CURVE SMOOTH",
"150 480 OFFCURVE",
"256 577 OFFCURVE",
"388 577 CURVE SMOOTH",
"462 577 OFFCURVE",
"538 548 OFFCURVE",
"582 446 CURVE"
);
}
);
width = 743;
},
{
associatedMasterId = "9CB12610-55A2-455C-B486-F31D9B41679C";
guideLines = (
{
angle = 18.4349;
position = "{578, 195}";
},
{
position = "{455, 184}";
}
);
layerId = "E43A65B5-A8F7-4D58-8F37-3466A13B98B6";
name = "Jun 15 18, 09:11";
paths = (
{
closed = 1;
nodes = (
"660 473 LINE",
"616 595 OFFCURVE",
"505 658 OFFCURVE",
"387 658 CURVE SMOOTH",
"209 658 OFFCURVE",
"66 525 OFFCURVE",
"66 339 CURVE SMOOTH",
"66 154 OFFCURVE",
"198 -8 OFFCURVE",
"385 -8 CURVE SMOOTH",
"510 -8 OFFCURVE",
"665 69 OFFCURVE",
"700 225 CURVE",
"604 204 LINE",
"568 120 OFFCURVE",
"468 77 OFFCURVE",
"384 77 CURVE SMOOTH",
"243 77 OFFCURVE",
"154 201 OFFCURVE",
"154 345 CURVE SMOOTH",
"154 483 OFFCURVE",
"253 572 OFFCURVE",
"388 572 CURVE SMOOTH",
"462 572 OFFCURVE",
"526 548 OFFCURVE",
"576 444 CURVE"
);
}
);
width = 743;
}
);
unicode = 0043;
},
{
glyphname = D;
lastChange = "2018-06-15 07:31:07 +0000";
layers = (
{
guideLines = (
{
position = "{373, 725}";
}
);
layerId = "9CB12610-55A2-455C-B486-F31D9B41679C";
paths = (
{
closed = 1;
nodes = (
"586 104 OFFCURVE",
"690 240 OFFCURVE",
"635 451 CURVE SMOOTH",
"580 664 OFFCURVE",
"418 732 OFFCURVE",
"184 670 CURVE",
"33 628 LINE",
"201 0 LINE",
"353 42 LINE"
);
},
{
closed = 1;
nodes = (
"258 94 LINE",
"129 577 LINE",
"204 597 LINE",
"397 649 OFFCURVE",
"511 598 OFFCURVE",
"556 430 CURVE SMOOTH",
"601 262 OFFCURVE",
"527 167 OFFCURVE",
"334 114 CURVE"
);
}
);
width = 676;
},
{
associatedMasterId = "9CB12610-55A2-455C-B486-F31D9B41679C";
guideLines = (
{
position = "{310, 725}";
}
);
layerId = "3BEACCAA-440D-458D-8EF8-09A7B294C2EC";
name = "May 25 18, 13:19";
paths = (
{
closed = 1;
nodes = (
"390 0 OFFCURVE",
"534 134 OFFCURVE",
"536 323 CURVE SMOOTH",
"538 512 OFFCURVE",
"391 650 OFFCURVE",
"202 650 CURVE",
"54 650 LINE",
"54 -1 LINE",
"201 0 LINE"
);
},
{
closed = 1;
nodes = (
"134 75 LINE",
"134 575 LINE",
"202 575 LINE",
"346 575 OFFCURVE",
"448 466 OFFCURVE",
"448 323 CURVE SMOOTH",
"448 179 OFFCURVE",
"347 75 OFFCURVE",
"202 75 CURVE"
);
}
);
width = 600;
},
{
associatedMasterId = "9CB12610-55A2-455C-B486-F31D9B41679C";
guideLines = (
{
position = "{373, 725}";
}
);
layerId = "632E5728-09DA-4B7D-9053-B6A27B6A308A";
name = "Jun 15 18, 09:30";
paths = (
{
closed = 1;
nodes = (
"503 39 OFFCURVE",
"642 144 OFFCURVE",
"643 362 CURVE SMOOTH",
"645 582 OFFCURVE",
"503 689 OFFCURVE",
"264 690 CURVE",
"108 688 LINE",
"107 38 LINE",
"265 40 LINE"
);
},
{
closed = 1;
nodes = (
"187 114 LINE",
"187 614 LINE",
"265 614 LINE",
"459 614 OFFCURVE",
"556 535 OFFCURVE",
"556 362 CURVE SMOOTH",
"556 188 OFFCURVE",
"460 115 OFFCURVE",
"265 114 CURVE"
);
}
);
width = 676;
}
);
unicode = 0044;
},
{
glyphname = E;
lastChange = "2018-06-15 13:03:32 +0000";
layers = (
{
associatedMasterId = "9CB12610-55A2-455C-B486-F31D9B41679C";
layerId = "B4C0B7A1-277A-43A1-89C3-9DA785849FB4";
name = "Apr 27 18, 15:24";
paths = (
{
closed = 1;
nodes = (
"45 455 LINE",
"167 0 LINE",
"233 53 LINE",
"111 508 LINE"
);
},
{
closed = 1;
nodes = (
"437 245 LINE",
"157 83 LINE",
"167 0 LINE",
"506 195 LINE"
);
},
{
closed = 1;
nodes = (
"394 454 LINE",
"114 292 LINE",
"124 209 LINE",
"463 404 LINE"
);
},
{
closed = 1;
nodes = (
"338 651 LINE",
"58 489 LINE",
"68 406 LINE",
"407 601 LINE"
);
}
);
width = 600;
},
{
associatedMasterId = "9CB12610-55A2-455C-B486-F31D9B41679C";
guideLines = (
{
angle = 246.4477;
position = "{30, 693}";
}
);
layerId = "A83B9F5B-F03B-4557-AB89-07B7FCC7F05D";
name = "Apr 27 18, 15:30";
paths = (
{
closed = 1;
nodes = (
"68 650 LINE",
"68 0 LINE",
"150 34 LINE",
"150 650 LINE"
);
},
{
closed = 1;
nodes = (
"145 650 LINE",
"110 572 LINE",
"482 572 LINE",
"516 650 LINE"
);
},
{
closed = 1;
nodes = (
"103 78 LINE",
"68 0 LINE",
"476 0 LINE",
"510 78 LINE"
);
},
{
closed = 1;
nodes = (
"145 387 LINE",
"110 309 LINE",
"367 309 LINE",
"401 387 LINE"
);
}
);
width = 576;
},
{
associatedMasterId = "9CB12610-55A2-455C-B486-F31D9B41679C";
layerId = "06FC2E67-4186-4488-9B37-8ADC0F305467";
name = "Apr 27 18, 15:33";
paths = (
{
closed = 1;
nodes = (
"2 628 LINE",
"170 0 LINE",
"240 55 LINE",
"81 650 LINE"
);
},
{
closed = 1;
nodes = (
"76 648 LINE",
"63 564 LINE",
"408 655 LINE",
"421 739 LINE"
);
},
{
closed = 1;
nodes = (
"184 85 LINE",
"170 0 LINE",
"535 98 LINE",
"548 182 LINE"
);
},
{
closed = 1;
nodes = (
"144 394 LINE",
"131 310 LINE",
"379 376 LINE",
"392 460 LINE"
);
}
);
width = 576;
},
{
associatedMasterId = "9CB12610-55A2-455C-B486-F31D9B41679C";
guideLines = (
{
angle = -83.0657;
position = "{548, 182}";
},
{
angle = -75.0232;
position = "{121, 479}";
}
);
layerId = "D3751A1A-6AC2-4E47-B6FE-2EC6D9271572";
name = "Apr 27 18, 15:48";
paths = (
{
closed = 1;
nodes = (
"7 609 LINE",
"170 0 LINE",
"240 55 LINE",
"86 631 LINE"
);
},
{
closed = 1;
nodes = (
"81 629 LINE",
"68 545 LINE",
"435 642 LINE",
"426 720 LINE"
);
},
{
closed = 1;
nodes = (
"184 85 LINE",
"170 0 LINE",
"557 104 LINE",
"548 182 LINE"
);
},
{
closed = 1;
nodes = (
"150 371 LINE",
"137 287 LINE",
"407 359 LINE",
"398 437 LINE"
);
}
);
width = 576;
},
{
guideLines = (
{
angle = -83.0657;
position = "{548, 182}";
},
{
angle = -75.0232;
position = "{121, 479}";
}
);
layerId = "9CB12610-55A2-455C-B486-F31D9B41679C";
paths = (
{
closed = 1;
nodes = (
"15 530 LINE",
"169 -47 LINE",
"239 8 LINE",
"94 552 LINE"
);
},
{
closed = 1;
nodes = (
"94 552 LINE",
"76 466 LINE",
"433 560 LINE",
"424 639 LINE"
);
},
{
closed = 1;
nodes = (
"183 38 LINE",
"169 -47 LINE",
"548 55 LINE",
"538 133 LINE"
);
},
{
closed = 1;
nodes = (
"154 303 LINE",
"141 219 LINE",
"411 291 LINE",
"402 369 LINE"
);
}
);
width = 576;
},
{
associatedMasterId = "9CB12610-55A2-455C-B486-F31D9B41679C";
guideLines = (
{
angle = -83.0657;
position = "{548, 182}";
},
{
angle = -75.0232;
position = "{121, 479}";
}
);
layerId = "607BC0D3-B79B-4209-9DBC-33AFD9681490";
name = "Jun 15 18, 09:41";
paths = (
{
closed = 1;
nodes = (
"16 577 LINE",
"170 0 LINE",
"240 55 LINE",
"95 599 LINE"
);
},
{
closed = 1;
nodes = (
"90 597 LINE",
"77 513 LINE",
"444 610 LINE",
"435 688 LINE"
);
},
{
closed = 1;
nodes = (
"184 85 LINE",
"170 0 LINE",
"557 104 LINE",
"548 182 LINE"
);
},
{
closed = 1;
nodes = (
"155 350 LINE",
"142 266 LINE",
"412 338 LINE",
"403 416 LINE"
);
}
);
width = 576;
}
);
unicode = 0045;
},
{
glyphname = F;
lastChange = "2018-06-15 13:03:42 +0000";
layers = (
{
layerId = "9CB12610-55A2-455C-B486-F31D9B41679C";
paths = (
{
closed = 1;
nodes = (
"16 530 LINE",
"170 -47 LINE",
"240 8 LINE",
"95 552 LINE"
);
},
{
closed = 1;
nodes = (
"155 303 LINE",
"142 219 LINE",
"412 291 LINE",
"403 369 LINE"
);
},
{
closed = 1;
nodes = (
"95 552 LINE",
"76 466 LINE",
"433 560 LINE",
"424 639 LINE"
);
}
);
width = 463;
},
{
associatedMasterId = "9CB12610-55A2-455C-B486-F31D9B41679C";
layerId = "25AFD8F4-A642-4CC7-9BB7-B2567063D738";
name = "Jun 15 18, 09:44";
paths = (
{
closed = 1;
nodes = (
"15 577 LINE",
"169 0 LINE",
"239 55 LINE",
"94 599 LINE"
);
},
{
closed = 1;
nodes = (
"94 599 LINE",
"76 513 LINE",
"433 607 LINE",
"424 686 LINE"
);
},
{
closed = 1;
nodes = (
"183 85 LINE",
"169 0 LINE",
"548 102 LINE",
"538 180 LINE"
);
},
{
closed = 1;
nodes = (
"154 350 LINE",
"141 266 LINE",
"411 338 LINE",
"402 416 LINE"
);
}
);
visible = 1;
width = 463;
}
);
unicode = 0046;
},
{
glyphname = G;
lastChange = "2018-06-15 12:35:48 +0000";
layers = (
{
guideLines = (
{
angle = 15.0184;
position = "{415, 336}";
},
{
angle = 19.0466;
position = "{573, 443}";
},
{
angle = 15.2551;
position = "{397, 314}";
}
);
layerId = "9CB12610-55A2-455C-B486-F31D9B41679C";
paths = (
{
closed = 1;
nodes = (
"654 489 LINE",
"603 599 OFFCURVE",
"510 658 OFFCURVE",
"394 658 CURVE SMOOTH",
"216 658 OFFCURVE",
"79 533 OFFCURVE",
"79 347 CURVE SMOOTH",
"79 161 OFFCURVE",
"207 -8 OFFCURVE",
"392 -8 CURVE SMOOTH",
"604 -8 OFFCURVE",
"738 169 OFFCURVE",
"707 378 CURVE",
"622 352 LINE",
"647 186 OFFCURVE",
"555 70 OFFCURVE",
"390 70 CURVE SMOOTH",
"251 70 OFFCURVE",
"160 210 OFFCURVE",
"160 355 CURVE SMOOTH",
"160 491 OFFCURVE",
"261 580 OFFCURVE",
"394 580 CURVE SMOOTH",
"474 580 OFFCURVE",
"537 537 OFFCURVE",
"574 462 CURVE"
);
},
{
closed = 1;
nodes = (
"706 300 LINE",
"707 378 LINE",
"438 298 LINE",
"425 219 LINE"
);
}
);
width = 730;
},
{
associatedMasterId = "9CB12610-55A2-455C-B486-F31D9B41679C";
guideLines = (
{
angle = 15.0184;
position = "{415, 336}";
},
{
angle = 19.0466;
position = "{573, 443}";
}
);
layerId = "DC331BE4-BD00-4CC2-B48A-5695428C0502";
name = "Jun 12 18, 17:30";
paths = (
{
closed = 1;
nodes = (
"636 53 OFFCURVE",
"726 226 OFFCURVE",
"680 407 CURVE SMOOTH",
"634 588 OFFCURVE",
"464 696 OFFCURVE",
"283 647 CURVE SMOOTH",
"102 598 OFFCURVE",
"13 422 OFFCURVE",
"62 241 CURVE SMOOTH",
"110 62 OFFCURVE",
"276 -44 OFFCURVE",
"455 4 CURVE SMOOTH"
);
},
{
closed = 1;
nodes = (
"295 44 OFFCURVE",
"181 123 OFFCURVE",
"144 263 CURVE SMOOTH",
"107 403 OFFCURVE",
"165 533 OFFCURVE",
"304 570 CURVE SMOOTH",
"445 608 OFFCURVE",
"560 525 OFFCURVE",
"598 385 CURVE SMOOTH",
"636 244 OFFCURVE",
"577 119 OFFCURVE",
"435 81 CURVE SMOOTH"
);
}
);
width = 743;
},
{
associatedMasterId = "9CB12610-55A2-455C-B486-F31D9B41679C";
guideLines = (
{
angle = 15.0184;
position = "{415, 336}";
},
{
angle = 19.0466;
position = "{573, 443}";
}
);
layerId = "6B9A5448-AA16-4E64-B235-7F54C24FBEFE";
name = "Jun 12 18, 17:32";
paths = (
{
closed = 1;
nodes = (
"634 489 LINE",
"570 620 OFFCURVE",
"442 690 OFFCURVE",
"284 647 CURVE SMOOTH",
"103 599 OFFCURVE",
"14 422 OFFCURVE",
"63 241 CURVE SMOOTH",
"111 62 OFFCURVE",
"277 -44 OFFCURVE",
"456 4 CURVE SMOOTH",
"637 52 OFFCURVE",
"727 226 OFFCURVE",
"681 407 CURVE",
"599 385 LINE",
"636 244 OFFCURVE",
"578 119 OFFCURVE",
"436 81 CURVE SMOOTH",
"296 44 OFFCURVE",
"182 123 OFFCURVE",
"145 263 CURVE SMOOTH",
"107 403 OFFCURVE",
"165 532 OFFCURVE",
"305 570 CURVE SMOOTH",
"425 601 OFFCURVE",
"498 555 OFFCURVE",
"545 459 CURVE"
);
},
{
closed = 1;
nodes = (
"690 333 LINE",
"681 407 LINE",
"428 339 LINE",
"415 260 LINE"
);
}
);
width = 743;
},
{
associatedMasterId = "9CB12610-55A2-455C-B486-F31D9B41679C";
guideLines = (
{
angle = 15.0184;
position = "{415, 336}";
},
{
angle = 19.0466;
position = "{573, 443}";
}
);
layerId = "2217E046-8FF0-4605-B946-A896E16B443B";
name = "Jun 12 18, 17:34";
paths = (
{
closed = 1;
nodes = (
"634 489 LINE",
"570 620 OFFCURVE",
"442 690 OFFCURVE",
"284 647 CURVE SMOOTH",
"103 599 OFFCURVE",
"14 422 OFFCURVE",
"63 241 CURVE SMOOTH",
"111 62 OFFCURVE",
"277 -44 OFFCURVE",
"456 4 CURVE SMOOTH",
"637 52 OFFCURVE",
"710 211 OFFCURVE",
"687 378 CURVE",
"602 355 LINE",
"623 225 OFFCURVE",
"578 119 OFFCURVE",
"436 81 CURVE SMOOTH",
"296 44 OFFCURVE",
"182 123 OFFCURVE",
"145 263 CURVE SMOOTH",
"107 403 OFFCURVE",
"165 532 OFFCURVE",
"305 570 CURVE SMOOTH",
"425 601 OFFCURVE",
"498 555 OFFCURVE",
"545 459 CURVE"
);
},
{
closed = 1;
nodes = (
"686 301 LINE",
"687 378 LINE",
"434 310 LINE",
"421 231 LINE"
);
}
);
width = 743;
},
{
associatedMasterId = "9CB12610-55A2-455C-B486-F31D9B41679C";
guideLines = (
{
angle = 15.0184;
position = "{415, 336}";
},
{
angle = 19.0466;
position = "{573, 443}";
},
{
angle = 15.2551;
position = "{397, 314}";
}
);
layerId = "2D63DF81-AF97-400D-8B17-6595EE571934";
name = "Jun 12 18, 17:38";
paths = (
{
closed = 1;
nodes = (
"623 489 LINE",
"559 620 OFFCURVE",
"431 689 OFFCURVE",
"273 647 CURVE SMOOTH",
"92 598 OFFCURVE",
"13 424 OFFCURVE",
"62 243 CURVE SMOOTH",
"110 64 OFFCURVE",
"266 -45 OFFCURVE",
"445 3 CURVE SMOOTH",
"626 52 OFFCURVE",
"699 210 OFFCURVE",
"676 378 CURVE",
"591 352 LINE",
"612 222 OFFCURVE",
"567 119 OFFCURVE",
"425 81 CURVE SMOOTH",
"285 43 OFFCURVE",
"181 125 OFFCURVE",
"144 265 CURVE SMOOTH",
"106 405 OFFCURVE",
"154 533 OFFCURVE",
"294 569 CURVE SMOOTH",
"414 600 OFFCURVE",
"487 554 OFFCURVE",
"534 459 CURVE"
);
},
{
closed = 1;
nodes = (
"675 300 LINE",
"676 378 LINE",
"407 298 LINE",
"394 219 LINE"
);
}
);
width = 743;
},
{
associatedMasterId = "9CB12610-55A2-455C-B486-F31D9B41679C";
guideLines = (
{
angle = 15.0184;
position = "{415, 336}";
},
{
angle = 19.0466;
position = "{573, 443}";
},
{
angle = 15.2551;
position = "{397, 314}";
}
);
layerId = "860A97B6-E637-4074-BAF4-54816714EBAE";
name = "Jun 15 18, 10:23";
paths = (
{
closed = 1;
nodes = (
"660 473 LINE",
"615 598 OFFCURVE",
"505 658 OFFCURVE",
"387 658 CURVE SMOOTH",
"209 658 OFFCURVE",
"66 525 OFFCURVE",
"66 339 CURVE SMOOTH",
"66 154 OFFCURVE",
"198 -8 OFFCURVE",
"385 -8 CURVE SMOOTH",
"510 -8 OFFCURVE",
"665 69 OFFCURVE",
"700 225 CURVE",
"607 205 LINE",
"574 112 OFFCURVE",
"468 71 OFFCURVE",
"384 71 CURVE SMOOTH",
"243 71 OFFCURVE",
"150 201 OFFCURVE",
"150 345 CURVE SMOOTH",
"150 480 OFFCURVE",
"256 577 OFFCURVE",
"388 577 CURVE SMOOTH",
"462 577 OFFCURVE",
"538 548 OFFCURVE",
"582 446 CURVE"
);
}
);
visible = 1;
width = 730;
}
);
unicode = 0047;
},
{
glyphname = H;
lastChange = "2018-06-15 13:03:50 +0000";
layers = (
{
layerId = "9CB12610-55A2-455C-B486-F31D9B41679C";
paths = (
{
closed = 1;
nodes = (
"144 278 LINE",
"136 194 LINE",
"497 310 LINE",
"484 387 LINE"
);
},
{
closed = 1;
nodes = (
"21 520 LINE",
"173 -47 LINE",
"239 6 LINE",
"87 573 LINE"
);
},
{
closed = 1;
nodes = (
"369 585 LINE",
"526 -3 LINE",
"592 50 LINE",
"435 638 LINE"
);
}
);
width = 600;
}
);
unicode = 0048;
},
{
glyphname = I;
lastChange = "2018-06-15 13:03:57 +0000";
layers = (
{
layerId = "9CB12610-55A2-455C-B486-F31D9B41679C";
paths = (
{
closed = 1;
nodes = (
"-20 550 LINE",
"140 -47 LINE",
"206 6 LINE",
"46 603 LINE"
);
}
);
width = 236;
}
);
unicode = 0049;
},
{
glyphname = J;
lastChange = "2018-06-15 13:09:10 +0000";
layers = (
{
guideLines = (
{
angle = 16.5571;
position = "{-25, 151}";
},
{
angle = 38.7655;
position = "{240, 597}";
},
{
angle = 104.8265;
position = "{403, 289}";
},
{
angle = 104.8265;
position = "{329, 267}";
},
{
angle = -77.0054;
position = "{128, 133}";
},
{
angle = 186.5819;
position = "{298, -2}";
}
);
layerId = "9CB12610-55A2-455C-B486-F31D9B41679C";
paths = (
{
closed = 1;
nodes = (
"329 267 LINE",
"368 119 OFFCURVE",
"316 69 OFFCURVE",
"254 62 CURVE SMOOTH",
"190 55 OFFCURVE",
"140 79 OFFCURVE",
"119 172 CURVE",
"50 151 LINE",
"71 34 OFFCURVE",
"172 -16 OFFCURVE",
"256 -7 CURVE SMOOTH",
"408 10 OFFCURVE",
"444 134 OFFCURVE",
"403 289 CURVE"
);
},
{
closed = 1;
nodes = (
"240 597 LINE",
"329 267 LINE",
"403 289 LINE",
"307 650 LINE"
);
}
);
width = 495;
},
{
associatedMasterId = "9CB12610-55A2-455C-B486-F31D9B41679C";
guideLines = (
{
angle = 16.5571;
position = "{80, 151}";
},
{
angle = 38.7655;
position = "{345, 597}";
}
);
layerId = "0E28FE16-A2C4-4E36-B911-C13E3FE8075E";
name = "Jun 15 18, 10:26";
paths = (
{
closed = 1;
nodes = (
"434 267 LINE",
"441 240 OFFCURVE",
"443 222 OFFCURVE",
"443 201 CURVE SMOOTH",
"443 119 OFFCURVE",
"394 62 OFFCURVE",
"324 62 CURVE SMOOTH",
"254 62 OFFCURVE",
"202 94 OFFCURVE",
"184 172 CURVE",
"115 151 LINE",
"134 30 OFFCURVE",
"240 -9 OFFCURVE",
"324 -8 CURVE SMOOTH",
"443 -7 OFFCURVE",
"520 71 OFFCURVE",
"520 206 CURVE SMOOTH",
"520 232 OFFCURVE",
"517 255 OFFCURVE",
"508 289 CURVE"
);
},
{
closed = 1;
nodes = (
"345 597 LINE",
"434 267 LINE",
"508 289 LINE",
"412 650 LINE"
);
}
);
visible = 1;
width = 600;
},
{
associatedMasterId = "9CB12610-55A2-455C-B486-F31D9B41679C";
guideLines = (
{
angle = 16.5571;
position = "{80, 151}";
},
{
angle = 38.7655;
position = "{345, 597}";
},
{
angle = 104.8265;
position = "{508, 289}";
},
{
angle = 104.8265;
position = "{434, 267}";
},
{
angle = -77.0054;
position = "{233, 133}";
}
);
layerId = "4B76EE32-A697-4647-B1E9-2F7517A627C0";
name = "Jun 15 18, 10:35";
paths = (
{
closed = 1;
nodes = (
"434 267 LINE",
"473 119 OFFCURVE",
"412 64 OFFCURVE",
"350 61 CURVE SMOOTH",
"276 57 OFFCURVE",
"243 92 OFFCURVE",
"224 172 CURVE",
"155 151 LINE",
"174 30 OFFCURVE",
"266 -8 OFFCURVE",
"350 -8 CURVE SMOOTH",
"507 -8 OFFCURVE",
"549 134 OFFCURVE",
"508 289 CURVE"
);
},
{
closed = 1;
nodes = (
"345 597 LINE",
"434 267 LINE",
"508 289 LINE",
"412 650 LINE"
);
}
);
width = 600;
}
);
unicode = 004A;
},
{
glyphname = K;
lastChange = "2018-06-15 13:04:08 +0000";
layers = (
{
guideLines = (
{
angle = 15.0124;
position = "{210, 0}";
}
);
layerId = "9CB12610-55A2-455C-B486-F31D9B41679C";
paths = (
{
closed = 1;
nodes = (
"69 550 LINE",
"229 -47 LINE",
"295 6 LINE",
"135 603 LINE"
);
},
{
closed = 1;
nodes = (
"390 602 LINE",
"215 268 LINE",
"303 285 LINE",
"470 602 LINE"
);
},
{
closed = 1;
nodes = (
"303 287 LINE",
"212 267 LINE",
"548 38 LINE",
"600 91 LINE"
);
}
);
width = 631;
},
{
associatedMasterId = "9CB12610-55A2-455C-B486-F31D9B41679C";
layerId = "328F0A1F-040D-4CE6-9C2C-60661BBB986E";
name = "Jun 14 18, 20:20";
paths = (
{
closed = 1;
nodes = (
"83 597 LINE",
"243 0 LINE",
"309 53 LINE",
"149 650 LINE"
);
},
{
closed = 1;
nodes = (
"404 650 LINE",
"229 315 LINE",
"317 332 LINE",
"484 650 LINE"
);
},
{
closed = 1;
nodes = (
"317 332 LINE",
"229 315 LINE",
"552 0 LINE",
"601 50 LINE"
);
}
);
width = 600;
},
{
associatedMasterId = "9CB12610-55A2-455C-B486-F31D9B41679C";
guideLines = (
{
angle = 15.0124;
position = "{210, 0}";
}
);
layerId = "0426A0B6-E99D-4B01-B5AA-665FF7CDAA9B";
name = "Jun 15 18, 10:48";
paths = (
{
closed = 1;
nodes = (
"50 597 LINE",
"210 0 LINE",
"276 53 LINE",
"116 650 LINE"
);
},
{
closed = 1;
nodes = (
"371 650 LINE",
"196 315 LINE",
"284 332 LINE",
"451 650 LINE"
);
},
{
closed = 1;
nodes = (
"284 332 LINE",
"196 315 LINE",
"532 86 LINE",
"581 136 LINE"
);
}
);
width = 631;
}
);
unicode = 004B;
},
{
glyphname = L;
lastChange = "2018-06-15 13:04:17 +0000";
layers = (
{
guideLines = (
{
angle = 218.7655;
position = "{59, 650}";
}
);
layerId = "9CB12610-55A2-455C-B486-F31D9B41679C";
paths = (
{
closed = 1;
nodes = (
"-11 547 LINE",
"148 -47 LINE",
"218 8 LINE",
"59 603 LINE"
);
},
{
closed = 1;
nodes = (
"162 38 LINE",
"148 -47 LINE",
"505 47 LINE",
"496 125 LINE"
);
}
);
width = 505;
}
);
unicode = 004C;
},
{
glyphname = M;
lastChange = "2018-06-15 13:04:23 +0000";
layers = (
{
associatedMasterId = "9CB12610-55A2-455C-B486-F31D9B41679C";
guideLines = (
{
angle = 23.5523;
position = "{360, 219}";
}
);
layerId = "714B7C62-FD88-4C48-A1E3-CDF04B54EED2";
name = "May 25 18, 14:38";
paths = (
{
closed = 1;
nodes = (
"591 34 LINE",
"591 650 LINE",
"513 650 LINE",
"513 0 LINE"
);
},
{
closed = 1;
nodes = (
"109 34 LINE",
"109 650 LINE",
"31 650 LINE",
"31 0 LINE"
);
},
{
closed = 1;
nodes = (
"591 616 LINE",
"513 650 LINE",
"282 219 LINE",
"360 219 LINE"
);
},
{
closed = 1;
nodes = (
"360 219 LINE",
"109 650 LINE",
"31 616 LINE",
"282 185 LINE"
);
}
);
width = 710;
},
{
associatedMasterId = "9CB12610-55A2-455C-B486-F31D9B41679C";
guideLines = (
{
angle = 23.5523;
position = "{360, 219}";
}
);
layerId = "959C3579-5B49-49E3-B00B-741447B16AD2";
name = "May 25 18, 14:40";
paths = (
{
closed = 1;
nodes = (
"591 34 LINE",
"591 650 LINE",
"513 650 LINE",
"513 0 LINE"
);
},
{
closed = 1;
nodes = (
"109 34 LINE",
"109 650 LINE",
"31 650 LINE",
"31 0 LINE"
);
},
{
closed = 1;
nodes = (
"591 616 LINE",
"513 650 LINE",
"262 219 LINE",
"360 219 LINE"
);
},
{
closed = 1;
nodes = (
"360 219 LINE",
"109 650 LINE",
"31 616 LINE",
"282 185 LINE"
);
}
);
width = 710;
},
{
associatedMasterId = "9CB12610-55A2-455C-B486-F31D9B41679C";
guideLines = (
{
angle = 74.6865;
position = "{459, 229}";
},
{
angle = 90;
position = "{389, 308}";
}
);
layerId = "3557B52C-AB58-4563-A9F9-AED5025630FE";
name = "Jun 15 18, 11:07";
paths = (
{
closed = 1;
nodes = (
"573 741 LINE",
"565 773 LINE",
"490 753 LINE",
"387 356 LINE",
"100 648 LINE",
"25 628 LINE",
"34 595 LINE",
"33 595 LINE",
"34 593 LINE",
"193 0 LINE",
"259 53 LINE",
"144 485 LINE",
"426 207 LINE",
"534 590 LINE",
"658 125 LINE",
"725 178 LINE",
"574 739 LINE",
"574 741 LINE"
);
}
);
width = 760;
},
{
guideLines = (
{
angle = 104.8887;
position = "{433, 203}";
}
);
layerId = "9CB12610-55A2-455C-B486-F31D9B41679C";
paths = (
{
closed = 1;
nodes = (
"730 131 LINE",
"570 726 LINE",
"495 706 LINE",
"663 78 LINE"
);
},
{
closed = 1;
nodes = (
"264 6 LINE",
"105 601 LINE",
"30 581 LINE",
"198 -47 LINE"
);
},
{
closed = 1;
nodes = (
"579 694 LINE",
"495 706 LINE",
"364 225 LINE",
"459 250 LINE"
);
},
{
closed = 1;
nodes = (
"459 250 LINE",
"105 601 LINE",
"38 548 LINE",
"433 156 LINE"
);
}
);
width = 760;
}
);
unicode = 004D;
},
{
glyphname = N;
lastChange = "2018-06-15 13:02:29 +0000";
layers = (
{
guideLines = (
{
angle = 90;
position = "{96, 291}";
}
);
layerId = "9CB12610-55A2-455C-B486-F31D9B41679C";
paths = (
{
closed = 1;
nodes = (
"255 6 LINE",
"95 603 LINE",
"29 550 LINE",
"188 -47 LINE"
);
},
{
closed = 1;
nodes = (
"661 115 LINE",
"501 712 LINE",
"434 659 LINE",
"577 138 LINE",
"594 62 LINE"
);
},
{
closed = 1;
nodes = (
"29 550 LINE",
"594 62 LINE",
"641 125 LINE",
"95 603 LINE"
);
}
);
width = 725;
},
{
associatedMasterId = "9CB12610-55A2-455C-B486-F31D9B41679C";
guideLines = (
{
angle = 90;
position = "{96, 291}";
}
);
layerId = "45B35CB9-85F1-4CE2-BB0C-08792A8C460E";
name = "Jun 15 18, 10:53";
paths = (
{
closed = 1;
nodes = (
"256 53 LINE",
"96 650 LINE",
"30 597 LINE",
"189 0 LINE"
);
},
{
closed = 1;
nodes = (
"695 171 LINE",
"536 768 LINE",
"469 715 LINE",
"629 118 LINE"
);
},
{
closed = 1;
nodes = (
"30 597 LINE",
"629 118 LINE",
"679 186 LINE",
"96 650 LINE"
);
}
);
width = 725;
},
{
associatedMasterId = "9CB12610-55A2-455C-B486-F31D9B41679C";
guideLines = (
{
angle = 90;
position = "{96, 291}";
}
);
layerId = "C4A4C3EE-552B-44AA-8453-31E39E1AE497";
name = "Jun 15 18, 10:56";
paths = (
{
closed = 1;
nodes = (
"255 58 LINE",
"95 655 LINE",
"29 602 LINE",
"188 5 LINE"
);
},
{
closed = 1;
nodes = (
"661 167 LINE",
"501 764 LINE",
"434 711 LINE",
"594 114 LINE"
);
},
{
closed = 1;
nodes = (
"29 602 LINE",
"594 114 LINE",
"644 182 LINE",
"95 655 LINE"
);
}
);
visible = 1;
width = 725;
}
);
unicode = 004E;
},
{
glyphname = O;
lastChange = "2018-04-27 13:14:30 +0000";
layers = (
{
guideLines = (
{
angle = 90;
position = "{387, 544}";
showMeasurement = 1;
},
{
position = "{578, 320}";
showMeasurement = 1;
}
);
layerId = "9CB12610-55A2-455C-B486-F31D9B41679C";
paths = (
{
closed = 1;
nodes = (
"575 -8 OFFCURVE",
"720 136 OFFCURVE",
"722 323 CURVE SMOOTH",
"724 510 OFFCURVE",
"575 658 OFFCURVE",
"388 658 CURVE SMOOTH",
"201 658 OFFCURVE",
"53 510 OFFCURVE",
"53 323 CURVE SMOOTH",
"53 136 OFFCURVE",
"201 -8 OFFCURVE",
"388 -8 CURVE SMOOTH"
);
},
{
closed = 1;
nodes = (
"243 70 OFFCURVE",
"136 177 OFFCURVE",
"136 323 CURVE SMOOTH",
"136 468 OFFCURVE",
"243 580 OFFCURVE",
"388 580 CURVE SMOOTH",
"534 579 OFFCURVE",
"639 468 OFFCURVE",
"639 323 CURVE SMOOTH",
"639 177 OFFCURVE",
"535 70 OFFCURVE",
"388 70 CURVE SMOOTH"
);
}
);
width = 773;
}
);
unicode = 004F;
},
{
glyphname = P;
lastChange = "2018-06-15 13:12:30 +0000";
layers = (
{
associatedMasterId = "9CB12610-55A2-455C-B486-F31D9B41679C";
layerId = "B904819D-74C1-48F7-9BDD-120CD90E67FE";
name = "May 25 18, 10:51";
paths = (
{
closed = 1;
nodes = (
"30 235 OFFCURVE"
);
},
{
closed = 1;
nodes = (
"159 0 LINE",
"225 53 LINE",
"99 526 LINE",
"45 430 LINE"
);
},
{
closed = 1;
nodes = (
"99 526 OFFCURVE",
"158 582 OFFCURVE",
"239 582 CURVE SMOOTH",
"332 582 OFFCURVE",
"371 530 OFFCURVE",
"371 458 CURVE SMOOTH",
"371 353 OFFCURVE",
"297 324 OFFCURVE",
"241 324 CURVE SMOOTH",
"159 324 OFFCURVE",
"109 373 OFFCURVE",
"87 410 CURVE",
"110 327 LINE",
"117 296 OFFCURVE",
"151 253 OFFCURVE",
"241 253 CURVE SMOOTH",
"324 253 OFFCURVE",
"448 303 OFFCURVE",
"448 460 CURVE SMOOTH",
"448 581 OFFCURVE",
"373 658 OFFCURVE",
"239 658 CURVE SMOOTH",
"126 658 OFFCURVE",
"7 569 OFFCURVE",
"45 430 CURVE",
"126 425 LINE"
);
}
);
width = 600;
},
{
associatedMasterId = "9CB12610-55A2-455C-B486-F31D9B41679C";
guideLines = (
{
angle = 90;
position = "{235, 502}";
}
);
layerId = "08E2B56D-CDF7-4327-BC21-F8DB90174475";
name = "May 25 18, 11:21";
paths = (
{
closed = 1;
nodes = (
"78 508 LINE",
"78 0 LINE",
"156 34 LINE",
"155 508 LINE"
);
},
{
closed = 1;
nodes = (
"377 295 LINE SMOOTH",
"478 295 OFFCURVE",
"531 389 OFFCURVE",
"531 470 CURVE SMOOTH",
"531 551 OFFCURVE",
"478 650 OFFCURVE",
"377 650 CURVE SMOOTH",
"180 650 LINE SMOOTH",
"119 650 OFFCURVE",
"78 610 OFFCURVE",
"78 548 CURVE SMOOTH",
"78 508 LINE",
"155 508 LINE",
"155 536 LINE SMOOTH",
"155 561 OFFCURVE",
"171 576 OFFCURVE",
"195 576 CURVE SMOOTH",
"372 576 LINE SMOOTH",
"433 576 OFFCURVE",
"457 516 OFFCURVE",
"457 470 CURVE SMOOTH",
"457 426 OFFCURVE",
"437 369 OFFCURVE",
"372 369 CURVE SMOOTH",
"78 369 LINE",
"78 295 LINE"
);
}
);
width = 600;
},
{
layerId = "9CB12610-55A2-455C-B486-F31D9B41679C";
paths = (
{
closed = 1;
nodes = (
"58 548 LINE",
"218 -47 LINE",
"284 6 LINE",
"124 601 LINE"
);
},
{
closed = 1;
nodes = (
"419 313 LINE",
"517 339 OFFCURVE",
"558 432 OFFCURVE",
"534 525 CURVE SMOOTH",
"511 615 OFFCURVE",
"425 682 OFFCURVE",
"327 655 CURVE",
"50 581 LINE",
"69 510 LINE",
"340 582 LINE",
"404 599 OFFCURVE",
"442 558 OFFCURVE",
"456 503 CURVE SMOOTH",
"469 451 OFFCURVE",
"457 399 OFFCURVE",
"395 382 CURVE",
"122 310 LINE",
"141 238 LINE"
);
}
);
width = 591;
},
{
associatedMasterId = "9CB12610-55A2-455C-B486-F31D9B41679C";
layerId = "57F81620-D1A1-4844-B076-17C9FFAF35E7";
name = "May 25 18, 11:24";
paths = (
{
closed = 1;
nodes = (
"78 616 LINE",
"78 0 LINE",
"156 34 LINE",
"155 650 LINE"
);
},
{
closed = 1;
nodes = (
"365 295 LINE",
"467 295 OFFCURVE",
"531 375 OFFCURVE",
"531 470 CURVE SMOOTH",
"531 565 OFFCURVE",
"467 650 OFFCURVE",
"365 650 CURVE",
"78 650 LINE",
"78 576 LINE",
"365 576 LINE",
"431 576 OFFCURVE",
"457 527 OFFCURVE",
"457 470 CURVE SMOOTH",
"457 416 OFFCURVE",
"431 369 OFFCURVE",
"365 369 CURVE",
"78 369 LINE",
"78 295 LINE"
);
}
);
width = 600;
}
);
unicode = 0050;
},
{
glyphname = Q;
lastChange = "2018-06-12 15:30:50 +0000";
layers = (
{
layerId = "9CB12610-55A2-455C-B486-F31D9B41679C";
paths = (
{
closed = 1;
nodes = (
"655 52 OFFCURVE",
"745 226 OFFCURVE",
"699 407 CURVE SMOOTH",
"652 588 OFFCURVE",
"483 696 OFFCURVE",
"302 647 CURVE SMOOTH",
"121 599 OFFCURVE",
"32 422 OFFCURVE",
"81 241 CURVE SMOOTH",
"129 62 OFFCURVE",
"295 -44 OFFCURVE",
"474 4 CURVE SMOOTH"
);
},
{
closed = 1;
nodes = (
"314 44 OFFCURVE",
"200 123 OFFCURVE",
"163 263 CURVE SMOOTH",
"125 403 OFFCURVE",
"184 532 OFFCURVE",
"323 570 CURVE SMOOTH",
"464 607 OFFCURVE",
"579 525 OFFCURVE",
"617 385 CURVE SMOOTH",
"654 244 OFFCURVE",
"596 119 OFFCURVE",
"454 81 CURVE SMOOTH"
);
},
{
closed = 1;
nodes = (
"450 219 LINE",
"688 0 LINE",
"719 86 LINE",
"481 305 LINE"
);
}
);
width = 773;
},
{
associatedMasterId = "9CB12610-55A2-455C-B486-F31D9B41679C";
layerId = "3B881E97-2838-4DD8-819A-BD30857197E7";
name = "May 25 18, 08:40";
paths = (
{
closed = 1;
nodes = (
"575 -8 OFFCURVE",
"720 136 OFFCURVE",
"722 323 CURVE SMOOTH",
"724 510 OFFCURVE",
"575 658 OFFCURVE",
"388 658 CURVE SMOOTH",
"201 658 OFFCURVE",
"53 510 OFFCURVE",
"53 323 CURVE SMOOTH",
"53 136 OFFCURVE",
"201 -8 OFFCURVE",
"388 -8 CURVE SMOOTH"
);
},
{
closed = 1;
nodes = (
"243 70 OFFCURVE",
"136 177 OFFCURVE",
"136 323 CURVE SMOOTH",
"136 468 OFFCURVE",
"243 580 OFFCURVE",
"388 580 CURVE SMOOTH",
"534 579 OFFCURVE",
"639 468 OFFCURVE",
"639 323 CURVE SMOOTH",
"639 177 OFFCURVE",
"535 70 OFFCURVE",
"388 70 CURVE SMOOTH"
);
},
{
closed = 1;
nodes = (
"375 200 LINE",
"470 -150 LINE",
"540 -95 LINE",
"445 255 LINE"
);
}
);
width = 773;
},
{
associatedMasterId = "9CB12610-55A2-455C-B486-F31D9B41679C";
layerId = "E89EE812-709F-4D35-986E-E1D191869863";
name = "May 25 18, 09:10";
paths = (
{
closed = 1;
nodes = (
"575 -8 OFFCURVE",
"707 136 OFFCURVE",
"709 323 CURVE SMOOTH",
"711 510 OFFCURVE",
"575 658 OFFCURVE",
"388 658 CURVE SMOOTH",
"201 658 OFFCURVE",
"69 510 OFFCURVE",
"69 323 CURVE SMOOTH",
"69 136 OFFCURVE",
"201 -8 OFFCURVE",
"388 -8 CURVE SMOOTH"
);
},
{
closed = 1;
nodes = (
"243 72 OFFCURVE",
"154 177 OFFCURVE",
"154 323 CURVE SMOOTH",
"154 468 OFFCURVE",
"243 578 OFFCURVE",
"388 578 CURVE SMOOTH",
"534 577 OFFCURVE",
"624 468 OFFCURVE",
"624 323 CURVE SMOOTH",
"624 177 OFFCURVE",
"535 72 OFFCURVE",
"388 72 CURVE SMOOTH"
);
},
{
closed = 1;
nodes = (
"381 173 LINE",
"466 -139 LINE",
"536 -84 LINE",
"451 228 LINE"
);
}
);
width = 773;
}
);
unicode = 0051;
},
{
glyphname = R;
lastChange = "2018-06-15 13:12:53 +0000";
layers = (
{
guideLines = (
{
angle = 38.7655;
position = "{617, 60}";
}
);
layerId = "9CB12610-55A2-455C-B486-F31D9B41679C";
paths = (
{
closed = 1;
nodes = (
"74 548 LINE",
"234 -47 LINE",
"300 6 LINE",
"140 601 LINE"
);
},
{
closed = 1;
nodes = (
"435 313 LINE",
"533 339 OFFCURVE",
"575 433 OFFCURVE",
"550 525 CURVE SMOOTH",
"525 616 OFFCURVE",
"441 682 OFFCURVE",
"343 655 CURVE",
"66 581 LINE",
"85 510 LINE",
"356 582 LINE",
"421 599 OFFCURVE",
"458 558 OFFCURVE",
"473 503 CURVE SMOOTH",
"487 451 OFFCURVE",
"474 399 OFFCURVE",
"411 382 CURVE",
"138 310 LINE",
"157 238 LINE"
);
},
{
closed = 1;
nodes = (
"413 314 LINE",
"634 24 LINE",
"685 86 LINE",
"450 398 LINE"
);
}
);
width = 720;
},
{
associatedMasterId = "9CB12610-55A2-455C-B486-F31D9B41679C";
guideLines = (
{
angle = 38.7655;
position = "{466, 31}";
}
);
layerId = "3BD76207-379D-4742-9749-885EABB2B3B0";
name = "May 25 18, 11:25";
paths = (
{
closed = 1;
nodes = (
"30 235 OFFCURVE"
);
},
{
closed = 1;
nodes = (
"466 31 LINE",
"527 80 LINE",
"357 378 LINE",
"315 296 LINE"
);
},
{
closed = 1;
nodes = (
"99 526 OFFCURVE",
"158 582 OFFCURVE",
"239 582 CURVE SMOOTH",
"332 582 OFFCURVE",
"371 530 OFFCURVE",
"371 458 CURVE SMOOTH",
"371 353 OFFCURVE",
"297 324 OFFCURVE",
"241 324 CURVE SMOOTH",
"159 324 OFFCURVE",
"109 373 OFFCURVE",
"87 410 CURVE",
"110 327 LINE",
"117 296 OFFCURVE",
"151 253 OFFCURVE",
"241 253 CURVE SMOOTH",
"324 253 OFFCURVE",
"448 303 OFFCURVE",
"448 460 CURVE SMOOTH",
"448 581 OFFCURVE",
"373 658 OFFCURVE",
"239 658 CURVE SMOOTH",
"126 658 OFFCURVE",
"7 569 OFFCURVE",
"45 430 CURVE",
"126 425 LINE"
);
},
{
closed = 1;
nodes = (
"159 0 LINE",
"225 53 LINE",
"99 526 LINE",
"45 430 LINE"
);
}
);
width = 600;
}
);
unicode = 0052;
},
{
glyphname = S;
lastChange = "2018-06-15 13:13:33 +0000";
layers = (
{
guideLines = (
{
angle = 116.2318;
position = "{425, 490}";
},
{
angle = 109.9164;
position = "{441, 538}";
}
);
layerId = "9CB12610-55A2-455C-B486-F31D9B41679C";
paths = (
{
closed = 1;
nodes = (
"141 658 OFFCURVE",
"38 589 OFFCURVE",
"38 472 CURVE SMOOTH",
"38 322 OFFCURVE",
"161 309 OFFCURVE",
"295 285 CURVE SMOOTH",
"377 270 OFFCURVE",
"454 253 OFFCURVE",
"454 182 CURVE SMOOTH",
"454 119 OFFCURVE",
"393 67 OFFCURVE",
"332 67 CURVE SMOOTH",
"259 67 OFFCURVE",
"203 93 OFFCURVE",
"182 171 CURVE",
"97 171 LINE",
"109 67 OFFCURVE",
"215 -8 OFFCURVE",
"315 -8 CURVE SMOOTH",
"437 -8 OFFCURVE",
"536 52 OFFCURVE",
"536 186 CURVE SMOOTH",
"536 321 OFFCURVE",
"420 341 OFFCURVE",
"291 367 CURVE SMOOTH",
"205 384 OFFCURVE",
"120 386 OFFCURVE",
"120 476 CURVE SMOOTH",
"120 539 OFFCURVE",
"189 580 OFFCURVE",
"255 580 CURVE SMOOTH",
"303 580 OFFCURVE",
"347 555 OFFCURVE",
"380 488 CURVE",
"441 538 LINE",
"411 621 OFFCURVE",
"332 658 OFFCURVE",
"256 658 CURVE SMOOTH"
);
}
);
width = 566;
},
{
associatedMasterId = "9CB12610-55A2-455C-B486-F31D9B41679C";
layerId = "3E3D1A8E-99A3-43CB-9C84-0BE15F772087";
name = "May 24 18, 21:47";
paths = (
{
closed = 1;
nodes = (
"20 451 OFFCURVE",
"20 359 CURVE SMOOTH",
"20 245 OFFCURVE",
"121 236 OFFCURVE",
"224 218 CURVE SMOOTH",
"286 207 OFFCURVE",
"336 196 OFFCURVE",
"336 138 CURVE SMOOTH",
"336 94 OFFCURVE",
"294 70 OFFCURVE",
"245 64 CURVE SMOOTH",
"214 61 OFFCURVE",
"156 70 OFFCURVE",
"140 129 CURVE",
"64 129 LINE",
"75 37 OFFCURVE",
"151 -7 OFFCURVE",
"230 -7 CURVE SMOOTH",
"323 -7 OFFCURVE",
"412 45 OFFCURVE",
"412 141 CURVE SMOOTH",
"412 250 OFFCURVE",
"319 268 OFFCURVE",
"221 288 CURVE SMOOTH",
"155 301 OFFCURVE",
"99 301 OFFCURVE",
"99 362 CURVE SMOOTH",
"99 409 OFFCURVE",
"146 436 OFFCURVE",
"198 436 CURVE SMOOTH",
"228 436 OFFCURVE",
"264 425 OFFCURVE",
"290 373 CURVE",
"344 416 LINE",
"321 476 OFFCURVE",
"266 507 OFFCURVE",
"201 507 CURVE SMOOTH",
"109 507 OFFCURVE"
);
}
);
width = 600;
},
{
associatedMasterId = "9CB12610-55A2-455C-B486-F31D9B41679C";
guideLines = (
{
angle = 116.2318;
position = "{425, 490}";
},
{
angle = 109.9164;
position = "{441, 538}";
}
);
layerId = "264EA963-9AFF-47AD-95EF-EF1355D472A0";
name = "Jun 15 18, 15:13";
paths = (
{
closed = 1;
nodes = (
"141 658 OFFCURVE",
"38 589 OFFCURVE",
"38 472 CURVE SMOOTH",
"38 322 OFFCURVE",
"161 307 OFFCURVE",
"295 283 CURVE SMOOTH",
"377 268 OFFCURVE",
"451 253 OFFCURVE",
"451 182 CURVE SMOOTH",
"451 119 OFFCURVE",
"393 69 OFFCURVE",
"332 69 CURVE SMOOTH",
"259 69 OFFCURVE",
"205 93 OFFCURVE",
"184 171 CURVE",
"97 171 LINE",
"109 67 OFFCURVE",
"215 -8 OFFCURVE",
"315 -8 CURVE SMOOTH",
"437 -8 OFFCURVE",
"536 52 OFFCURVE",
"536 186 CURVE SMOOTH",
"536 321 OFFCURVE",
"420 343 OFFCURVE",
"291 369 CURVE SMOOTH",
"205 386 OFFCURVE",
"123 386 OFFCURVE",
"123 476 CURVE SMOOTH",
"123 539 OFFCURVE",
"189 578 OFFCURVE",
"255 578 CURVE SMOOTH",
"303 578 OFFCURVE",
"347 555 OFFCURVE",
"380 488 CURVE",
"441 538 LINE",
"411 621 OFFCURVE",
"332 658 OFFCURVE",
"256 658 CURVE SMOOTH"
);
}
);
width = 566;
}
);
unicode = 0053;
},
{
glyphname = T;
lastChange = "2018-06-15 13:04:49 +0000";
layers = (
{
guideLines = (
{
position = "{390, 688}";
}
);
layerId = "9CB12610-55A2-455C-B486-F31D9B41679C";
paths = (
{
closed = 1;
nodes = (
"436 556 LINE",
"426 641 LINE",
"30 413 LINE",
"40 329 LINE"
);
},
{
closed = 1;
nodes = (
"198 492 LINE",
"342 -47 LINE",
"408 6 LINE",
"264 545 LINE"
);
}
);
width = 466;
},
{
associatedMasterId = "9CB12610-55A2-455C-B486-F31D9B41679C";
guideLines = (
{
position = "{472, 688}";
}
);
layerId = "63EBB34F-8C2D-49FE-A3C9-9F53F06025E5";
name = "May 25 18, 12:59";
paths = (
{
closed = 1;
nodes = (
"223 577 LINE",
"377 0 LINE",
"447 55 LINE",
"302 599 LINE"
);
},
{
closed = 1;
nodes = (
"62 562 LINE",
"49 478 LINE",
"520 604 LINE",
"533 688 LINE"
);
}
);
width = 600;
},
{
associatedMasterId = "9CB12610-55A2-455C-B486-F31D9B41679C";
guideLines = (
{
position = "{415, 688}";
}
);
layerId = "71E42798-275C-4AAF-844E-0E34CC0ED179";
name = "May 25 18, 13:05";
paths = (
{
closed = 1;
nodes = (
"217 604 LINE",
"307 0 LINE",
"377 55 LINE",
"296 626 LINE"
);
},
{
closed = 1;
nodes = (
"476 604 LINE",
"488 688 LINE",
"43 569 LINE",
"30 485 LINE"
);
}
);
width = 518;
}
);
unicode = 0054;
},
{
glyphname = U;
lastChange = "2018-06-15 09:17:40 +0000";
layers = (
{
guideLines = (
{
angle = 105.0634;
position = "{482, 650}";
},
{
angle = 105.0333;
position = "{459, 419}";
},
{
angle = 104.8775;
position = "{173, 419}";
},
{
angle = 104.8125;
position = "{101, 368}";
}
);
layerId = "9CB12610-55A2-455C-B486-F31D9B41679C";
paths = (
{
closed = 1;
nodes = (
"482 650 LINE",
"412 594 LINE",
"506 244 LINE",
"534 132 OFFCURVE",
"462 75 OFFCURVE",
"368 75 CURVE SMOOTH",
"304 75 OFFCURVE",
"261 96 OFFCURVE",
"234 187 CURVE",
"111 650 LINE",
"41 593 LINE",
"160 143 LINE",
"191 36 OFFCURVE",
"277 -8 OFFCURVE",
"366 -8 CURVE SMOOTH",
"507 -8 OFFCURVE",
"629 97 OFFCURVE",
"591 245 CURVE"
);
}
);
width = 636;
},
{
associatedMasterId = "9CB12610-55A2-455C-B486-F31D9B41679C";
guideLines = (
{
angle = 105.0634;
position = "{537, 448}";
},
{
angle = 105.0333;
position = "{459, 419}";
},
{
angle = 104.8775;
position = "{173, 419}";
},
{
angle = 104.8125;
position = "{101, 368}";
}
);
layerId = "23D65381-B7DA-448E-A6CC-9BA5B391855C";
name = "Jun 15 18, 11:16";
paths = (
{
closed = 1;
nodes = (
"482 650 LINE",
"412 594 LINE",
"506 244 LINE",
"537 132 OFFCURVE",
"462 75 OFFCURVE",
"368 75 CURVE SMOOTH",
"304 75 OFFCURVE",
"258 96 OFFCURVE",
"234 187 CURVE",
"111 650 LINE",
"41 593 LINE",
"160 143 LINE",
"188 36 OFFCURVE",
"277 -8 OFFCURVE",
"366 -8 CURVE SMOOTH",
"507 -8 OFFCURVE",
"632 97 OFFCURVE",
"591 245 CURVE"
);
}
);
width = 636;
}
);
unicode = 0055;
},
{
glyphname = V;
lastChange = "2018-06-15 13:04:56 +0000";
layers = (
{
guideLines = (
{
angle = 39.2374;
position = "{723, -1}";
},
{
angle = 52.6961;
position = "{227, 526}";
},
{
angle = 104.8887;
position = "{584, 229}";
},
{
angle = 218.3456;
position = "{511, 0}";
}
);
layerId = "9CB12610-55A2-455C-B486-F31D9B41679C";
paths = (
{
closed = 1;
nodes = (
"50 464 LINE",
"511 -47 LINE",
"562 -7 LINE",
"498 82 LINE",
"102 528 LINE"
);
},
{
closed = 1;
nodes = (
"483 10 LINE",
"562 -7 LINE",
"502 633 LINE",
"420 613 LINE"
);
}
);
width = 612;
},
{
associatedMasterId = "9CB12610-55A2-455C-B486-F31D9B41679C";
guideLines = (
{
angle = 39.2374;
position = "{412, -1}";
}
);
layerId = "3AF8A88E-4062-4878-823E-AF10F711C122";
name = "May 25 18, 15:13";
paths = (
{
closed = 1;
nodes = (
"491 64 LINE",
"518 672 LINE",
"441 646 LINE",
"417 4 LINE"
);
},
{
closed = 1;
nodes = (
"468 45 LINE",
"94 621 LINE",
"49 557 LINE",
"412 0 LINE"
);
}
);
width = 600;
},
{
associatedMasterId = "9CB12610-55A2-455C-B486-F31D9B41679C";
guideLines = (
{
angle = 39.2374;
position = "{412, -1}";
}
);
layerId = "1B86E19E-E923-4005-9878-6FFE95F60FF2";
name = "May 25 18, 15:17";
paths = (
{
closed = 1;
nodes = (
"491 64 LINE",
"517 650 LINE",
"441 650 LINE",
"417 4 LINE"
);
},
{
closed = 1;
nodes = (
"468 45 LINE",
"94 621 LINE",
"49 557 LINE",
"412 0 LINE"
);
}
);
width = 600;
},
{
associatedMasterId = "9CB12610-55A2-455C-B486-F31D9B41679C";
guideLines = (
{
angle = 39.2374;
position = "{572, -1}";
}
);
layerId = "2317CB6B-FF23-432C-9ABB-61EF627E2D32";
name = "May 25 18, 15:18";
paths = (
{
closed = 1;
nodes = (
"601 36 LINE",
"602 685 LINE",
"528 653 LINE",
"528 4 LINE"
);
},
{
closed = 1;
nodes = (
"601 36 LINE",
"148 596 LINE",
"107 527 LINE",
"528 4 LINE"
);
},
{
closed = 1;
nodes = (
"530 482 LINE",
"292 377 LINE",
"352 322 LINE",
"590 428 LINE"
);
}
);
width = 686;
},
{
associatedMasterId = "9CB12610-55A2-455C-B486-F31D9B41679C";
guideLines = (
{
angle = 39.2374;
position = "{550, -1}";
}
);
layerId = "7E6472B8-E597-4E5F-8040-72B843851C04";
name = "Jun 15 18, 11:28";
paths = (
{
closed = 1;
nodes = (
"30 494 LINE",
"509 0 LINE",
"555 63 LINE",
"78 557 LINE"
);
},
{
closed = 1;
nodes = (
"477 57 LINE",
"555 63 LINE",
"476 679 LINE",
"396 658 LINE"
);
}
);
width = 585;
},
{
associatedMasterId = "9CB12610-55A2-455C-B486-F31D9B41679C";
guideLines = (
{
angle = 39.2374;
position = "{550, -1}";
},
{
angle = 52.6961;
position = "{54, 526}";
},
{
angle = 104.8887;
position = "{411, 229}";
},
{
angle = 218.3456;
position = "{455, 0}";
}
);
layerId = "CBA8925A-5E0E-4095-9479-2F5A3428331D";
name = "Jun 15 18, 13:00";
paths = (
{
closed = 1;
nodes = (
"30 64 LINE",
"38 650 LINE",
"-41 650 LINE",
"-45 60 LINE",
"-37 11 LINE"
);
},
{
closed = 1;
nodes = (
"14 66 LINE",
"-346 627 LINE",
"-396 557 LINE",
"-37 11 LINE"
);
},
{
closed = 1;
nodes = (
"450 117 LINE",
"408 734 LINE",
"330 701 LINE",
"377 128 LINE",
"388 68 LINE"
);
},
{
closed = 1;
nodes = (
"433 126 LINE",
"38 650 LINE",
"-13 646 LINE",
"-11 585 LINE",
"388 68 LINE"
);
}
);
width = 585;
}
);
unicode = 0056;
},
{
glyphname = W;
lastChange = "2018-06-15 13:05:04 +0000";
layers = (
{
associatedMasterId = "9CB12610-55A2-455C-B486-F31D9B41679C";
layerId = "B9B81A73-A133-4A1B-82F4-AE3C2A4A3D10";
name = "May 25 18, 15:17";
paths = (
{
closed = 1;
nodes = (
"491 64 LINE",
"502 650 LINE",
"425 650 LINE",
"417 4 LINE"
);
},
{
closed = 1;
nodes = (
"468 45 LINE",
"110 621 LINE",
"65 557 LINE",
"412 0 LINE"
);
},
{
closed = 1;
nodes = (
"883 93 LINE",
"894 701 LINE",
"817 675 LINE",
"809 33 LINE"
);
},
{
closed = 1;
nodes = (
"860 74 LINE",
"502 650 LINE",
"457 586 LINE",
"804 29 LINE"
);
}
);
width = 960;
},
{
associatedMasterId = "9CB12610-55A2-455C-B486-F31D9B41679C";
layerId = "84E4E9E7-E4A4-4AFB-BE03-F7BCBF29A024";
name = "Jun 15 18, 11:31";
paths = (
{
closed = 1;
nodes = (
"491 64 LINE",
"502 650 LINE",
"425 650 LINE",
"417 4 LINE"
);
},
{
closed = 1;
nodes = (
"468 45 LINE",
"110 621 LINE",
"65 557 LINE",
"412 0 LINE"
);
},
{
closed = 1;
nodes = (
"883 93 LINE",
"894 701 LINE",
"817 675 LINE",
"809 33 LINE"
);
},
{
closed = 1;
nodes = (
"860 74 LINE",
"502 650 LINE",
"457 586 LINE",
"804 29 LINE"
);
}
);
width = 960;
},
{
associatedMasterId = "9CB12610-55A2-455C-B486-F31D9B41679C";
layerId = "1A7678B3-ECC3-4192-9A0B-C0201FBBBDED";
name = "Jun 15 18, 11:41";
paths = (
{
closed = 1;
nodes = (
"491 64 LINE",
"499 650 LINE",
"420 650 LINE",
"416 60 LINE",
"412 0 LINE"
);
},
{
closed = 1;
nodes = (
"466 53 LINE",
"115 627 LINE",
"65 557 LINE",
"412 0 LINE"
);
},
{
closed = 1;
nodes = (
"883 93 LINE",
"894 701 LINE",
"814 675 LINE",
"810 100 LINE",
"804 29 LINE"
);
},
{
closed = 1;
nodes = (
"860 86 LINE",
"518 650 LINE",
"467 650 LINE",
"463 589 LINE",
"804 29 LINE"
);
},
{
closed = 0;
nodes = (
"816 40 LINE",
"883 93 LINE"
);
}
);
width = 960;
},
{
associatedMasterId = "9CB12610-55A2-455C-B486-F31D9B41679C";
guideLines = (
{
angle = 218.3456;
position = "{831, 5}";
},
{
angle = 104.8887;
position = "{544, 359}";
}
);
layerId = "18B1726D-CAFA-4E30-95F9-54B12ADBB195";
name = "Jun 15 18, 11:44";
paths = (
{
closed = 1;
nodes = (
"491 64 LINE",
"499 650 LINE",
"420 650 LINE",
"416 60 LINE",
"424 11 LINE"
);
},
{
closed = 1;
nodes = (
"475 66 LINE",
"115 627 LINE",
"65 557 LINE",
"424 11 LINE"
);
},
{
closed = 1;
nodes = (
"883 93 LINE",
"894 701 LINE",
"814 675 LINE",
"810 100 LINE",
"816 40 LINE"
);
},
{
closed = 1;
nodes = (
"866 93 LINE",
"518 650 LINE",
"467 650 LINE",
"463 589 LINE",
"816 40 LINE"
);
}
);
width = 960;
},
{
associatedMasterId = "9CB12610-55A2-455C-B486-F31D9B41679C";
layerId = "2B759A78-1FF1-4279-BE5E-B9975A879C44";
name = "Jun 15 18, 11:45";
paths = (
{
closed = 1;
nodes = (
"811 156 LINE",
"513 650 LINE",
"420 650 LINE",
"416 125 LINE",
"112 623 LINE",
"65 557 LINE",
"412 0 LINE",
"491 64 LINE",
"497 533 LINE",
"804 29 LINE",
"883 93 LINE",
"894 701 LINE",
"814 675 LINE"
);
}
);
width = 960;
},
{
guideLines = (
{
angle = 218.3456;
position = "{849, 68}";
},
{
angle = 104.8887;
position = "{544, 359}";
}
);
layerId = "9CB12610-55A2-455C-B486-F31D9B41679C";
paths = (
{
closed = 1;
nodes = (
"491 6 LINE",
"499 592 LINE",
"420 592 LINE",
"416 2 LINE",
"424 -47 LINE"
);
},
{
closed = 1;
nodes = (
"475 8 LINE",
"115 569 LINE",
"65 499 LINE",
"424 -47 LINE"
);
},
{
closed = 1;
nodes = (
"911 59 LINE",
"869 676 LINE",
"791 643 LINE",
"838 70 LINE",
"849 10 LINE"
);
},
{
closed = 1;
nodes = (
"894 68 LINE",
"499 592 LINE",
"448 588 LINE",
"450 527 LINE",
"849 10 LINE"
);
}
);
width = 960;
}
);
unicode = 0057;
},
{
glyphname = X;
lastChange = "2018-06-15 13:05:12 +0000";
layers = (
{
guideLines = (
{
position = "{638, 669}";
}
);
layerId = "9CB12610-55A2-455C-B486-F31D9B41679C";
paths = (
{
closed = 1;
nodes = (
"137 571 LINE",
"354 362 LINE",
"412 310 LINE",
"676 75 LINE",
"590 52 LINE",
"391 223 LINE",
"323 286 LINE",
"50 548 LINE"
);
},
{
closed = 1;
nodes = (
"420 312 LINE",
"392 223 LINE",
"306 -24 LINE",
"219 -47 LINE",
"331 288 LINE",
"354 361 LINE",
"438 652 LINE",
"525 675 LINE"
);
}
);
width = 727;
},
{
associatedMasterId = "9CB12610-55A2-455C-B486-F31D9B41679C";
layerId = "19C39F28-4055-497C-85AF-2870DD95BF5D";
name = "Jun 14 18, 20:43";
paths = (
{
closed = 1;
nodes = (
"515 650 LINE",
"112 0 LINE",
"209 0 LINE",
"612 650 LINE"
);
},
{
closed = 1;
nodes = (
"499 0 LINE",
"596 0 LINE",
"187 650 LINE",
"90 650 LINE"
);
}
);
width = 682;
},
{
associatedMasterId = "9CB12610-55A2-455C-B486-F31D9B41679C";
guideLines = (
{
position = "{639, 669}";
}
);
layerId = "DA6CDD45-388E-43FA-ADEC-947170C62B41";
name = "Jun 15 18, 13:02";
paths = (
{
closed = 1;
nodes = (
"428 698 LINE",
"350 421 LINE",
"143 621 LINE",
"50 596 LINE",
"323 334 LINE",
"215 0 LINE",
"309 25 LINE",
"391 271 LINE",
"589 100 LINE",
"683 125 LINE",
"418 359 LINE",
"522 722 LINE"
);
}
);
width = 733;
},
{
associatedMasterId = "9CB12610-55A2-455C-B486-F31D9B41679C";
guideLines = (
{
position = "{639, 669}";
}
);
layerId = "FBC6648D-8709-4A2A-AA73-087546B8F0D6";
name = "Jun 15 18, 13:03";
paths = (
{
closed = 1;
nodes = (
"512 624 LINE",
"365 377 LINE",
"217 624 LINE",
"120 624 LINE",
"316 300 LINE",
"126 5 LINE",
"223 5 LINE",
"366 222 LINE",
"513 5 LINE",
"610 5 LINE",
"415 300 LINE",
"609 623 LINE"
);
}
);
visible = 1;
width = 733;
}
);
unicode = 0058;
},
{
glyphname = Y;
lastChange = "2018-06-15 13:05:24 +0000";
layers = (
{
guideLines = (
{
angle = 90;
position = "{389, 345}";
},
{
position = "{363, 313}";
}
);
layerId = "9CB12610-55A2-455C-B486-F31D9B41679C";
paths = (
{
closed = 1;
nodes = (
"343 312 LINE",
"403 254 LINE",
"515 655 LINE",
"434 635 LINE"
);
},
{
closed = 1;
nodes = (
"56 532 LINE",
"353 239 LINE",
"374 322 LINE",
"135 555 LINE"
);
},
{
closed = 1;
nodes = (
"323 306 LINE",
"419 -47 LINE",
"485 6 LINE",
"399 326 LINE"
);
}
);
width = 559;
},
{
associatedMasterId = "9CB12610-55A2-455C-B486-F31D9B41679C";
guideLines = (
{
angle = 90;
position = "{301, 161}";
}
);
layerId = "334DE6BD-4ABD-4D53-B36B-4E9A5C17892C";
name = "Jun 14 18, 20:33";
paths = (
{
closed = 1;
nodes = (
"37 650 LINE",
"286 155 LINE",
"346 204 LINE",
"124 650 LINE"
);
},
{
closed = 1;
nodes = (
"270 219 LINE",
"346 204 LINE",
"513 650 LINE",
"431 650 LINE"
);
}
);
width = 600;
},
{
associatedMasterId = "9CB12610-55A2-455C-B486-F31D9B41679C";
guideLines = (
{
angle = 90;
position = "{305, 345}";
},
{
position = "{279, 313}";
}
);
layerId = "EBF6BEE1-6268-4995-AC93-33AD0A080724";
name = "Jun 14 18, 20:38";
paths = (
{
closed = 1;
nodes = (
"322 381 LINE",
"381 322 LINE",
"488 700 LINE",
"408 679 LINE"
);
},
{
closed = 1;
nodes = (
"50 582 LINE",
"331 308 LINE",
"353 390 LINE",
"129 604 LINE"
);
},
{
closed = 1;
nodes = (
"302 374 LINE",
"403 0 LINE",
"469 53 LINE",
"377 395 LINE"
);
}
);
width = 538;
}
);
unicode = 0059;
},
{
glyphname = Z;
lastChange = "2018-06-15 13:05:35 +0000";
layers = (
{
guideLines = (
{
position = "{470, 688}";
},
{
angle = 90;
position = "{67, 166}";
},
{
angle = 90;
position = "{575, 594}";
}
);
layerId = "9CB12610-55A2-455C-B486-F31D9B41679C";
paths = (
{
closed = 1;
nodes = (
"467 633 LINE",
"63 524 LINE",
"34 439 LINE",
"435 547 LINE"
);
},
{
closed = 1;
nodes = (
"246 -23 LINE",
"492 640 LINE",
"401 615 LINE",
"156 -47 LINE"
);
},
{
closed = 1;
nodes = (
"615 150 LINE",
"213 42 LINE",
"182 -41 LINE",
"584 67 LINE"
);
}
);
width = 643;
},
{
associatedMasterId = "9CB12610-55A2-455C-B486-F31D9B41679C";
guideLines = (
{
position = "{470, 688}";
},
{
angle = 90;
position = "{67, 166}";
},
{
angle = 90;
position = "{575, 594}";
}
);
layerId = "06737F50-2985-4FFB-A3E1-0AB51EDE2F7B";
name = "Jun 15 18, 13:12";
paths = (
{
closed = 1;
nodes = (
"464 681 LINE",
"80 577 LINE",
"50 493 LINE",
"432 595 LINE"
);
},
{
closed = 1;
nodes = (
"246 26 LINE",
"492 689 LINE",
"394 662 LINE",
"150 0 LINE"
);
},
{
closed = 1;
nodes = (
"593 197 LINE",
"211 95 LINE",
"178 8 LINE",
"560 111 LINE"
);
}
);
width = 643;
}
);
unicode = 005A;
},
{
glyphname = a;
lastChange = "2018-06-15 12:19:59 +0000";
layers = (
{
associatedMasterId = "9CB12610-55A2-455C-B486-F31D9B41679C";
layerId = "1961CA8D-3224-4C30-A6D1-DC48B9CDB401";
name = original;
paths = (
{
closed = 1;
nodes = (
"360 409 LINE",
"470 0 LINE",
"536 53 LINE",
"452 366 LINE"
);
},
{
closed = 1;
nodes = (
"452 366 LINE",
"414 508 OFFCURVE",
"306 514 OFFCURVE",
"253 508 CURVE SMOOTH",
"72 488 OFFCURVE",
"28 295 OFFCURVE",
"60 188 CURVE SMOOTH",
"99 57 OFFCURVE",
"175 -12 OFFCURVE",
"303 -12 CURVE SMOOTH",
"363 -12 OFFCURVE",
"431 22 OFFCURVE",
"469 85 CURVE",
"448 180 LINE",
"428 130 OFFCURVE",
"401 72 OFFCURVE",
"313 64 CURVE SMOOTH",
"244 58 OFFCURVE",
"174 98 OFFCURVE",
"142 189 CURVE SMOOTH",
"109 282 OFFCURVE",
"141 402 OFFCURVE",
"232 424 CURVE SMOOTH",
"257 430 OFFCURVE",
"358 456 OFFCURVE",
"384 321 CURVE"
);
}
);
width = 566;
},
{
associatedMasterId = "9CB12610-55A2-455C-B486-F31D9B41679C";
guideLines = (
{
angle = 90;
position = "{303, 72}";
},
{
position = "{-48, 259}";
}
);
hints = (
{
place = "{1695.023, 0}";
}
);
layerId = "E12D5768-6AD8-4396-995C-67D612BFCDD7";
name = "Mar 16 18, 10:36";
paths = (
{
closed = 1;
nodes = (
"360 409 LINE",
"470 0 LINE",
"536 53 LINE",
"452 366 LINE"
);
},
{
closed = 1;
nodes = (
"452 366 LINE",
"419 488 OFFCURVE",
"336 508 OFFCURVE",
"279 508 CURVE SMOOTH",
"138 508 OFFCURVE",
"50 398 OFFCURVE",
"50 259 CURVE SMOOTH",
"50 119 OFFCURVE",
"138 -8 OFFCURVE",
"303 -8 CURVE SMOOTH",
"378 -8 OFFCURVE",
"431 22 OFFCURVE",
"469 85 CURVE",
"447 182 LINE",
"427 132 OFFCURVE",
"391 63 OFFCURVE",
"303 63 CURVE SMOOTH",
"196 63 OFFCURVE",
"129 152 OFFCURVE",
"129 259 CURVE SMOOTH",
"129 354 OFFCURVE",
"176 430 OFFCURVE",
"279 430 CURVE SMOOTH",
"313 430 OFFCURVE",
"366 412 OFFCURVE",
"384 321 CURVE"
);
}
);
width = 566;
},
{
anchors = (
{
name = bottom;
position = "{308, -10}";
},
{
name = bottom_;
position = "{308, -9}";
},
{
name = top;
position = "{266, 557}";
}
);
guideLines = (
{
angle = 90;
position = "{333, 72}";
},
{
position = "{-18, 259}";
},
{
angle = -75;
position = "{293, 295}";
}
);
hints = (
{
place = "{1695.023, 0}";
}
);
layerId = "9CB12610-55A2-455C-B486-F31D9B41679C";
paths = (
{
closed = 1;
nodes = (
"628 71 OFFCURVE"
);
},
{
closed = 1;
nodes = (
"389 412 LINE",
"500 0 LINE",
"566 53 LINE",
"481 369 LINE"
);
},
{
closed = 1;
nodes = (
"481 369 LINE",
"451 481 OFFCURVE",
"354 508 OFFCURVE",
"294 508 CURVE SMOOTH",
"150 508 OFFCURVE",
"50 392 OFFCURVE",
"50 248 CURVE SMOOTH",
"50 104 OFFCURVE",
"164 -8 OFFCURVE",
"308 -8 CURVE SMOOTH",
"384 -8 OFFCURVE",
"460 30 OFFCURVE",
"496 90 CURVE",
"472 191 LINE",
"452 126 OFFCURVE",
"385 70 OFFCURVE",
"309 70 CURVE SMOOTH",
"207 70 OFFCURVE",
"132 146 OFFCURVE",
"132 248 CURVE SMOOTH",
"132 350 OFFCURVE",
"193 430 OFFCURVE",
"295 430 CURVE SMOOTH",
"329 430 OFFCURVE",
"389 412 OFFCURVE",
"413 324 CURVE"
);
}
);
width = 596;
}
);
leftKerningGroup = rond;
rightKerningGroup = norm;
unicode = 0061;
},
{
glyphname = b;
lastChange = "2018-03-16 12:16:37 +0000";
layers = (
{
associatedMasterId = "9CB12610-55A2-455C-B486-F31D9B41679C";
layerId = "4E47DF3A-DC30-4C97-AD8D-3031744816BE";
name = original;
paths = (
{
closed = 1;
nodes = (
"224 88 LINE",
"46 750 LINE",
"-20 697 LINE",
"132 131 LINE"
);
},
{
closed = 1;
nodes = (
"132 131 LINE",
"170 -11 OFFCURVE",
"278 -17 OFFCURVE",
"331 -11 CURVE SMOOTH",
"512 9 OFFCURVE",
"552 183 OFFCURVE",
"524 309 CURVE SMOOTH",
"499 422 OFFCURVE",
"406 516 OFFCURVE",
"281 509 CURVE SMOOTH",
"221 506 OFFCURVE",
"153 475 OFFCURVE",
"115 412 CURVE",
"140 312 LINE",
"153 370 OFFCURVE",
"207 427 OFFCURVE",
"271 433 CURVE SMOOTH",
"340 439 OFFCURVE",
"410 399 OFFCURVE",
"442 308 CURVE SMOOTH",
"475 215 OFFCURVE",
"443 95 OFFCURVE",
"352 73 CURVE SMOOTH",
"327 67 OFFCURVE",
"226 41 OFFCURVE",
"200 176 CURVE"
);
}
);
width = 582;
},
{
associatedMasterId = "9CB12610-55A2-455C-B486-F31D9B41679C";
guideLines = (
{
position = "{548, 235}";
},
{
angle = 90;
position = "{305, -11}";
}
);
layerId = "43EAEDA8-A073-4A18-8829-159A5D70CDBF";
name = "Mar 2 18, 13:09";
paths = (
{
closed = 1;
nodes = (
"224 88 LINE",
"46 750 LINE",
"-20 697 LINE",
"132 131 LINE"
);
},
{
closed = 1;
nodes = (
"132 131 LINE",
"165 9 OFFCURVE",
"248 -8 OFFCURVE",
"305 -8 CURVE SMOOTH",
"448 -8 OFFCURVE",
"532 91 OFFCURVE",
"532 235 CURVE SMOOTH",
"532 384 OFFCURVE",
"434 508 OFFCURVE",
"294 508 CURVE SMOOTH",
"231 508 OFFCURVE",
"156 480 OFFCURVE",
"115 412 CURVE",
"140 312 LINE",
"154 374 OFFCURVE",
"209 434 OFFCURVE",
"294 434 CURVE SMOOTH",
"381 434 OFFCURVE",
"455 335 OFFCURVE",
"455 235 CURVE SMOOTH",
"455 140 OFFCURVE",
"403 69 OFFCURVE",
"305 69 CURVE SMOOTH",
"271 69 OFFCURVE",
"218 85 OFFCURVE",
"200 176 CURVE"
);
}
);
width = 582;
},
{
associatedMasterId = "9CB12610-55A2-455C-B486-F31D9B41679C";
guideLines = (
{
position = "{548, 235}";
},
{
angle = 90;
position = "{305, -11}";
}
);
layerId = "3F202C97-8486-4686-85BF-E187D8C80261";
name = "Mar 16 18, 10:36";
paths = (
{
closed = 1;
nodes = (
"224 88 LINE",
"46 750 LINE",
"-20 697 LINE",
"132 131 LINE"
);
},
{
closed = 1;
nodes = (
"132 131 LINE",
"165 9 OFFCURVE",
"248 -8 OFFCURVE",
"305 -8 CURVE SMOOTH",
"448 -8 OFFCURVE",
"532 91 OFFCURVE",
"532 235 CURVE SMOOTH",
"532 384 OFFCURVE",
"434 508 OFFCURVE",
"294 508 CURVE SMOOTH",
"231 508 OFFCURVE",
"156 480 OFFCURVE",
"115 412 CURVE",
"140 312 LINE",
"154 374 OFFCURVE",
"209 430 OFFCURVE",
"294 430 CURVE SMOOTH",
"381 430 OFFCURVE",
"455 335 OFFCURVE",
"455 235 CURVE SMOOTH",
"455 140 OFFCURVE",
"403 69 OFFCURVE",
"305 69 CURVE SMOOTH",
"271 69 OFFCURVE",
"218 85 OFFCURVE",
"200 176 CURVE"
);
}
);
width = 582;
},
{
guideLines = (
{
position = "{548, 235}";
},
{
angle = 90;
position = "{305, -11}";
}
);
layerId = "9CB12610-55A2-455C-B486-F31D9B41679C";
paths = (
{
closed = 1;
nodes = (
"628 187 OFFCURVE"
);
},
{
closed = 1;
nodes = (
"225 88 LINE",
"46 750 LINE",
"-20 697 LINE",
"133 131 LINE"
);
},
{
closed = 1;
nodes = (
"133 131 LINE",
"163 19 OFFCURVE",
"260 -8 OFFCURVE",
"320 -8 CURVE SMOOTH",
"464 -8 OFFCURVE",
"564 108 OFFCURVE",
"564 252 CURVE SMOOTH",
"564 396 OFFCURVE",
"450 508 OFFCURVE",
"306 508 CURVE SMOOTH",
"230 508 OFFCURVE",
"153 474 OFFCURVE",
"117 411 CURVE",
"140 316 LINE",
"160 382 OFFCURVE",
"229 430 OFFCURVE",
"305 430 CURVE SMOOTH",
"407 430 OFFCURVE",
"482 354 OFFCURVE",
"482 252 CURVE SMOOTH",
"482 150 OFFCURVE",
"421 70 OFFCURVE",
"319 70 CURVE SMOOTH",
"285 70 OFFCURVE",
"225 88 OFFCURVE",
"201 176 CURVE"
);
}
);
width = 614;
}
);
leftKerningGroup = asc;
rightKerningGroup = rond;
unicode = 0062;
},
{
glyphname = c;
lastChange = "2018-06-15 12:00:19 +0000";
layers = (
{
anchors = (
{
name = bottom;
position = "{357, 0}";
}
);
guideLines = (
{
angle = 18.4349;
position = "{420, 331}";
},
{
position = "{146, 258}";
showMeasurement = 1;
},
{
angle = -75;
position = "{291, 248}";
}
);
layerId = "9CB12610-55A2-455C-B486-F31D9B41679C";
paths = (
{
closed = 1;
nodes = (
"455 189 LINE",
"431 121 OFFCURVE",
"378 69 OFFCURVE",
"299 69 CURVE SMOOTH",
"209 69 OFFCURVE",
"129 150 OFFCURVE",
"129 258 CURVE SMOOTH",
"129 356 OFFCURVE",
"196 432 OFFCURVE",
"289 432 CURVE SMOOTH",
"345 432 OFFCURVE",
"397 401 OFFCURVE",
"426 333 CURVE",
"502 358 LINE",
"475 438 OFFCURVE",
"394 508 OFFCURVE",
"289 508 CURVE SMOOTH",
"155 508 OFFCURVE",
"50 400 OFFCURVE",
"50 258 CURVE SMOOTH",
"50 117 OFFCURVE",
"156 -8 OFFCURVE",
"299 -8 CURVE SMOOTH",
"413 -8 OFFCURVE",
"504 59 OFFCURVE",
"536 189 CURVE"
);
}
);
width = 576;
},
{
associatedMasterId = "9CB12610-55A2-455C-B486-F31D9B41679C";
guideLines = (
{
angle = 18.4349;
position = "{420, 331}";
},
{
angle = 105;
position = "{443, 176}";
}
);
layerId = "353EC3D1-4B6A-40B1-B9DA-2E33158E9DED";
name = original;
paths = (
{
closed = 1;
nodes = (
"455 189 LINE",
"431 121 OFFCURVE",
"377 64 OFFCURVE",
"304 64 CURVE SMOOTH",
"206 64 OFFCURVE",
"127 153 OFFCURVE",
"127 261 CURVE SMOOTH",
"127 359 OFFCURVE",
"197 431 OFFCURVE",
"290 431 CURVE SMOOTH",
"346 431 OFFCURVE",
"397 401 OFFCURVE",
"426 333 CURVE",
"502 358 LINE",
"475 438 OFFCURVE",
"394 507 OFFCURVE",
"289 507 CURVE SMOOTH",
"155 507 OFFCURVE",
"50 400 OFFCURVE",
"50 258 CURVE SMOOTH",
"50 117 OFFCURVE",
"156 -13 OFFCURVE",
"299 -13 CURVE SMOOTH",
"413 -13 OFFCURVE",
"504 59 OFFCURVE",
"536 189 CURVE"
);
}
);
width = 576;
}
);
leftKerningGroup = rond;
rightKerningGroup = open;
unicode = 0063;
},
{
glyphname = d;
lastChange = "2018-03-16 12:10:01 +0000";
layers = (
{
associatedMasterId = "9CB12610-55A2-455C-B486-F31D9B41679C";
layerId = "FE05D98C-FEFE-40E4-8B5C-DC80F6301469";
name = original;
paths = (
{
closed = 1;
nodes = (
"286 697 LINE",
"473 0 LINE",
"539 53 LINE",
"352 750 LINE"
);
},
{
closed = 1;
nodes = (
"378 476 LINE",
"368 487 OFFCURVE",
"304 514 OFFCURVE",
"251 508 CURVE SMOOTH",
"70 488 OFFCURVE",
"29 308 OFFCURVE",
"58 188 CURVE SMOOTH",
"82 89 OFFCURVE",
"154 -12 OFFCURVE",
"301 -12 CURVE SMOOTH",
"361 -12 OFFCURVE",
"429 22 OFFCURVE",
"467 85 CURVE",
"446 180 LINE",
"426 130 OFFCURVE",
"399 72 OFFCURVE",
"311 64 CURVE SMOOTH",
"242 58 OFFCURVE",
"172 98 OFFCURVE",
"140 189 CURVE SMOOTH",
"107 282 OFFCURVE",
"140 402 OFFCURVE",
"230 424 CURVE SMOOTH",
"280 436 OFFCURVE",
"330 438 OFFCURVE",
"378 397 CURVE"
);
}
);
width = 569;
},
{
associatedMasterId = "9CB12610-55A2-455C-B486-F31D9B41679C";
guideLines = (
{
position = "{39, 261}";
},
{
angle = 90;
position = "{267, 517}";
}
);
layerId = "6DC7814C-5E6D-4B15-9678-872F0BD40BEC";
name = "Feb 9 18, 11:35";
paths = (
{
closed = 1;
nodes = (
"286 697 LINE",
"473 0 LINE",
"539 53 LINE",
"352 750 LINE"
);
},
{
closed = 1;
nodes = (
"378 476 LINE",
"369 486 OFFCURVE",
"316 508 OFFCURVE",
"267 508 CURVE SMOOTH",
"137 508 OFFCURVE",
"50 400 OFFCURVE",
"50 261 CURVE SMOOTH",
"50 109 OFFCURVE",
"146 -8 OFFCURVE",
"301 -8 CURVE SMOOTH",
"361 -8 OFFCURVE",
"429 22 OFFCURVE",
"467 85 CURVE",
"446 180 LINE",
"426 130 OFFCURVE",
"399 68 OFFCURVE",
"311 68 CURVE SMOOTH",
"204 68 OFFCURVE",
"127 154 OFFCURVE",
"127 261 CURVE SMOOTH",
"127 355 OFFCURVE",
"177 431 OFFCURVE",
"286 431 CURVE SMOOTH",
"317 431 OFFCURVE",
"348 423 OFFCURVE",
"378 397 CURVE"
);
}
);
width = 569;
},
{
associatedMasterId = "9CB12610-55A2-455C-B486-F31D9B41679C";
guideLines = (
{
position = "{39, 261}";
},
{
angle = 90;
position = "{35, 450}";
},
{
angle = 90;
position = "{301, -14}";
}
);
layerId = "79786609-A74C-47A6-8BF9-6FA95D4D3AE0";
name = "Mar 2 18, 13:09";
paths = (
{
closed = 1;
nodes = (
"286 697 LINE",
"473 0 LINE",
"539 53 LINE",
"352 750 LINE"
);
},
{
closed = 1;
nodes = (
"378 476 LINE",
"369 486 OFFCURVE",
"316 508 OFFCURVE",
"267 508 CURVE SMOOTH",
"137 508 OFFCURVE",
"50 400 OFFCURVE",
"50 261 CURVE SMOOTH",
"50 109 OFFCURVE",
"146 -8 OFFCURVE",
"301 -8 CURVE SMOOTH",
"361 -8 OFFCURVE",
"429 22 OFFCURVE",
"467 85 CURVE",
"446 180 LINE",
"426 130 OFFCURVE",
"404 68 OFFCURVE",
"301 68 CURVE SMOOTH",
"208 68 OFFCURVE",
"127 154 OFFCURVE",
"127 261 CURVE SMOOTH",
"127 355 OFFCURVE",
"177 431 OFFCURVE",
"286 431 CURVE SMOOTH",
"317 431 OFFCURVE",
"348 423 OFFCURVE",
"378 397 CURVE"
);
}
);
width = 569;
},
{
associatedMasterId = "9CB12610-55A2-455C-B486-F31D9B41679C";
guideLines = (
{
position = "{39, 261}";
},
{
angle = 90;
position = "{35, 450}";
},
{
angle = 90;
position = "{301, -14}";
}
);
layerId = "57C4A376-8D9F-4D94-AC15-FADD186FB2DA";
name = "Mar 16 18, 10:37";
paths = (
{
closed = 1;
nodes = (
"286 697 LINE",
"473 0 LINE",
"539 53 LINE",
"352 750 LINE"
);
},
{
closed = 1;
nodes = (
"378 476 LINE",
"369 486 OFFCURVE",
"316 508 OFFCURVE",
"267 508 CURVE SMOOTH",
"137 508 OFFCURVE",
"50 400 OFFCURVE",
"50 261 CURVE SMOOTH",
"50 109 OFFCURVE",
"146 -8 OFFCURVE",
"301 -8 CURVE SMOOTH",
"361 -8 OFFCURVE",
"429 22 OFFCURVE",
"467 85 CURVE",
"446 180 LINE",
"426 130 OFFCURVE",
"404 68 OFFCURVE",
"301 68 CURVE SMOOTH",
"208 68 OFFCURVE",
"130 154 OFFCURVE",
"130 261 CURVE SMOOTH",
"130 355 OFFCURVE",
"177 431 OFFCURVE",
"286 431 CURVE SMOOTH",
"317 431 OFFCURVE",
"348 423 OFFCURVE",
"378 397 CURVE"
);
}
);
width = 569;
},
{
associatedMasterId = "9CB12610-55A2-455C-B486-F31D9B41679C";
guideLines = (
{
position = "{47, 261}";
},
{
angle = 90;
position = "{43, 450}";
},
{
angle = 90;
position = "{309, -14}";
}
);
layerId = "21C4FEC7-717D-46E9-8D5A-E72AA6B631D9";
name = "Mar 16 18, 13:10";
paths = (
{
closed = 1;
nodes = (
"306 697 LINE",
"493 0 LINE",
"559 53 LINE",
"372 750 LINE"
);
},
{
closed = 1;
nodes = (
"165 508 OFFCURVE",
"51 396 OFFCURVE",
"50 252 CURVE SMOOTH",
"49 108 OFFCURVE",
"165 -8 OFFCURVE",
"309 -8 CURVE SMOOTH",
"386 -8 OFFCURVE",
"454 25 OFFCURVE",
"501 78 CURVE",
"389 496 LINE",
"364 504 OFFCURVE",
"337 508 OFFCURVE",
"309 508 CURVE SMOOTH"
);
},
{
closed = 1;
nodes = (
"349 430 OFFCURVE",
"386 418 OFFCURVE",
"415 396 CURVE",
"473 183 LINE",
"447 116 OFFCURVE",
"385 70 OFFCURVE",
"308 70 CURVE SMOOTH",
"206 70 OFFCURVE",
"132 150 OFFCURVE",
"132 252 CURVE SMOOTH",
"132 354 OFFCURVE",
"206 430 OFFCURVE",
"308 430 CURVE SMOOTH"
);
}
);
width = 589;
},
{
guideLines = (
{
position = "{47, 261}";
},
{
angle = 90;
position = "{43, 450}";
},
{
angle = 90;
position = "{309, -14}";
}
);
layerId = "9CB12610-55A2-455C-B486-F31D9B41679C";
paths = (
{
closed = 1;
nodes = (
"306 697 LINE",
"493 0 LINE",
"559 53 LINE",
"372 750 LINE"
);
},
{
closed = 1;
nodes = (
"453 108 OFFCURVE",
"385 70 OFFCURVE",
"308 70 CURVE SMOOTH",
"206 70 OFFCURVE",
"132 150 OFFCURVE",
"132 252 CURVE SMOOTH",
"132 354 OFFCURVE",
"206 430 OFFCURVE",
"308 430 CURVE SMOOTH",
"349 430 OFFCURVE",
"386 428 OFFCURVE",
"408 404 CURVE",
"390 489 LINE",
"368 503 OFFCURVE",
"337 508 OFFCURVE",
"309 508 CURVE SMOOTH",
"165 508 OFFCURVE",
"51 396 OFFCURVE",
"50 252 CURVE SMOOTH",
"49 108 OFFCURVE",
"165 -8 OFFCURVE",
"309 -8 CURVE SMOOTH",
"386 -8 OFFCURVE",
"455 22 OFFCURVE",
"499 80 CURVE",
"471 175 LINE"
);
}
);
width = 589;
}
);
leftKerningGroup = rond;
rightKerningGroup = asc;
unicode = 0064;
},
{
glyphname = e;
lastChange = "2018-06-15 12:01:49 +0000";
layers = (
{
associatedMasterId = "9CB12610-55A2-455C-B486-F31D9B41679C";
background = {
paths = (
{
closed = 1;
nodes = (
"428 121 OFFCURVE",
"390 82 OFFCURVE",
"338 68 CURVE SMOOTH",
"326 65 OFFCURVE",
"314 63 OFFCURVE",
"302 63 CURVE SMOOTH",
"232 63 OFFCURVE",
"167 115 OFFCURVE",
"141 187 CURVE",
"526 292 LINE",
"491 422 OFFCURVE",
"393 506 OFFCURVE",
"282 506 CURVE SMOOTH",
"263 506 OFFCURVE",
"243 503 OFFCURVE",
"224 498 CURVE SMOOTH",
"118 470 OFFCURVE",
"50 370 OFFCURVE",
"50 258 CURVE SMOOTH",
"50 234 OFFCURVE",
"53 209 OFFCURVE",
"60 184 CURVE SMOOTH",
"92 66 OFFCURVE",
"192 -13 OFFCURVE",
"301 -13 CURVE SMOOTH",
"320 -13 OFFCURVE",
"339 -10 OFFCURVE",
"359 -5 CURVE SMOOTH",
"435 15 OFFCURVE",
"503 68 OFFCURVE",
"540 200 CURVE",
"445 169 LINE"
);
},
{
closed = 1;
nodes = (
"259 428 OFFCURVE",
"274 431 OFFCURVE",
"289 431 CURVE SMOOTH",
"345 431 OFFCURVE",
"396 401 OFFCURVE",
"426 333 CURVE",
"128 252 LINE",
"126 331 OFFCURVE",
"170 404 OFFCURVE",
"243 424 CURVE SMOOTH"
);
}
);
};
guideLines = (
{
angle = 15;
position = "{-47, 248}";
showMeasurement = 1;
},
{
angle = 90;
position = "{299, 508}";
showMeasurement = 1;
},
{
position = "{800, 189}";
}
);
layerId = "F6E639EB-6D67-4640-B98D-4BB6FA28F5DD";
name = original;
paths = (
{
closed = 1;
nodes = (
"430 120 OFFCURVE",
"372 65 OFFCURVE",
"302 65 CURVE SMOOTH",
"232 65 OFFCURVE",
"167 117 OFFCURVE",
"141 189 CURVE",
"526 294 LINE",
"491 424 OFFCURVE",
"393 508 OFFCURVE",
"282 508 CURVE SMOOTH",
"153 508 OFFCURVE",
"50 399 OFFCURVE",
"50 260 CURVE SMOOTH",
"50 116 OFFCURVE",
"160 -11 OFFCURVE",
"301 -11 CURVE SMOOTH",
"412 -11 OFFCURVE",
"504 61 OFFCURVE",
"536 191 CURVE",
"455 191 LINE"
);
},
{
closed = 1;
nodes = (
"195 433 OFFCURVE",
"289 433 CURVE SMOOTH",
"345 433 OFFCURVE",
"396 403 OFFCURVE",
"426 335 CURVE",
"128 254 LINE",
"125 354 OFFCURVE"
);
}
);
width = 581;
},
{
associatedMasterId = "9CB12610-55A2-455C-B486-F31D9B41679C";
background = {
paths = (
{
closed = 1;
nodes = (
"428 121 OFFCURVE",
"390 82 OFFCURVE",
"338 68 CURVE SMOOTH",
"326 65 OFFCURVE",
"314 63 OFFCURVE",
"302 63 CURVE SMOOTH",
"232 63 OFFCURVE",
"167 115 OFFCURVE",
"141 187 CURVE",
"526 292 LINE",
"491 422 OFFCURVE",
"393 506 OFFCURVE",
"282 506 CURVE SMOOTH",
"263 506 OFFCURVE",
"243 503 OFFCURVE",
"224 498 CURVE SMOOTH",
"118 470 OFFCURVE",
"50 370 OFFCURVE",
"50 258 CURVE SMOOTH",
"50 234 OFFCURVE",
"53 209 OFFCURVE",
"60 184 CURVE SMOOTH",
"92 66 OFFCURVE",
"192 -13 OFFCURVE",
"301 -13 CURVE SMOOTH",
"320 -13 OFFCURVE",
"339 -10 OFFCURVE",
"359 -5 CURVE SMOOTH",
"435 15 OFFCURVE",
"503 68 OFFCURVE",
"540 200 CURVE",
"445 169 LINE"
);
},
{
closed = 1;
nodes = (
"259 428 OFFCURVE",
"274 431 OFFCURVE",
"289 431 CURVE SMOOTH",
"345 431 OFFCURVE",
"396 401 OFFCURVE",
"426 333 CURVE",
"128 252 LINE",
"126 331 OFFCURVE",
"170 404 OFFCURVE",
"243 424 CURVE SMOOTH"
);
}
);
};
guideLines = (
{
angle = 90;
position = "{301, -19}";
showMeasurement = 1;
},
{
position = "{800, 189}";
}
);
layerId = "E6FD9D50-C253-4DC6-B315-769863B8EAB4";
name = "corr fut";
paths = (
{
closed = 1;
nodes = (
"430 120 OFFCURVE",
"372 69 OFFCURVE",
"301 69 CURVE SMOOTH",
"232 69 OFFCURVE",
"167 117 OFFCURVE",
"141 189 CURVE",
"526 294 LINE",
"491 424 OFFCURVE",
"393 508 OFFCURVE",
"282 508 CURVE SMOOTH",
"153 508 OFFCURVE",
"50 399 OFFCURVE",
"50 260 CURVE SMOOTH",
"50 116 OFFCURVE",
"156 -8 OFFCURVE",
"301 -8 CURVE SMOOTH",
"417 -8 OFFCURVE",
"504 61 OFFCURVE",
"536 191 CURVE",
"455 191 LINE"
);
},
{
closed = 1;
nodes = (
"125 354 OFFCURVE",
"198 431 OFFCURVE",
"282 431 CURVE SMOOTH",
"349 431 OFFCURVE",
"396 403 OFFCURVE",
"426 335 CURVE",
"128 254 LINE"
);
}
);
width = 581;
},
{
associatedMasterId = "9CB12610-55A2-455C-B486-F31D9B41679C";
background = {
paths = (
{
closed = 1;
nodes = (
"428 121 OFFCURVE",
"390 82 OFFCURVE",
"338 68 CURVE SMOOTH",
"326 65 OFFCURVE",
"314 63 OFFCURVE",
"302 63 CURVE SMOOTH",
"232 63 OFFCURVE",
"167 115 OFFCURVE",
"141 187 CURVE",
"526 292 LINE",
"491 422 OFFCURVE",
"393 506 OFFCURVE",
"282 506 CURVE SMOOTH",
"263 506 OFFCURVE",
"243 503 OFFCURVE",
"224 498 CURVE SMOOTH",
"118 470 OFFCURVE",
"50 370 OFFCURVE",
"50 258 CURVE SMOOTH",
"50 234 OFFCURVE",
"53 209 OFFCURVE",
"60 184 CURVE SMOOTH",
"92 66 OFFCURVE",
"192 -13 OFFCURVE",
"301 -13 CURVE SMOOTH",
"320 -13 OFFCURVE",
"339 -10 OFFCURVE",
"359 -5 CURVE SMOOTH",
"435 15 OFFCURVE",
"503 68 OFFCURVE",
"540 200 CURVE",
"445 169 LINE"
);
},
{
closed = 1;
nodes = (
"259 428 OFFCURVE",
"274 431 OFFCURVE",
"289 431 CURVE SMOOTH",
"345 431 OFFCURVE",
"396 401 OFFCURVE",
"426 333 CURVE",
"128 252 LINE",
"126 331 OFFCURVE",
"170 404 OFFCURVE",
"243 424 CURVE SMOOTH"
);
}
);
};
guideLines = (
{
angle = 90;
position = "{301, -19}";
showMeasurement = 1;
},
{
position = "{800, 189}";
}
);
layerId = "2C2E3074-E0BD-44C4-9666-C43B175FA0BE";
name = "Mar 2 18, 13:10";
paths = (
{
closed = 1;
nodes = (
"430 120 OFFCURVE",
"372 65 OFFCURVE",
"301 65 CURVE SMOOTH",
"232 65 OFFCURVE",
"167 117 OFFCURVE",
"141 189 CURVE",
"526 294 LINE",
"491 424 OFFCURVE",
"393 508 OFFCURVE",
"282 508 CURVE SMOOTH",
"153 508 OFFCURVE",
"50 399 OFFCURVE",
"50 260 CURVE SMOOTH",
"50 116 OFFCURVE",
"156 -8 OFFCURVE",
"301 -8 CURVE SMOOTH",
"417 -8 OFFCURVE",
"504 61 OFFCURVE",
"536 191 CURVE",
"455 191 LINE"
);
},
{
closed = 1;
nodes = (
"125 354 OFFCURVE",
"198 433 OFFCURVE",
"282 433 CURVE SMOOTH",
"349 433 OFFCURVE",
"396 403 OFFCURVE",
"426 335 CURVE",
"128 254 LINE"
);
}
);
width = 581;
},
{
anchors = (
{
name = top;
position = "{220, 564}";
}
);
background = {
paths = (
{
closed = 1;
nodes = (
"428 121 OFFCURVE",
"390 82 OFFCURVE",
"338 68 CURVE SMOOTH",
"326 65 OFFCURVE",
"314 63 OFFCURVE",
"302 63 CURVE SMOOTH",
"232 63 OFFCURVE",
"167 115 OFFCURVE",
"141 187 CURVE",
"526 292 LINE",
"491 422 OFFCURVE",
"393 506 OFFCURVE",
"282 506 CURVE SMOOTH",
"263 506 OFFCURVE",
"243 503 OFFCURVE",
"224 498 CURVE SMOOTH",
"118 470 OFFCURVE",
"50 370 OFFCURVE",
"50 258 CURVE SMOOTH",
"50 234 OFFCURVE",
"53 209 OFFCURVE",
"60 184 CURVE SMOOTH",
"92 66 OFFCURVE",
"192 -13 OFFCURVE",
"301 -13 CURVE SMOOTH",
"320 -13 OFFCURVE",
"339 -10 OFFCURVE",
"359 -5 CURVE SMOOTH",
"435 15 OFFCURVE",
"503 68 OFFCURVE",
"540 200 CURVE",
"445 169 LINE"
);
},
{
closed = 1;
nodes = (
"259 428 OFFCURVE",
"274 431 OFFCURVE",
"289 431 CURVE SMOOTH",
"345 431 OFFCURVE",
"396 401 OFFCURVE",
"426 333 CURVE",
"128 252 LINE",
"126 331 OFFCURVE",
"170 404 OFFCURVE",
"243 424 CURVE SMOOTH"
);
}
);
};
guideLines = (
{
angle = 90;
position = "{301, -19}";
showMeasurement = 1;
},
{
position = "{800, 189}";
}
);
layerId = "9CB12610-55A2-455C-B486-F31D9B41679C";
paths = (
{
closed = 1;
nodes = (
"430 120 OFFCURVE",
"372 69 OFFCURVE",
"301 69 CURVE SMOOTH",
"232 69 OFFCURVE",
"167 117 OFFCURVE",
"141 189 CURVE",
"526 294 LINE",
"491 424 OFFCURVE",
"393 508 OFFCURVE",
"282 508 CURVE SMOOTH",
"153 508 OFFCURVE",
"50 399 OFFCURVE",
"50 260 CURVE SMOOTH",
"50 116 OFFCURVE",
"156 -8 OFFCURVE",
"301 -8 CURVE SMOOTH",
"417 -8 OFFCURVE",
"504 65 OFFCURVE",
"536 191 CURVE",
"455 191 LINE"
);
},
{
closed = 1;
nodes = (
"125 356 OFFCURVE",
"198 431 OFFCURVE",
"282 431 CURVE SMOOTH",
"349 431 OFFCURVE",
"395 405 OFFCURVE",
"425 337 CURVE",
"128 256 LINE"
);
}
);
width = 581;
}
);
leftKerningGroup = rond;
rightKerningGroup = open;
unicode = 0065;
},
{
glyphname = f;
lastChange = "2018-04-27 13:33:22 +0000";
layers = (
{
associatedMasterId = "9CB12610-55A2-455C-B486-F31D9B41679C";
guideLines = (
{
angle = 222.3922;
position = "{279, 650}";
}
);
layerId = "8F560A31-C3FB-4139-84B7-422237D2D5E0";
name = original;
paths = (
{
closed = 1;
nodes = (
"257 53 LINE",
"124 552 LINE SMOOTH",
"105 624 OFFCURVE",
"129 676 OFFCURVE",
"192 676 CURVE SMOOTH",
"211 676 OFFCURVE",
"244 664 OFFCURVE",
"261 636 CURVE",
"317 680 LINE",
"284 740 OFFCURVE",
"229 751 OFFCURVE",
"191 751 CURVE SMOOTH",
"103 751 OFFCURVE",
"14 661 OFFCURVE",
"39 566 CURVE SMOOTH",
"191 0 LINE"
);
},
{
closed = 1;
nodes = (
"268 426 LINE",
"259 500 LINE",
"20 362 LINE",
"28 287 LINE"
);
}
);
width = 367;
},
{
associatedMasterId = "9CB12610-55A2-455C-B486-F31D9B41679C";
guideLines = (
{
angle = 90;
position = "{187, 771}";
},
{
angle = 105;
position = "{51, 522}";
},
{
angle = 104.9314;
position = "{132, 522}";
}
);
layerId = "885A63DA-D4CB-48F4-BDDC-4F1EFE2D690D";
name = "corr fut";
paths = (
{
closed = 1;
nodes = (
"257 53 LINE",
"123 556 LINE",
"99 647 OFFCURVE",
"142 681 OFFCURVE",
"187 681 CURVE SMOOTH",
"215 681 OFFCURVE",
"244 664 OFFCURVE",
"261 636 CURVE",
"317 680 LINE",
"284 740 OFFCURVE",
"229 758 OFFCURVE",
"187 758 CURVE SMOOTH",
"69 758 OFFCURVE",
"15 655 OFFCURVE",
"39 566 CURVE",
"191 0 LINE"
);
},
{
closed = 1;
nodes = (
"268 426 LINE",
"259 500 LINE",
"20 362 LINE",
"28 287 LINE"
);
}
);
width = 367;
},
{
associatedMasterId = "9CB12610-55A2-455C-B486-F31D9B41679C";
guideLines = (
{
angle = 90;
position = "{187, 771}";
},
{
angle = 105;
position = "{51, 522}";
},
{
angle = 104.9314;
position = "{132, 522}";
}
);
layerId = "14D810BF-08D9-4B14-816C-2B1B8F458ECA";
name = "Mar 2 18, 12:59";
paths = (
{
closed = 1;
nodes = (
"257 53 LINE",
"123 556 LINE",
"99 647 OFFCURVE",
"142 682 OFFCURVE",
"187 682 CURVE SMOOTH",
"215 682 OFFCURVE",
"244 664 OFFCURVE",
"261 636 CURVE",
"317 680 LINE",
"284 740 OFFCURVE",
"229 758 OFFCURVE",
"187 758 CURVE SMOOTH",
"69 758 OFFCURVE",
"15 655 OFFCURVE",
"39 566 CURVE",
"191 0 LINE"
);
},
{
closed = 1;
nodes = (
"268 426 LINE",
"259 500 LINE",
"20 362 LINE",
"28 287 LINE"
);
}
);
width = 367;
},
{
associatedMasterId = "9CB12610-55A2-455C-B486-F31D9B41679C";
guideLines = (
{
angle = 90;
position = "{187, 771}";
},
{
angle = 105;
position = "{51, 522}";
},
{
angle = 104.9314;
position = "{132, 522}";
}
);
layerId = "B289C10E-8ECE-482B-A7A7-0355EA4AD2B4";
name = "Mar 2 18, 13:12";
paths = (
{
closed = 1;
nodes = (
"257 53 LINE",
"123 556 LINE",
"99 647 OFFCURVE",
"142 682 OFFCURVE",
"187 682 CURVE SMOOTH",
"215 682 OFFCURVE",
"244 664 OFFCURVE",
"261 636 CURVE",
"317 680 LINE",
"284 740 OFFCURVE",
"229 758 OFFCURVE",
"187 758 CURVE SMOOTH",
"69 758 OFFCURVE",
"17 648 OFFCURVE",
"41 559 CURVE",
"191 0 LINE"
);
},
{
closed = 1;
nodes = (
"268 426 LINE",
"259 500 LINE",
"20 362 LINE",
"28 287 LINE"
);
}
);
width = 367;
},
{
associatedMasterId = "9CB12610-55A2-455C-B486-F31D9B41679C";
guideLines = (
{
angle = 90;
position = "{191, 782}";
},
{
angle = 105;
position = "{51, 522}";
},
{
angle = 105;
position = "{130, 531}";
}
);
layerId = "B73A1BBD-983B-44C8-905E-C9A88BBF21EE";
name = "Mar 15 18, 20:51";
paths = (
{
closed = 1;
nodes = (
"257 53 LINE",
"129 535 LINE",
"97 654 OFFCURVE",
"146 682 OFFCURVE",
"187 682 CURVE SMOOTH",
"215 682 OFFCURVE",
"244 664 OFFCURVE",
"261 636 CURVE",
"317 680 LINE",
"284 740 OFFCURVE",
"229 758 OFFCURVE",
"187 758 CURVE SMOOTH",
"73 758 OFFCURVE",
"14 664 OFFCURVE",
"46 549 CURVE",
"191 0 LINE"
);
},
{
closed = 1;
nodes = (
"268 426 LINE",
"259 500 LINE",
"20 362 LINE",
"28 287 LINE"
);
}
);
visible = 1;
width = 367;
},
{
guideLines = (
{
angle = 90;
position = "{191, 782}";
},
{
angle = 105;
position = "{51, 522}";
},
{
angle = 105;
position = "{130, 531}";
}
);
layerId = "9CB12610-55A2-455C-B486-F31D9B41679C";
paths = (
{
closed = 1;
nodes = (
"257 53 LINE",
"129 535 LINE",
"106 621 OFFCURVE",
"120 658 OFFCURVE",
"156 676 CURVE SMOOTH",
"190 693 OFFCURVE",
"236 677 OFFCURVE",
"261 636 CURVE",
"317 680 LINE",
"284 740 OFFCURVE",
"229 758 OFFCURVE",
"187 758 CURVE SMOOTH",
"73 758 OFFCURVE",
"14 664 OFFCURVE",
"46 549 CURVE",
"191 0 LINE"
);
},
{
closed = 1;
nodes = (
"268 426 LINE",
"259 500 LINE",
"20 362 LINE",
"28 287 LINE"
);
}
);
width = 367;
}
);
leftKerningGroup = f;
unicode = 0066;
},
{
glyphname = g;
lastChange = "2018-03-16 12:15:46 +0000";
layers = (
{
associatedMasterId = "9CB12610-55A2-455C-B486-F31D9B41679C";
background = {
paths = (
{
closed = 0;
nodes = (
"460 17 LINE SMOOTH",
"484 -75 OFFCURVE",
"453 -168 OFFCURVE",
"362 -181 CURVE SMOOTH",
"274 -194 OFFCURVE",
"231 -146 OFFCURVE",
"212 -65 CURVE",
"139 -65 LINE",
"168 -244 OFFCURVE",
"299 -266 OFFCURVE",
"378 -258 CURVE SMOOTH",
"521 -244 OFFCURVE",
"571 -100 OFFCURVE",
"534 39 CURVE SMOOTH"
);
}
);
};
guideLines = (
{
angle = -75.8053;
position = "{468, 195}";
},
{
position = "{20, -45}";
},
{
angle = 90;
position = "{274, 451}";
}
);
layerId = "DCC522BF-CB29-46FC-9793-8A8B609D47F3";
name = original;
paths = (
{
closed = 1;
nodes = (
"451 365 LINE",
"418 487 OFFCURVE",
"335 508 OFFCURVE",
"278 508 CURVE SMOOTH",
"143 508 OFFCURVE",
"50 416 OFFCURVE",
"50 285 CURVE SMOOTH",
"50 135 OFFCURVE",
"152 35 OFFCURVE",
"276 35 CURVE SMOOTH",
"345 35 OFFCURVE",
"413 76 OFFCURVE",
"453 143 CURVE",
"428 243 LINE",
"414 181 OFFCURVE",
"362 110 OFFCURVE",
"284 110 CURVE SMOOTH",
"206 110 OFFCURVE",
"128 171 OFFCURVE",
"128 276 CURVE SMOOTH",
"128 364 OFFCURVE",
"186 429 OFFCURVE",
"274 429 CURVE SMOOTH",
"313 429 OFFCURVE",
"365 411 OFFCURVE",
"383 320 CURVE"
);
},
{
closed = 1;
nodes = (
"383 320 LINE",
"402 247 OFFCURVE",
"401 253 OFFCURVE",
"415 202 CURVE",
"460 17 LINE",
"534 39 LINE",
"489 226 LINE",
"473 285 OFFCURVE",
"474 281 OFFCURVE",
"451 365 CURVE"
);
},
{
closed = 1;
nodes = (
"460 17 LINE",
"466 -5 OFFCURVE",
"469 -28 OFFCURVE",
"469 -49 CURVE SMOOTH",
"469 -130 OFFCURVE",
"423 -190 OFFCURVE",
"349 -190 CURVE SMOOTH",
"279 -190 OFFCURVE",
"235 -143 OFFCURVE",
"221 -97 CURVE",
"148 -97 LINE",
"167 -204 OFFCURVE",
"261 -261 OFFCURVE",
"356 -261 CURVE SMOOTH",
"460 -261 OFFCURVE",
"546 -175 OFFCURVE",
"546 -44 CURVE SMOOTH",
"546 -18 OFFCURVE",
"542 10 OFFCURVE",
"534 39 CURVE"
);
}
);
width = 576;
},
{
associatedMasterId = "9CB12610-55A2-455C-B486-F31D9B41679C";
background = {
paths = (
{
closed = 0;
nodes = (
"460 17 LINE SMOOTH",
"484 -75 OFFCURVE",
"453 -168 OFFCURVE",
"362 -181 CURVE SMOOTH",
"274 -194 OFFCURVE",
"231 -146 OFFCURVE",
"212 -65 CURVE",
"139 -65 LINE",
"168 -244 OFFCURVE",
"299 -266 OFFCURVE",
"378 -258 CURVE SMOOTH",
"521 -244 OFFCURVE",
"571 -100 OFFCURVE",
"534 39 CURVE SMOOTH"
);
}
);
};
guideLines = (
{
angle = -75.8053;
position = "{468, 195}";
},
{
position = "{20, -45}";
},
{
position = "{13, 276}";
}
);
layerId = "359AAA93-65B9-4DB5-8B68-6750B137598E";
name = "Feb 9 18, 13:21";
paths = (
{
closed = 1;
nodes = (
"451 365 LINE",
"418 487 OFFCURVE",
"335 508 OFFCURVE",
"278 508 CURVE SMOOTH",
"143 508 OFFCURVE",
"50 416 OFFCURVE",
"50 285 CURVE SMOOTH",
"50 135 OFFCURVE",
"152 35 OFFCURVE",
"276 35 CURVE SMOOTH",
"345 35 OFFCURVE",
"413 76 OFFCURVE",
"453 143 CURVE",
"428 243 LINE",
"414 181 OFFCURVE",
"362 110 OFFCURVE",
"284 110 CURVE SMOOTH",
"206 110 OFFCURVE",
"128 171 OFFCURVE",
"128 276 CURVE SMOOTH",
"128 364 OFFCURVE",
"186 429 OFFCURVE",
"274 429 CURVE SMOOTH",
"313 429 OFFCURVE",
"365 411 OFFCURVE",
"383 320 CURVE"
);
},
{
closed = 1;
nodes = (
"383 320 LINE",
"402 247 OFFCURVE",
"401 253 OFFCURVE",
"415 202 CURVE",
"460 17 LINE",
"534 39 LINE",
"489 226 LINE",
"473 285 OFFCURVE",
"474 281 OFFCURVE",
"451 365 CURVE"
);
},
{
closed = 1;
nodes = (
"460 17 LINE",
"466 -5 OFFCURVE",
"469 -28 OFFCURVE",
"469 -49 CURVE SMOOTH",
"469 -130 OFFCURVE",
"423 -188 OFFCURVE",
"349 -188 CURVE SMOOTH",
"279 -188 OFFCURVE",
"235 -143 OFFCURVE",
"221 -97 CURVE",
"148 -97 LINE",
"167 -204 OFFCURVE",
"261 -258 OFFCURVE",
"356 -258 CURVE SMOOTH",
"460 -258 OFFCURVE",
"546 -175 OFFCURVE",
"546 -44 CURVE SMOOTH",
"546 -18 OFFCURVE",
"542 10 OFFCURVE",
"534 39 CURVE"
);
}
);
width = 576;
},
{
associatedMasterId = "9CB12610-55A2-455C-B486-F31D9B41679C";
background = {
paths = (
{
closed = 0;
nodes = (
"460 17 LINE SMOOTH",
"484 -75 OFFCURVE",
"453 -168 OFFCURVE",
"362 -181 CURVE SMOOTH",
"274 -194 OFFCURVE",
"231 -146 OFFCURVE",
"212 -65 CURVE",
"139 -65 LINE",
"168 -244 OFFCURVE",
"299 -266 OFFCURVE",
"378 -258 CURVE SMOOTH",
"521 -244 OFFCURVE",
"571 -100 OFFCURVE",
"534 39 CURVE SMOOTH"
);
}
);
};
guideLines = (
{
angle = -75.8053;
position = "{468, 195}";
},
{
position = "{20, -45}";
},
{
position = "{13, 276}";
},
{
angle = 90;
position = "{274, 522}";
},
{
angle = 90;
position = "{349, -200}";
}
);
layerId = "8511A7D9-6818-431D-BECA-334DF9C694C0";
name = "corr fut";
paths = (
{
closed = 1;
nodes = (
"451 365 LINE",
"418 487 OFFCURVE",
"336 508 OFFCURVE",
"274 508 CURVE SMOOTH",
"145 508 OFFCURVE",
"50 420 OFFCURVE",
"50 276 CURVE SMOOTH",
"50 141 OFFCURVE",
"153 35 OFFCURVE",
"274 35 CURVE SMOOTH",
"345 35 OFFCURVE",
"413 76 OFFCURVE",
"453 143 CURVE",
"428 243 LINE",
"414 181 OFFCURVE",
"368 112 OFFCURVE",
"274 112 CURVE SMOOTH",
"206 112 OFFCURVE",
"128 175 OFFCURVE",
"128 276 CURVE SMOOTH",
"128 364 OFFCURVE",
"186 431 OFFCURVE",
"274 431 CURVE SMOOTH",
"313 431 OFFCURVE",
"365 411 OFFCURVE",
"383 320 CURVE"
);
},
{
closed = 1;
nodes = (
"383 320 LINE",
"402 247 OFFCURVE",
"401 253 OFFCURVE",
"415 202 CURVE",
"460 17 LINE",
"534 39 LINE",
"489 226 LINE",
"473 285 OFFCURVE",
"474 281 OFFCURVE",
"451 365 CURVE"
);
},
{
closed = 1;
nodes = (
"460 17 LINE",
"466 -5 OFFCURVE",
"469 -28 OFFCURVE",
"469 -49 CURVE SMOOTH",
"469 -130 OFFCURVE",
"423 -181 OFFCURVE",
"349 -181 CURVE SMOOTH",
"279 -181 OFFCURVE",
"235 -143 OFFCURVE",
"221 -97 CURVE",
"141 -97 LINE",
"160 -204 OFFCURVE",
"265 -259 OFFCURVE",
"349 -258 CURVE SMOOTH",
"463 -257 OFFCURVE",
"546 -175 OFFCURVE",
"546 -44 CURVE SMOOTH",
"546 -18 OFFCURVE",
"542 10 OFFCURVE",
"534 39 CURVE"
);
}
);
width = 576;
},
{
associatedMasterId = "9CB12610-55A2-455C-B486-F31D9B41679C";
background = {
paths = (
{
closed = 0;
nodes = (
"460 17 LINE SMOOTH",
"484 -75 OFFCURVE",
"453 -168 OFFCURVE",
"362 -181 CURVE SMOOTH",
"274 -194 OFFCURVE",
"231 -146 OFFCURVE",
"212 -65 CURVE",
"139 -65 LINE",
"168 -244 OFFCURVE",
"299 -266 OFFCURVE",
"378 -258 CURVE SMOOTH",
"521 -244 OFFCURVE",
"571 -100 OFFCURVE",
"534 39 CURVE SMOOTH"
);
}
);
};
guideLines = (
{
angle = -75.8053;
position = "{468, 195}";
},
{
position = "{20, -45}";
},
{
position = "{13, 276}";
},
{
angle = 90;
position = "{274, 522}";
},
{
angle = 90;
position = "{349, -200}";
}
);
layerId = "A706BE0C-72CB-40C7-BA37-CC37E8FB974D";
name = "Mar 2 18, 13:12";
paths = (
{
closed = 1;
nodes = (
"451 365 LINE",
"418 487 OFFCURVE",
"336 508 OFFCURVE",
"274 508 CURVE SMOOTH",
"145 508 OFFCURVE",
"50 420 OFFCURVE",
"50 276 CURVE SMOOTH",
"50 141 OFFCURVE",
"153 35 OFFCURVE",
"274 35 CURVE SMOOTH",
"345 35 OFFCURVE",
"413 76 OFFCURVE",
"453 143 CURVE",
"428 243 LINE",
"414 181 OFFCURVE",
"368 110 OFFCURVE",
"274 110 CURVE SMOOTH",
"206 110 OFFCURVE",
"128 175 OFFCURVE",
"128 276 CURVE SMOOTH",
"128 364 OFFCURVE",
"186 429 OFFCURVE",
"274 429 CURVE SMOOTH",
"313 429 OFFCURVE",
"365 411 OFFCURVE",
"383 320 CURVE"
);
},
{
closed = 1;
nodes = (
"383 320 LINE",
"402 247 OFFCURVE",
"401 253 OFFCURVE",
"415 202 CURVE",
"460 17 LINE",
"534 39 LINE",
"489 226 LINE",
"473 285 OFFCURVE",
"474 281 OFFCURVE",
"451 365 CURVE"
);
},
{
closed = 1;
nodes = (
"460 17 LINE",
"466 -5 OFFCURVE",
"469 -28 OFFCURVE",
"469 -49 CURVE SMOOTH",
"469 -130 OFFCURVE",
"423 -188 OFFCURVE",
"349 -188 CURVE SMOOTH",
"279 -188 OFFCURVE",
"235 -143 OFFCURVE",
"221 -97 CURVE",
"148 -97 LINE",
"167 -204 OFFCURVE",
"265 -259 OFFCURVE",
"349 -258 CURVE SMOOTH",
"463 -257 OFFCURVE",
"546 -175 OFFCURVE",
"546 -44 CURVE SMOOTH",
"546 -18 OFFCURVE",
"542 10 OFFCURVE",
"534 39 CURVE"
);
}
);
width = 576;
},
{
associatedMasterId = "9CB12610-55A2-455C-B486-F31D9B41679C";
background = {
paths = (
{
closed = 0;
nodes = (
"460 17 LINE SMOOTH",
"484 -75 OFFCURVE",
"453 -168 OFFCURVE",
"362 -181 CURVE SMOOTH",
"274 -194 OFFCURVE",
"231 -146 OFFCURVE",
"212 -65 CURVE",
"139 -65 LINE",
"168 -244 OFFCURVE",
"299 -266 OFFCURVE",
"378 -258 CURVE SMOOTH",
"521 -244 OFFCURVE",
"571 -100 OFFCURVE",
"534 39 CURVE SMOOTH"
);
}
);
};
guideLines = (
{
angle = -75.8053;
position = "{468, 195}";
},
{
position = "{20, -45}";
},
{
position = "{13, 276}";
},
{
angle = 90;
position = "{274, 522}";
},
{
angle = 90;
position = "{349, -200}";
}
);
layerId = "CD48798B-DE18-469F-B4F0-36505EA48A35";
name = "Mar 2 18, 15:21";
paths = (
{
closed = 1;
nodes = (
"451 365 LINE",
"418 487 OFFCURVE",
"336 508 OFFCURVE",
"274 508 CURVE SMOOTH",
"145 508 OFFCURVE",
"50 420 OFFCURVE",
"50 276 CURVE SMOOTH",
"50 141 OFFCURVE",
"153 35 OFFCURVE",
"274 35 CURVE SMOOTH",
"345 35 OFFCURVE",
"413 76 OFFCURVE",
"453 143 CURVE",
"428 243 LINE",
"414 181 OFFCURVE",
"368 111 OFFCURVE",
"274 111 CURVE SMOOTH",
"206 111 OFFCURVE",
"128 175 OFFCURVE",
"128 276 CURVE SMOOTH",
"128 364 OFFCURVE",
"186 431 OFFCURVE",
"274 431 CURVE SMOOTH",
"313 431 OFFCURVE",
"365 411 OFFCURVE",
"383 320 CURVE"
);
},
{
closed = 1;
nodes = (
"383 320 LINE",
"402 247 OFFCURVE",
"401 253 OFFCURVE",
"415 202 CURVE",
"460 17 LINE",
"534 39 LINE",
"489 226 LINE",
"473 285 OFFCURVE",
"474 281 OFFCURVE",
"451 365 CURVE"
);
},
{
closed = 1;
nodes = (
"460 17 LINE",
"466 -5 OFFCURVE",
"469 -28 OFFCURVE",
"469 -49 CURVE SMOOTH",
"469 -130 OFFCURVE",
"423 -188 OFFCURVE",
"349 -188 CURVE SMOOTH",
"279 -188 OFFCURVE",
"235 -143 OFFCURVE",
"221 -97 CURVE",
"148 -97 LINE",
"167 -204 OFFCURVE",
"265 -259 OFFCURVE",
"349 -258 CURVE SMOOTH",
"463 -257 OFFCURVE",
"546 -175 OFFCURVE",
"546 -44 CURVE SMOOTH",
"546 -18 OFFCURVE",
"542 10 OFFCURVE",
"534 39 CURVE"
);
}
);
width = 576;
},
{
associatedMasterId = "9CB12610-55A2-455C-B486-F31D9B41679C";
background = {
paths = (
{
closed = 0;
nodes = (
"460 17 LINE SMOOTH",
"484 -75 OFFCURVE",
"453 -168 OFFCURVE",
"362 -181 CURVE SMOOTH",
"274 -194 OFFCURVE",
"231 -146 OFFCURVE",
"212 -65 CURVE",
"139 -65 LINE",
"168 -244 OFFCURVE",
"299 -266 OFFCURVE",
"378 -258 CURVE SMOOTH",
"521 -244 OFFCURVE",
"571 -100 OFFCURVE",
"534 39 CURVE SMOOTH"
);
}
);
};
guideLines = (
{
angle = -75.8053;
position = "{468, 195}";
},
{
position = "{20, -45}";
},
{
position = "{13, 276}";
},
{
angle = 90;
position = "{274, 522}";
},
{
angle = 90;
position = "{349, -200}";
}
);
layerId = "F8920E40-9BD9-4728-AC09-99E18D4C6743";
name = "Mar 16 18, 10:37";
paths = (
{
closed = 1;
nodes = (
"460 17 LINE",
"466 -5 OFFCURVE",
"469 -28 OFFCURVE",
"469 -49 CURVE SMOOTH",
"469 -130 OFFCURVE",
"423 -188 OFFCURVE",
"349 -188 CURVE SMOOTH",
"279 -188 OFFCURVE",
"235 -143 OFFCURVE",
"221 -97 CURVE",
"148 -97 LINE",
"167 -204 OFFCURVE",
"265 -259 OFFCURVE",
"349 -258 CURVE SMOOTH",
"463 -257 OFFCURVE",
"546 -175 OFFCURVE",
"546 -44 CURVE SMOOTH",
"546 -18 OFFCURVE",
"542 10 OFFCURVE",
"534 39 CURVE"
);
},
{
closed = 1;
nodes = (
"355 409 LINE",
"460 17 LINE",
"534 39 LINE",
"447 366 LINE"
);
},
{
closed = 1;
nodes = (
"447 366 LINE",
"414 488 OFFCURVE",
"331 508 OFFCURVE",
"274 508 CURVE SMOOTH",
"133 508 OFFCURVE",
"45 398 OFFCURVE",
"45 259 CURVE SMOOTH",
"45 119 OFFCURVE",
"133 -8 OFFCURVE",
"298 -8 CURVE SMOOTH",
"373 -8 OFFCURVE",
"426 21 OFFCURVE",
"464 85 CURVE",
"442 182 LINE",
"422 132 OFFCURVE",
"386 63 OFFCURVE",
"298 63 CURVE SMOOTH",
"191 63 OFFCURVE",
"124 152 OFFCURVE",
"124 259 CURVE SMOOTH",
"124 354 OFFCURVE",
"171 430 OFFCURVE",
"274 430 CURVE SMOOTH",
"308 430 OFFCURVE",
"361 412 OFFCURVE",
"379 321 CURVE"
);
}
);
width = 576;
},
{
background = {
paths = (
{
closed = 0;
nodes = (
"490 17 LINE SMOOTH",
"514 -75 OFFCURVE",
"483 -168 OFFCURVE",
"392 -181 CURVE SMOOTH",
"304 -194 OFFCURVE",
"261 -146 OFFCURVE",
"242 -65 CURVE",
"169 -65 LINE",
"198 -244 OFFCURVE",
"329 -266 OFFCURVE",
"408 -258 CURVE SMOOTH",
"551 -244 OFFCURVE",
"601 -100 OFFCURVE",
"564 39 CURVE SMOOTH"
);
}
);
};
guideLines = (
{
angle = -75.8053;
position = "{498, 195}";
},
{
position = "{50, -45}";
},
{
position = "{43, 276}";
},
{
angle = 90;
position = "{304, 522}";
},
{
angle = 90;
position = "{360, -204}";
}
);
layerId = "9CB12610-55A2-455C-B486-F31D9B41679C";
paths = (
{
closed = 1;
nodes = (
"490 17 LINE",
"496 -5 OFFCURVE",
"499 -28 OFFCURVE",
"499 -49 CURVE SMOOTH",
"499 -130 OFFCURVE",
"434 -188 OFFCURVE",
"360 -188 CURVE SMOOTH",
"290 -188 OFFCURVE",
"223 -155 OFFCURVE",
"209 -99 CURVE",
"136 -99 LINE",
"155 -214 OFFCURVE",
"276 -259 OFFCURVE",
"360 -258 CURVE SMOOTH",
"474 -257 OFFCURVE",
"576 -175 OFFCURVE",
"576 -44 CURVE SMOOTH",
"576 -18 OFFCURVE",
"572 10 OFFCURVE",
"564 39 CURVE"
);
},
{
closed = 1;
nodes = (
"384 412 LINE",
"490 17 LINE",
"564 39 LINE",
"476 369 LINE"
);
},
{
closed = 1;
nodes = (
"476 369 LINE",
"446 481 OFFCURVE",
"349 508 OFFCURVE",
"289 508 CURVE SMOOTH",
"145 508 OFFCURVE",
"45 392 OFFCURVE",
"45 248 CURVE SMOOTH",
"45 104 OFFCURVE",
"159 -8 OFFCURVE",
"303 -8 CURVE SMOOTH",
"379 -8 OFFCURVE",
"460 25 OFFCURVE",
"491 91 CURVE",
"470 184 LINE",
"453 115 OFFCURVE",
"380 70 OFFCURVE",
"304 70 CURVE SMOOTH",
"202 70 OFFCURVE",
"127 146 OFFCURVE",
"127 248 CURVE SMOOTH",
"127 350 OFFCURVE",
"188 430 OFFCURVE",
"290 430 CURVE SMOOTH",
"324 430 OFFCURVE",
"384 412 OFFCURVE",
"408 324 CURVE"
);
}
);
width = 606;
}
);
leftKerningGroup = rond;
rightKerningGroup = des;
unicode = 0067;
},
{
glyphname = h;
lastChange = "2018-03-02 08:41:04 +0000";
layers = (
{
associatedMasterId = "9CB12610-55A2-455C-B486-F31D9B41679C";
layerId = "24521B6C-B8EC-47D7-92E1-859B20F2B4FB";
name = original;
paths = (
{
closed = 1;
nodes = (
"-20 697 LINE",
"171 0 LINE",
"238 54 LINE",
"161 344 LINE",
"46 750 LINE"
);
},
{
closed = 1;
nodes = (
"561 55 LINE",
"481 357 LINE",
"457 453 OFFCURVE",
"395 517 OFFCURVE",
"275 508 CURVE SMOOTH",
"196 502 OFFCURVE",
"135 442 OFFCURVE",
"122 373 CURVE",
"145 301 LINE",
"160 371 OFFCURVE",
"217 430 OFFCURVE",
"283 433 CURVE SMOOTH",
"369 437 OFFCURVE",
"397 364 OFFCURVE",
"410 315 CURVE",
"494 0 LINE"
);
}
);
visible = 1;
width = 591;
},
{
layerId = "9CB12610-55A2-455C-B486-F31D9B41679C";
paths = (
{
closed = 1;
nodes = (
"-20 697 LINE",
"171 0 LINE",
"238 54 LINE",
"161 344 LINE",
"46 750 LINE"
);
},
{
closed = 1;
nodes = (
"561 55 LINE",
"481 356 LINE",
"459 446 OFFCURVE",
"403 508 OFFCURVE",
"297 508 CURVE SMOOTH",
"209 508 OFFCURVE",
"137 453 OFFCURVE",
"122 372 CURVE",
"145 300 LINE",
"160 372 OFFCURVE",
"221 432 OFFCURVE",
"290 432 CURVE SMOOTH",
"370 432 OFFCURVE",
"397 362 OFFCURVE",
"410 314 CURVE",
"494 0 LINE"
);
}
);
width = 591;
}
);
leftKerningGroup = asc;
rightKerningGroup = norm;
unicode = 0068;
},
{
glyphname = i;
lastChange = "2018-04-27 12:48:13 +0000";
layers = (
{
anchors = (
{
name = top;
position = "{57, 534}";
}
);
guideLines = (
{
angle = 105;
position = "{105, 500}";
},
{
angle = -75;
position = "{39, 447}";
}
);
layerId = "9CB12610-55A2-455C-B486-F31D9B41679C";
paths = (
{
closed = 1;
nodes = (
"39 447 LINE",
"159 0 LINE",
"225 53 LINE",
"105 500 LINE"
);
},
{
closed = 1;
nodes = (
"62 555 OFFCURVE",
"87 579 OFFCURVE",
"87 608 CURVE SMOOTH",
"87 637 OFFCURVE",
"63 661 OFFCURVE",
"34 661 CURVE SMOOTH",
"5 661 OFFCURVE",
"-20 637 OFFCURVE",
"-20 608 CURVE SMOOTH",
"-20 579 OFFCURVE",
"5 555 OFFCURVE",
"34 555 CURVE SMOOTH"
);
}
);
width = 255;
}
);
leftKerningGroup = norm;
rightKerningGroup = norm;
unicode = 0069;
},
{
glyphname = idotless;
lastChange = "2018-06-15 12:13:24 +0000";
layers = (
{
anchors = (
{
name = top;
position = "{-9, 508}";
}
);
guideLines = (
{
angle = -75;
position = "{61, 301}";
}
);
layerId = "9CB12610-55A2-455C-B486-F31D9B41679C";
paths = (
{
closed = 1;
nodes = (
"-20 447 LINE",
"100 0 LINE",
"166 53 LINE",
"46 500 LINE"
);
}
);
width = 196;
},
{
anchors = (
{
name = "new anchor";
position = "{82, 588}";
}
);
associatedMasterId = "9CB12610-55A2-455C-B486-F31D9B41679C";
guideLines = (
{
angle = -75;
position = "{61, 301}";
}
);
layerId = "733150CA-7D2B-4D14-8CBA-A2FFF017076B";
name = "Apr 27 18, 11:05";
paths = (
{
closed = 1;
nodes = (
"-20 447 LINE",
"100 0 LINE",
"166 53 LINE",
"46 500 LINE"
);
},
{
closed = 1;
nodes = (
"3 555 OFFCURVE",
"28 579 OFFCURVE",
"28 608 CURVE SMOOTH",
"28 637 OFFCURVE",
"4 661 OFFCURVE",
"-25 661 CURVE SMOOTH",
"-54 661 OFFCURVE",
"-79 637 OFFCURVE",
"-79 608 CURVE SMOOTH",
"-79 579 OFFCURVE",
"-54 555 OFFCURVE",
"-25 555 CURVE SMOOTH"
);
}
);
visible = 1;
width = 196;
}
);
unicode = 0131;
},
{
glyphname = j;
lastChange = "2018-01-17 12:24:27 +0000";
layers = (
{
layerId = "9CB12610-55A2-455C-B486-F31D9B41679C";
paths = (
{
closed = 1;
nodes = (
"39 447 LINE",
"225 -250 LINE",
"291 -197 LINE",
"105 500 LINE"
);
},
{
closed = 1;
nodes = (
"62 555 OFFCURVE",
"87 579 OFFCURVE",
"87 608 CURVE SMOOTH",
"87 637 OFFCURVE",
"63 661 OFFCURVE",
"34 661 CURVE SMOOTH",
"5 661 OFFCURVE",
"-20 637 OFFCURVE",
"-20 608 CURVE SMOOTH",
"-20 579 OFFCURVE",
"5 555 OFFCURVE",
"34 555 CURVE SMOOTH"
);
}
);
width = 271;
}
);
leftKerningGroup = des;
rightKerningGroup = des;
unicode = 006A;
},
{
glyphname = k;
lastChange = "2018-03-02 12:22:46 +0000";
layers = (
{
guideLines = (
{
angle = 38.7655;
position = "{432, -8}";
},
{
position = "{-255, 443}";
showMeasurement = 1;
},
{
angle = 209.9192;
position = "{335, 684}";
}
);
layerId = "9CB12610-55A2-455C-B486-F31D9B41679C";
paths = (
{
closed = 1;
nodes = (
"-20 697 LINE",
"167 0 LINE",
"233 53 LINE",
"46 750 LINE"
);
},
{
closed = 1;
nodes = (
"311 495 LINE",
"158 284 LINE",
"251 301 LINE",
"396 495 LINE"
);
},
{
closed = 1;
nodes = (
"251 301 LINE",
"162 285 LINE",
"455 0 LINE",
"509 50 LINE"
);
}
);
width = 509;
}
);
leftKerningGroup = asc;
rightKerningGroup = x;
unicode = 006B;
},
{
glyphname = l;
lastChange = "2018-04-27 13:49:08 +0000";
layers = (
{
layerId = "9CB12610-55A2-455C-B486-F31D9B41679C";
paths = (
{
closed = 1;
nodes = (
"-20 697 LINE",
"167 0 LINE",
"233 53 LINE",
"46 750 LINE"
);
}
);
width = 263;
}
);
leftKerningGroup = asc;
rightKerningGroup = asc;
unicode = 006C;
},
{
glyphname = m;
lastChange = "2018-02-09 12:38:51 +0000";
layers = (
{
associatedMasterId = "9CB12610-55A2-455C-B486-F31D9B41679C";
guideLines = (
{
position = "{-572, 251}";
showMeasurement = 1;
}
);
layerId = "E2AF30B0-5F2D-4823-B6CB-A43593945635";
name = original;
paths = (
{
closed = 1;
nodes = (
"30 447 LINE",
"150 0 LINE",
"217 54 LINE",
"140 344 LINE",
"96 500 LINE"
);
},
{
closed = 1;
nodes = (
"540 55 LINE",
"460 357 LINE",
"436 453 OFFCURVE",
"374 517 OFFCURVE",
"254 508 CURVE SMOOTH",
"175 502 OFFCURVE",
"114 442 OFFCURVE",
"101 373 CURVE",
"124 301 LINE",
"139 371 OFFCURVE",
"196 430 OFFCURVE",
"262 433 CURVE SMOOTH",
"348 437 OFFCURVE",
"376 364 OFFCURVE",
"389 315 CURVE",
"473 0 LINE"
);
},
{
closed = 1;
nodes = (
"863 55 LINE",
"783 357 LINE",
"759 453 OFFCURVE",
"697 517 OFFCURVE",
"577 508 CURVE SMOOTH",
"498 502 OFFCURVE",
"437 442 OFFCURVE",
"424 373 CURVE",
"447 301 LINE",
"462 371 OFFCURVE",
"519 430 OFFCURVE",
"585 433 CURVE SMOOTH",
"671 437 OFFCURVE",
"699 364 OFFCURVE",
"712 315 CURVE",
"796 0 LINE"
);
}
);
visible = 1;
width = 893;
},
{
layerId = "9CB12610-55A2-455C-B486-F31D9B41679C";
paths = (
{
closed = 1;
nodes = (
"30 447 LINE",
"150 0 LINE",
"217 54 LINE",
"140 344 LINE",
"96 500 LINE"
);
},
{
closed = 1;
nodes = (
"540 55 LINE",
"460 356 LINE",
"438 446 OFFCURVE",
"382 508 OFFCURVE",
"276 508 CURVE SMOOTH",
"188 508 OFFCURVE",
"116 453 OFFCURVE",
"101 372 CURVE",
"124 300 LINE",
"139 372 OFFCURVE",
"200 432 OFFCURVE",
"269 432 CURVE SMOOTH",
"349 432 OFFCURVE",
"376 362 OFFCURVE",
"389 314 CURVE",
"473 0 LINE"
);
},
{
closed = 1;
nodes = (
"863 55 LINE",
"783 356 LINE",
"761 446 OFFCURVE",
"705 508 OFFCURVE",
"599 508 CURVE SMOOTH",
"511 508 OFFCURVE",
"439 453 OFFCURVE",
"424 372 CURVE",
"447 300 LINE",
"462 372 OFFCURVE",
"523 432 OFFCURVE",
"592 432 CURVE SMOOTH",
"672 432 OFFCURVE",
"699 362 OFFCURVE",
"712 314 CURVE",
"796 0 LINE"
);
}
);
width = 893;
}
);
leftKerningGroup = norm;
rightKerningGroup = norm;
unicode = 006D;
},
{
glyphname = n;
lastChange = "2018-02-09 14:34:58 +0000";
layers = (
{
associatedMasterId = "9CB12610-55A2-455C-B486-F31D9B41679C";
guideLines = (
{
position = "{-264, 119}";
showMeasurement = 1;
},
{
angle = -75;
position = "{415, 219}";
},
{
angle = -75;
locked = 1;
position = "{486, 253}";
}
);
layerId = "7F97AB47-643B-4F20-8067-C28A8A4367E5";
name = original;
paths = (
{
closed = 1;
nodes = (
"30 447 LINE",
"150 0 LINE",
"217 54 LINE",
"140 344 LINE",
"96 500 LINE"
);
},
{
closed = 1;
nodes = (
"540 55 LINE",
"460 357 LINE",
"436 453 OFFCURVE",
"374 517 OFFCURVE",
"254 508 CURVE SMOOTH",
"175 502 OFFCURVE",
"114 442 OFFCURVE",
"101 373 CURVE",
"124 301 LINE",
"139 371 OFFCURVE",
"196 430 OFFCURVE",
"262 433 CURVE SMOOTH",
"348 437 OFFCURVE",
"376 364 OFFCURVE",
"389 315 CURVE",
"473 0 LINE"
);
}
);
visible = 1;
width = 570;
},
{
guideLines = (
{
position = "{-264, 119}";
showMeasurement = 1;
},
{
angle = -75;
position = "{415, 219}";
},
{
angle = -75;
locked = 1;
position = "{486, 253}";
},
{
angle = 90;
position = "{276, 313}";
showMeasurement = 1;
},
{
angle = 38.7655;
position = "{340, 169}";
showMeasurement = 1;
}
);
layerId = "9CB12610-55A2-455C-B486-F31D9B41679C";
paths = (
{
closed = 1;
nodes = (
"30 447 LINE",
"150 0 LINE",
"217 54 LINE",
"140 344 LINE",
"96 500 LINE"
);
},
{
closed = 1;
nodes = (
"540 55 LINE",
"460 356 LINE",
"438 446 OFFCURVE",
"382 508 OFFCURVE",
"276 508 CURVE SMOOTH",
"188 508 OFFCURVE",
"116 453 OFFCURVE",
"101 372 CURVE",
"124 300 LINE",
"139 372 OFFCURVE",
"200 430 OFFCURVE",
"269 430 CURVE SMOOTH",
"349 430 OFFCURVE",
"376 362 OFFCURVE",
"389 314 CURVE",
"473 0 LINE"
);
}
);
width = 570;
}
);
leftKerningGroup = norm;
rightKerningGroup = norm;
unicode = 006E;
},
{
glyphname = o;
lastChange = "2018-06-15 11:56:46 +0000";
layers = (
{
associatedMasterId = "9CB12610-55A2-455C-B486-F31D9B41679C";
guideLines = (
{
position = "{50, 247}";
showMeasurement = 1;
}
);
layerId = "D99B3063-472E-44DD-83E8-2616BA26EE71";
name = original;
paths = (
{
closed = 1;
nodes = (
"454 -12 OFFCURVE",
"570 104 OFFCURVE",
"571 248 CURVE SMOOTH",
"572 392 OFFCURVE",
"454 508 OFFCURVE",
"310 508 CURVE SMOOTH",
"166 508 OFFCURVE",
"50 392 OFFCURVE",
"50 248 CURVE SMOOTH",
"50 104 OFFCURVE",
"166 -12 OFFCURVE",
"310 -12 CURVE SMOOTH"
);
},
{
closed = 1;
nodes = (
"209 63 OFFCURVE",
"133 146 OFFCURVE",
"133 248 CURVE SMOOTH",
"133 350 OFFCURVE",
"209 433 OFFCURVE",
"311 433 CURVE SMOOTH",
"413 433 OFFCURVE",
"488 350 OFFCURVE",
"488 248 CURVE SMOOTH",
"488 146 OFFCURVE",
"413 63 OFFCURVE",
"311 63 CURVE SMOOTH"
);
}
);
visible = 1;
width = 621;
},
{
associatedMasterId = "9CB12610-55A2-455C-B486-F31D9B41679C";
guideLines = (
{
angle = 90;
position = "{311, 248}";
showMeasurement = 1;
},
{
angle = 180;
position = "{94, 248}";
showMeasurement = 1;
}
);
layerId = "B2F3E12E-12A2-4113-9AA7-54A80B51670E";
name = "Mar 2 18, 13:12";
paths = (
{
closed = 1;
nodes = (
"454 -8 OFFCURVE",
"568 104 OFFCURVE",
"569 248 CURVE SMOOTH",
"570 392 OFFCURVE",
"454 508 OFFCURVE",
"310 508 CURVE SMOOTH",
"166 508 OFFCURVE",
"52 392 OFFCURVE",
"52 248 CURVE SMOOTH",
"52 104 OFFCURVE",
"166 -8 OFFCURVE",
"310 -8 CURVE SMOOTH"
);
},
{
closed = 1;
nodes = (
"209 67 OFFCURVE",
"135 146 OFFCURVE",
"135 248 CURVE SMOOTH",
"135 350 OFFCURVE",
"209 433 OFFCURVE",
"311 433 CURVE SMOOTH",
"413 433 OFFCURVE",
"486 350 OFFCURVE",
"486 248 CURVE SMOOTH",
"486 146 OFFCURVE",
"413 67 OFFCURVE",
"311 67 CURVE SMOOTH"
);
}
);
width = 621;
},
{
anchors = (
{
name = top;
position = "{280, 579}";
}
);
guideLines = (
{
angle = 270;
position = "{311, 256}";
showMeasurement = 1;
},
{
angle = 180;
position = "{94, 248}";
showMeasurement = 1;
}
);
layerId = "9CB12610-55A2-455C-B486-F31D9B41679C";
paths = (
{
closed = 1;
nodes = (
"454 -8 OFFCURVE",
"568 104 OFFCURVE",
"569 248 CURVE SMOOTH",
"570 392 OFFCURVE",
"454 508 OFFCURVE",
"310 508 CURVE SMOOTH",
"166 508 OFFCURVE",
"52 392 OFFCURVE",
"52 248 CURVE SMOOTH",
"52 104 OFFCURVE",
"166 -8 OFFCURVE",
"310 -8 CURVE SMOOTH"
);
},
{
closed = 1;
nodes = (
"209 70 OFFCURVE",
"134 146 OFFCURVE",
"134 248 CURVE SMOOTH",
"134 350 OFFCURVE",
"209 430 OFFCURVE",
"311 430 CURVE SMOOTH",
"413 430 OFFCURVE",
"487 350 OFFCURVE",
"487 248 CURVE SMOOTH",
"487 146 OFFCURVE",
"413 70 OFFCURVE",
"311 70 CURVE SMOOTH"
);
}
);
width = 621;
}
);
leftKerningGroup = rond;
rightKerningGroup = rond;
unicode = 006F;
},
{
glyphname = p;
lastChange = "2018-03-16 12:08:16 +0000";
layers = (
{
associatedMasterId = "9CB12610-55A2-455C-B486-F31D9B41679C";
layerId = "2E572F8A-391A-4B9D-83EC-76449A744854";
name = original;
paths = (
{
closed = 1;
nodes = (
"263 -197 LINE",
"76 500 LINE",
"10 447 LINE",
"197 -250 LINE"
);
},
{
closed = 1;
nodes = (
"171 24 LINE",
"181 13 OFFCURVE",
"245 -14 OFFCURVE",
"298 -8 CURVE SMOOTH",
"479 12 OFFCURVE",
"520 192 OFFCURVE",
"491 312 CURVE SMOOTH",
"467 411 OFFCURVE",
"395 512 OFFCURVE",
"248 512 CURVE SMOOTH",
"188 512 OFFCURVE",
"120 478 OFFCURVE",
"82 415 CURVE",
"103 320 LINE",
"123 370 OFFCURVE",
"150 428 OFFCURVE",
"238 436 CURVE SMOOTH",
"307 442 OFFCURVE",
"377 402 OFFCURVE",
"409 311 CURVE SMOOTH",
"442 218 OFFCURVE",
"409 98 OFFCURVE",
"319 76 CURVE SMOOTH",
"269 64 OFFCURVE",
"219 62 OFFCURVE",
"171 103 CURVE"
);
}
);
width = 549;
},
{
associatedMasterId = "9CB12610-55A2-455C-B486-F31D9B41679C";
guideLines = (
{
position = "{389, 239}";
showMeasurement = 1;
}
);
layerId = "09434014-5F45-4AF5-98D6-47E5454DBE82";
name = "Mar 2 18, 13:13";
paths = (
{
closed = 1;
nodes = (
"263 -197 LINE",
"76 500 LINE",
"10 447 LINE",
"197 -250 LINE"
);
},
{
closed = 1;
nodes = (
"171 24 LINE",
"180 14 OFFCURVE",
"233 -8 OFFCURVE",
"282 -8 CURVE SMOOTH",
"412 -8 OFFCURVE",
"499 100 OFFCURVE",
"499 239 CURVE SMOOTH",
"499 391 OFFCURVE",
"408 508 OFFCURVE",
"253 508 CURVE SMOOTH",
"193 508 OFFCURVE",
"120 478 OFFCURVE",
"82 415 CURVE",
"103 320 LINE",
"123 370 OFFCURVE",
"150 432 OFFCURVE",
"253 432 CURVE SMOOTH",
"346 432 OFFCURVE",
"422 346 OFFCURVE",
"422 239 CURVE SMOOTH",
"422 145 OFFCURVE",
"372 69 OFFCURVE",
"263 69 CURVE SMOOTH",
"232 69 OFFCURVE",
"201 77 OFFCURVE",
"171 103 CURVE"
);
}
);
width = 549;
},
{
associatedMasterId = "9CB12610-55A2-455C-B486-F31D9B41679C";
guideLines = (
{
position = "{389, 239}";
showMeasurement = 1;
}
);
layerId = "611ACD64-EA41-4A37-ABB5-00BBD3ADE27B";
name = "Mar 16 18, 10:37";
paths = (
{
closed = 1;
nodes = (
"263 -197 LINE",
"76 500 LINE",
"10 447 LINE",
"197 -250 LINE"
);
},
{
closed = 1;
nodes = (
"171 24 LINE",
"180 14 OFFCURVE",
"233 -8 OFFCURVE",
"282 -8 CURVE SMOOTH",
"412 -8 OFFCURVE",
"499 100 OFFCURVE",
"499 239 CURVE SMOOTH",
"499 391 OFFCURVE",
"408 508 OFFCURVE",
"253 508 CURVE SMOOTH",
"193 508 OFFCURVE",
"120 478 OFFCURVE",
"82 415 CURVE",
"103 320 LINE",
"123 370 OFFCURVE",
"150 431 OFFCURVE",
"253 431 CURVE SMOOTH",
"346 431 OFFCURVE",
"419 346 OFFCURVE",
"419 239 CURVE SMOOTH",
"419 145 OFFCURVE",
"372 69 OFFCURVE",
"263 69 CURVE SMOOTH",
"232 69 OFFCURVE",
"201 77 OFFCURVE",
"171 103 CURVE"
);
}
);
width = 549;
},
{
guideLines = (
{
angle = -74.9816;
position = "{75, 434}";
}
);
layerId = "9CB12610-55A2-455C-B486-F31D9B41679C";
paths = (
{
closed = 1;
nodes = (
"263 -197 LINE",
"76 500 LINE",
"10 447 LINE",
"197 -250 LINE"
);
},
{
closed = 1;
nodes = (
"116 392 OFFCURVE",
"184 430 OFFCURVE",
"261 430 CURVE SMOOTH",
"363 430 OFFCURVE",
"437 350 OFFCURVE",
"437 248 CURVE SMOOTH",
"437 146 OFFCURVE",
"363 70 OFFCURVE",
"261 70 CURVE SMOOTH",
"220 70 OFFCURVE",
"183 72 OFFCURVE",
"161 96 CURVE",
"179 11 LINE",
"201 -3 OFFCURVE",
"232 -8 OFFCURVE",
"260 -8 CURVE SMOOTH",
"404 -8 OFFCURVE",
"518 104 OFFCURVE",
"519 248 CURVE SMOOTH",
"520 392 OFFCURVE",
"404 508 OFFCURVE",
"260 508 CURVE SMOOTH",
"183 508 OFFCURVE",
"114 478 OFFCURVE",
"70 420 CURVE",
"98 325 LINE"
);
}
);
width = 569;
}
);
leftKerningGroup = des;
rightKerningGroup = rond;
unicode = 0070;
},
{
glyphname = q;
lastChange = "2018-05-25 07:19:47 +0000";
layers = (
{
associatedMasterId = "9CB12610-55A2-455C-B486-F31D9B41679C";
layerId = "ED67603E-49E8-4FEC-8CA4-9B7DE9346B67";
name = original;
paths = (
{
closed = 1;
nodes = (
"358 408 LINE",
"535 -250 LINE",
"601 -197 LINE",
"450 365 LINE"
);
},
{
closed = 1;
nodes = (
"450 365 LINE",
"412 507 OFFCURVE",
"304 513 OFFCURVE",
"251 507 CURVE SMOOTH",
"70 487 OFFCURVE",
"30 313 OFFCURVE",
"58 187 CURVE SMOOTH",
"83 74 OFFCURVE",
"176 -19 OFFCURVE",
"301 -13 CURVE SMOOTH",
"361 -10 OFFCURVE",
"429 21 OFFCURVE",
"467 84 CURVE",
"442 184 LINE",
"429 126 OFFCURVE",
"375 69 OFFCURVE",
"311 63 CURVE SMOOTH",
"242 57 OFFCURVE",
"172 97 OFFCURVE",
"140 188 CURVE SMOOTH",
"107 281 OFFCURVE",
"139 401 OFFCURVE",
"230 423 CURVE SMOOTH",
"255 429 OFFCURVE",
"356 455 OFFCURVE",
"382 320 CURVE"
);
}
);
width = 581;
},
{
associatedMasterId = "9CB12610-55A2-455C-B486-F31D9B41679C";
layerId = "BE7ECD7A-389F-4B4B-BC20-B681AFDA8E76";
name = "Mar 2 18, 13:13";
paths = (
{
closed = 1;
nodes = (
"652 71 OFFCURVE"
);
},
{
closed = 1;
nodes = (
"358 412 LINE",
"536 -250 LINE",
"602 -197 LINE",
"450 369 LINE"
);
},
{
closed = 1;
nodes = (
"450 369 LINE",
"417 491 OFFCURVE",
"334 508 OFFCURVE",
"277 508 CURVE SMOOTH",
"134 508 OFFCURVE",
"50 409 OFFCURVE",
"50 265 CURVE SMOOTH",
"50 116 OFFCURVE",
"148 -8 OFFCURVE",
"288 -8 CURVE SMOOTH",
"351 -8 OFFCURVE",
"426 20 OFFCURVE",
"467 88 CURVE",
"442 188 LINE",
"428 126 OFFCURVE",
"373 66 OFFCURVE",
"288 66 CURVE SMOOTH",
"201 66 OFFCURVE",
"127 165 OFFCURVE",
"127 265 CURVE SMOOTH",
"127 360 OFFCURVE",
"179 431 OFFCURVE",
"277 431 CURVE SMOOTH",
"311 431 OFFCURVE",
"364 415 OFFCURVE",
"382 324 CURVE"
);
}
);
width = 582;
},
{
associatedMasterId = "9CB12610-55A2-455C-B486-F31D9B41679C";
layerId = "A8CA2920-658A-4DF3-BF11-7E721C1D35A6";
name = "Mar 16 18, 10:37";
paths = (
{
closed = 1;
nodes = (
"652 71 OFFCURVE"
);
},
{
closed = 1;
nodes = (
"358 412 LINE",
"536 -250 LINE",
"602 -197 LINE",
"450 369 LINE"
);
},
{
closed = 1;
nodes = (
"450 369 LINE",
"417 491 OFFCURVE",
"334 508 OFFCURVE",
"277 508 CURVE SMOOTH",
"134 508 OFFCURVE",
"50 409 OFFCURVE",
"50 265 CURVE SMOOTH",
"50 116 OFFCURVE",
"148 -8 OFFCURVE",
"288 -8 CURVE SMOOTH",
"351 -8 OFFCURVE",
"426 20 OFFCURVE",
"467 88 CURVE",
"442 188 LINE",
"428 126 OFFCURVE",
"373 69 OFFCURVE",
"288 69 CURVE SMOOTH",
"201 69 OFFCURVE",
"127 165 OFFCURVE",
"127 265 CURVE SMOOTH",
"127 360 OFFCURVE",
"179 431 OFFCURVE",
"277 431 CURVE SMOOTH",
"311 431 OFFCURVE",
"364 415 OFFCURVE",
"382 324 CURVE"
);
}
);
width = 582;
},
{
layerId = "9CB12610-55A2-455C-B486-F31D9B41679C";
paths = (
{
closed = 1;
nodes = (
"628 71 OFFCURVE"
);
},
{
closed = 1;
nodes = (
"389 412 LINE",
"568 -250 LINE",
"634 -197 LINE",
"481 369 LINE"
);
},
{
closed = 1;
nodes = (
"481 369 LINE",
"451 481 OFFCURVE",
"354 508 OFFCURVE",
"294 508 CURVE SMOOTH",
"150 508 OFFCURVE",
"50 392 OFFCURVE",
"50 248 CURVE SMOOTH",
"50 104 OFFCURVE",
"164 -8 OFFCURVE",
"308 -8 CURVE SMOOTH",
"384 -8 OFFCURVE",
"465 27 OFFCURVE",
"497 91 CURVE",
"474 183 LINE",
"457 113 OFFCURVE",
"385 70 OFFCURVE",
"309 70 CURVE SMOOTH",
"207 70 OFFCURVE",
"132 146 OFFCURVE",
"132 248 CURVE SMOOTH",
"132 350 OFFCURVE",
"193 430 OFFCURVE",
"295 430 CURVE SMOOTH",
"329 430 OFFCURVE",
"389 412 OFFCURVE",
"413 324 CURVE"
);
}
);
width = 614;
}
);
leftKerningGroup = rond;
rightKerningGroup = des;
unicode = 0071;
},
{
glyphname = r;
lastChange = "2018-06-12 15:48:49 +0000";
layers = (
{
associatedMasterId = "9CB12610-55A2-455C-B486-F31D9B41679C";
guideLines = (
{
angle = 38.4181;
position = "{369, 360}";
},
{
angle = 90;
position = "{250, 517}";
}
);
layerId = "C0A5EEF7-92A8-4693-BEDC-BEC433252C74";
name = "Jan 18 18, 09:02";
paths = (
{
closed = 1;
nodes = (
"30 447 LINE",
"150 0 LINE",
"217 54 LINE",
"140 344 LINE",
"96 500 LINE"
);
},
{
closed = 1;
nodes = (
"386 438 LINE",
"363 477 OFFCURVE",
"314 508 OFFCURVE",
"250 508 CURVE SMOOTH",
"157 508 OFFCURVE",
"98 447 OFFCURVE",
"104 332 CURVE",
"147 260 LINE",
"136 374 OFFCURVE",
"184 435 OFFCURVE",
"233 435 CURVE SMOOTH",
"280 435 OFFCURVE",
"311 417 OFFCURVE",
"325 391 CURVE"
);
}
);
width = 438;
},
{
associatedMasterId = "9CB12610-55A2-455C-B486-F31D9B41679C";
guideLines = (
{
angle = 38.4181;
position = "{369, 360}";
}
);
layerId = "0950E998-5541-4493-BEEF-0BA74320E413";
name = original;
paths = (
{
closed = 1;
nodes = (
"30 447 LINE",
"150 0 LINE",
"217 54 LINE",
"140 344 LINE",
"96 500 LINE"
);
},
{
closed = 1;
nodes = (
"303 503 LINE",
"282 508 OFFCURVE",
"267 508 OFFCURVE",
"254 508 CURVE SMOOTH",
"156 508 OFFCURVE",
"114 442 OFFCURVE",
"101 373 CURVE",
"130 284 LINE",
"135 372 OFFCURVE",
"206 432 OFFCURVE",
"262 433 CURVE SMOOTH",
"274 433 OFFCURVE",
"285 433 OFFCURVE",
"295 430 CURVE"
);
}
);
width = 355;
},
{
associatedMasterId = "9CB12610-55A2-455C-B486-F31D9B41679C";
guideLines = (
{
angle = 38.4181;
position = "{232, 302}";
}
);
layerId = "34767F59-7CBD-44BA-AE14-D1D5D03DD124";
name = "Feb 9 18, 15:20";
paths = (
{
closed = 1;
nodes = (
"30 447 LINE",
"150 0 LINE",
"217 54 LINE",
"140 344 LINE",
"96 500 LINE"
);
},
{
closed = 1;
nodes = (
"405 444 LINE",
"380 482 OFFCURVE",
"330 508 OFFCURVE",
"266 508 CURVE SMOOTH",
"178 508 OFFCURVE",
"113 455 OFFCURVE",
"106 366 CURVE",
"138 286 LINE",
"138 377 OFFCURVE",
"190 432 OFFCURVE",
"259 432 CURVE SMOOTH",
"296 432 OFFCURVE",
"322 417 OFFCURVE",
"340 396 CURVE"
);
}
);
width = 435;
},
{
associatedMasterId = "9CB12610-55A2-455C-B486-F31D9B41679C";
layerId = "BFD1423D-2B5F-46B4-9607-9B549095D6B6";
name = "Mar 2 18, 11:18";
paths = (
{
closed = 1;
nodes = (
"30 447 LINE",
"150 0 LINE",
"217 54 LINE",
"140 344 LINE",
"96 500 LINE"
);
},
{
closed = 1;
nodes = (
"418 417 LINE",
"388 475 OFFCURVE",
"338 508 OFFCURVE",
"260 508 CURVE SMOOTH",
"167 508 OFFCURVE",
"112 450 OFFCURVE",
"102 369 CURVE",
"126 293 LINE",
"136 365 OFFCURVE",
"180 431 OFFCURVE",
"253 431 CURVE SMOOTH",
"305 431 OFFCURVE",
"337 403 OFFCURVE",
"355 369 CURVE"
);
}
);
width = 458;
},
{
guideLines = (
{
angle = 37.3039;
position = "{332, 368}";
}
);
layerId = "9CB12610-55A2-455C-B486-F31D9B41679C";
paths = (
{
closed = 1;
nodes = (
"30 447 LINE",
"150 0 LINE",
"217 54 LINE",
"140 344 LINE",
"96 500 LINE"
);
},
{
closed = 1;
nodes = (
"407 425 LINE",
"377 478 OFFCURVE",
"328 508 OFFCURVE",
"254 508 CURVE SMOOTH",
"161 508 OFFCURVE",
"106 450 OFFCURVE",
"96 369 CURVE",
"120 293 LINE",
"130 365 OFFCURVE",
"174 431 OFFCURVE",
"247 431 CURVE SMOOTH",
"295 431 OFFCURVE",
"325 408 OFFCURVE",
"344 377 CURVE"
);
}
);
width = 458;
},
{
associatedMasterId = "9CB12610-55A2-455C-B486-F31D9B41679C";
layerId = "FCF5A910-7A0E-45FD-8BD3-2928238C1C1B";
name = "Mar 2 18, 15:23";
paths = (
{
closed = 1;
nodes = (
"30 447 LINE",
"150 0 LINE",
"217 54 LINE",
"140 344 LINE",
"96 500 LINE"
);
},
{
closed = 1;
nodes = (
"234 495 LINE",
"81 338 LINE",
"135 303 LINE",
"319 495 LINE"
);
}
);
width = 458;
}
);
leftKerningGroup = norm;
rightKerningGroup = r;
unicode = 0072;
},
{
glyphname = s;
lastChange = "2018-05-25 06:21:30 +0000";
layers = (
{
associatedMasterId = "9CB12610-55A2-455C-B486-F31D9B41679C";
background = {
paths = (
{
closed = 1;
nodes = (
"109 508 OFFCURVE",
"33 451 OFFCURVE",
"33 362 CURVE SMOOTH",
"33 263 OFFCURVE",
"128 231 OFFCURVE",
"222 215 CURVE SMOOTH",
"282 205 OFFCURVE",
"327 185 OFFCURVE",
"327 135 CURVE SMOOTH",
"327 85 OFFCURVE",
"278 58 OFFCURVE",
"225 58 CURVE SMOOTH",
"194 58 OFFCURVE",
"137 73 OFFCURVE",
"128 134 CURVE",
"55 134 LINE",
"55 40 OFFCURVE",
"138 -12 OFFCURVE",
"225 -12 CURVE SMOOTH",
"334 -12 OFFCURVE",
"403 50 OFFCURVE",
"403 138 CURVE SMOOTH",
"403 241 OFFCURVE",
"293 273 OFFCURVE",
"222 286 CURVE SMOOTH",
"163 297 OFFCURVE",
"108 311 OFFCURVE",
"108 365 CURVE SMOOTH",
"108 412 OFFCURVE",
"150 438 OFFCURVE",
"197 438 CURVE SMOOTH",
"230 438 OFFCURVE",
"263 430 OFFCURVE",
"297 365 CURVE",
"352 409 LINE",
"327 472 OFFCURVE",
"276 508 OFFCURVE",
"204 508 CURVE SMOOTH"
);
},
{
closed = 0;
nodes = (
"123 134 LINE"
);
}
);
};
guideLines = (
{
locked = 1;
position = "{-218, 351}";
showMeasurement = 1;
},
{
position = "{-39, 364}";
showMeasurement = 1;
},
{
angle = 38.8534;
position = "{263, 351}";
},
{
position = "{149, 129}";
}
);
layerId = "A15E407A-9F87-46F5-A20A-D32ADA1935C0";
name = "May 24 18, 21:46";
paths = (
{
closed = 1;
nodes = (
"15 449 OFFCURVE",
"15 357 CURVE SMOOTH",
"15 243 OFFCURVE",
"121 232 OFFCURVE",
"224 214 CURVE SMOOTH",
"286 203 OFFCURVE",
"341 196 OFFCURVE",
"341 138 CURVE SMOOTH",
"341 94 OFFCURVE",
"298 63 OFFCURVE",
"242 63 CURVE SMOOTH",
"211 63 OFFCURVE",
"151 70 OFFCURVE",
"135 129 CURVE",
"59 129 LINE",
"70 37 OFFCURVE",
"154 -7 OFFCURVE",
"233 -7 CURVE SMOOTH",
"328 -7 OFFCURVE",
"417 43 OFFCURVE",
"417 141 CURVE SMOOTH",
"417 250 OFFCURVE",
"319 266 OFFCURVE",
"221 286 CURVE SMOOTH",
"155 299 OFFCURVE",
"94 299 OFFCURVE",
"94 360 CURVE SMOOTH",
"94 407 OFFCURVE",
"143 436 OFFCURVE",
"195 436 CURVE SMOOTH",
"225 436 OFFCURVE",
"269 425 OFFCURVE",
"295 373 CURVE",
"349 416 LINE",
"326 476 OFFCURVE",
"263 507 OFFCURVE",
"198 507 CURVE SMOOTH",
"106 507 OFFCURVE"
);
}
);
width = 432;
},
{
background = {
paths = (
{
closed = 1;
nodes = (
"109 508 OFFCURVE",
"33 451 OFFCURVE",
"33 362 CURVE SMOOTH",
"33 263 OFFCURVE",
"128 231 OFFCURVE",
"222 215 CURVE SMOOTH",
"282 205 OFFCURVE",
"327 185 OFFCURVE",
"327 135 CURVE SMOOTH",
"327 85 OFFCURVE",
"278 58 OFFCURVE",
"225 58 CURVE SMOOTH",
"194 58 OFFCURVE",
"137 73 OFFCURVE",
"128 134 CURVE",
"55 134 LINE",
"55 40 OFFCURVE",
"138 -12 OFFCURVE",
"225 -12 CURVE SMOOTH",
"334 -12 OFFCURVE",
"403 50 OFFCURVE",
"403 138 CURVE SMOOTH",
"403 241 OFFCURVE",
"293 273 OFFCURVE",
"222 286 CURVE SMOOTH",
"163 297 OFFCURVE",
"108 311 OFFCURVE",
"108 365 CURVE SMOOTH",
"108 412 OFFCURVE",
"150 438 OFFCURVE",
"197 438 CURVE SMOOTH",
"230 438 OFFCURVE",
"263 430 OFFCURVE",
"297 365 CURVE",
"352 409 LINE",
"327 472 OFFCURVE",
"276 508 OFFCURVE",
"204 508 CURVE SMOOTH"
);
},
{
closed = 0;
nodes = (
"123 134 LINE"
);
}
);
};
guideLines = (
{
locked = 1;
position = "{-218, 351}";
showMeasurement = 1;
},
{
position = "{-39, 364}";
showMeasurement = 1;
},
{
angle = 38.8534;
position = "{263, 351}";
},
{
position = "{149, 129}";
}
);
layerId = "9CB12610-55A2-455C-B486-F31D9B41679C";
paths = (
{
closed = 1;
nodes = (
"20 451 OFFCURVE",
"20 359 CURVE SMOOTH",
"20 245 OFFCURVE",
"121 236 OFFCURVE",
"224 218 CURVE SMOOTH",
"286 207 OFFCURVE",
"336 196 OFFCURVE",
"336 138 CURVE SMOOTH",
"336 94 OFFCURVE",
"294 70 OFFCURVE",
"245 64 CURVE SMOOTH",
"214 61 OFFCURVE",
"156 70 OFFCURVE",
"140 129 CURVE",
"64 129 LINE",
"75 37 OFFCURVE",
"151 -7 OFFCURVE",
"230 -7 CURVE SMOOTH",
"323 -7 OFFCURVE",
"412 45 OFFCURVE",
"412 141 CURVE SMOOTH",
"412 250 OFFCURVE",
"319 268 OFFCURVE",
"221 288 CURVE SMOOTH",
"155 301 OFFCURVE",
"97 301 OFFCURVE",
"97 362 CURVE SMOOTH",
"97 409 OFFCURVE",
"146 436 OFFCURVE",
"198 436 CURVE SMOOTH",
"228 436 OFFCURVE",
"264 425 OFFCURVE",
"290 373 CURVE",
"344 416 LINE",
"321 476 OFFCURVE",
"266 507 OFFCURVE",
"201 507 CURVE SMOOTH",
"109 507 OFFCURVE"
);
}
);
width = 432;
}
);
leftKerningGroup = s;
rightKerningGroup = s;
unicode = 0073;
},
{
glyphname = t;
lastChange = "2018-02-09 10:04:30 +0000";
layers = (
{
guideLines = (
{
angle = -75;
position = "{93, 303}";
},
{
angle = 209.9192;
position = "{354, 436}";
}
);
layerId = "9CB12610-55A2-455C-B486-F31D9B41679C";
paths = (
{
closed = 1;
nodes = (
"61 629 LINE",
"229 0 LINE",
"296 53 LINE",
"127 682 LINE"
);
},
{
closed = 1;
nodes = (
"282 480 LINE",
"270 560 LINE",
"23 416 LINE",
"34 335 LINE"
);
}
);
width = 336;
}
);
leftKerningGroup = f;
rightKerningGroup = asc;
unicode = 0074;
},
{
glyphname = u;
lastChange = "2018-05-25 06:46:04 +0000";
layers = (
{
anchors = (
{
name = top;
position = "{201, 568}";
}
);
guideLines = (
{
angle = -75;
position = "{219, 500}";
},
{
angle = 15;
position = "{181, 185}";
},
{
angle = 15;
position = "{118, 14}";
},
{
angle = 15;
position = "{146, -61}";
},
{
angle = 15;
position = "{110, 143}";
}
);
layerId = "9CB12610-55A2-455C-B486-F31D9B41679C";
paths = (
{
closed = 1;
nodes = (
"420 500 LINE",
"353 446 LINE",
"407 246 LINE SMOOTH",
"434 142 OFFCURVE",
"398 72 OFFCURVE",
"298 72 CURVE SMOOTH",
"234 72 OFFCURVE",
"198 119 OFFCURVE",
"181 185 CURVE SMOOTH",
"97 500 LINE",
"30 445 LINE",
"110 143 LINE SMOOTH",
"136 46 OFFCURVE",
"207 -8 OFFCURVE",
"296 -8 CURVE SMOOTH",
"436 -8 OFFCURVE",
"527 100 OFFCURVE",
"489 245 CURVE SMOOTH"
);
}
);
width = 543;
},
{
associatedMasterId = "9CB12610-55A2-455C-B486-F31D9B41679C";
guideLines = (
{
angle = -75;
position = "{219, 500}";
},
{
angle = 15;
position = "{181, 185}";
},
{
angle = 15;
position = "{118, 14}";
},
{
angle = 15;
position = "{146, -61}";
},
{
angle = 15;
position = "{110, 143}";
}
);
layerId = "EA66F902-3979-4B03-9902-75DE3A2C5E16";
name = original;
paths = (
{
closed = 1;
nodes = (
"420 500 LINE",
"353 446 LINE",
"407 246 LINE SMOOTH",
"428 169 OFFCURVE",
"421 95 OFFCURVE",
"334 72 CURVE SMOOTH",
"247 49 OFFCURVE",
"201 108 OFFCURVE",
"181 185 CURVE SMOOTH",
"97 500 LINE",
"30 445 LINE",
"110 143 LINE SMOOTH",
"141 25 OFFCURVE",
"239 -36 OFFCURVE",
"354 -5 CURVE SMOOTH",
"469 26 OFFCURVE",
"521 128 OFFCURVE",
"489 245 CURVE SMOOTH"
);
}
);
visible = 1;
width = 543;
},
{
associatedMasterId = "9CB12610-55A2-455C-B486-F31D9B41679C";
guideLines = (
{
angle = -75;
position = "{219, 500}";
},
{
angle = 15;
position = "{181, 185}";
},
{
angle = 15;
position = "{118, 14}";
},
{
angle = 15;
position = "{146, -61}";
},
{
angle = 15;
position = "{110, 143}";
}
);
layerId = "E1ED308C-5888-4B50-825E-4504921E06C7";
name = "corr fut";
paths = (
{
closed = 1;
nodes = (
"420 500 LINE",
"353 446 LINE",
"407 246 LINE SMOOTH",
"434 141 OFFCURVE",
"398 69 OFFCURVE",
"298 69 CURVE SMOOTH",
"234 69 OFFCURVE",
"198 119 OFFCURVE",
"181 185 CURVE SMOOTH",
"97 500 LINE",
"30 445 LINE",
"110 143 LINE SMOOTH",
"136 46 OFFCURVE",
"207 -8 OFFCURVE",
"296 -8 CURVE SMOOTH",
"436 -8 OFFCURVE",
"527 100 OFFCURVE",
"489 245 CURVE SMOOTH"
);
}
);
width = 543;
}
);
leftKerningGroup = norm;
rightKerningGroup = norm;
unicode = 0075;
},
{
glyphname = v;
lastChange = "2018-05-25 13:09:50 +0000";
layers = (
{
associatedMasterId = "9CB12610-55A2-455C-B486-F31D9B41679C";
guideLines = (
{
angle = 209.9192;
position = "{452, 509}";
}
);
layerId = "6C8D3101-C58E-45D2-8B27-954FAA428B2C";
name = "Mar 2 18, 13:13";
paths = (
{
closed = 1;
nodes = (
"0 451 LINE",
"335 0 LINE",
"395 49 LINE",
"63 500 LINE"
);
},
{
closed = 1;
nodes = (
"317 65 LINE",
"395 49 LINE",
"455 500 LINE",
"373 500 LINE"
);
}
);
width = 485;
},
{
guideLines = (
{
angle = 209.9192;
position = "{452, 509}";
}
);
layerId = "9CB12610-55A2-455C-B486-F31D9B41679C";
paths = (
{
closed = 1;
nodes = (
"0 451 LINE",
"335 0 LINE",
"395 49 LINE",
"63 500 LINE"
);
},
{
closed = 1;
nodes = (
"319 64 LINE",
"395 49 LINE",
"454 495 LINE",
"372 495 LINE"
);
}
);
width = 485;
}
);
leftKerningGroup = v;
rightKerningGroup = v;
unicode = 0076;
},
{
glyphname = w;
lastChange = "2018-03-02 12:23:08 +0000";
layers = (
{
associatedMasterId = "9CB12610-55A2-455C-B486-F31D9B41679C";
layerId = "1875E54D-280B-4AB1-8E06-6C82C2D0B3C8";
name = "Mar 2 18, 13:13";
paths = (
{
closed = 1;
nodes = (
"0 451 LINE",
"334 0 LINE",
"394 49 LINE",
"63 500 LINE"
);
},
{
closed = 1;
nodes = (
"316 65 LINE",
"394 49 LINE",
"447 492 LINE",
"366 447 LINE"
);
},
{
closed = 1;
nodes = (
"372 450 LINE",
"662 0 LINE",
"719 47 LINE",
"447 492 LINE"
);
},
{
closed = 1;
nodes = (
"645 65 LINE",
"719 47 LINE",
"782 500 LINE",
"701 500 LINE"
);
}
);
width = 812;
},
{
layerId = "9CB12610-55A2-455C-B486-F31D9B41679C";
paths = (
{
closed = 1;
nodes = (
"0 451 LINE",
"334 0 LINE",
"394 49 LINE",
"63 500 LINE"
);
},
{
closed = 1;
nodes = (
"316 65 LINE",
"394 49 LINE",
"447 492 LINE",
"366 447 LINE"
);
},
{
closed = 1;
nodes = (
"375 452 LINE",
"662 0 LINE",
"719 47 LINE",
"447 492 LINE"
);
},
{
closed = 1;
nodes = (
"647 64 LINE",
"719 47 LINE",
"781 495 LINE",
"700 495 LINE"
);
}
);
width = 812;
}
);
leftKerningGroup = v;
rightKerningGroup = v;
unicode = 0077;
},
{
glyphname = x;
lastChange = "2018-03-02 12:13:49 +0000";
layers = (
{
associatedMasterId = "9CB12610-55A2-455C-B486-F31D9B41679C";
guideLines = (
{
angle = -75;
position = "{326, 51}";
}
);
layerId = "4BB56BD5-8F2E-4A86-B4FA-E0FA2372D39B";
name = "Mar 2 18, 13:13";
paths = (
{
closed = 1;
nodes = (
"414 466 LINE",
"345 500 LINE",
"133 34 LINE",
"202 0 LINE"
);
},
{
closed = 1;
nodes = (
"507 63 LINE",
"82 500 LINE",
"27 451 LINE",
"452 14 LINE"
);
}
);
width = 537;
},
{
guideLines = (
{
angle = -75;
position = "{326, 51}";
}
);
layerId = "9CB12610-55A2-455C-B486-F31D9B41679C";
paths = (
{
closed = 1;
nodes = (
"418 464 LINE",
"345 500 LINE",
"129 36 LINE",
"202 0 LINE"
);
},
{
closed = 1;
nodes = (
"507 63 LINE",
"82 500 LINE",
"25 449 LINE",
"450 12 LINE"
);
}
);
width = 537;
}
);
leftKerningGroup = x;
rightKerningGroup = x;
unicode = 0078;
},
{
glyphname = y;
lastChange = "2018-03-02 12:14:07 +0000";
layers = (
{
associatedMasterId = "9CB12610-55A2-455C-B486-F31D9B41679C";
guideLines = (
{
angle = 209.9192;
position = "{420, 500}";
}
);
layerId = "EE61CAE7-C81A-4DFF-800D-1FA24C146D0C";
name = "Mar 2 18, 13:14";
paths = (
{
closed = 1;
nodes = (
"-20 430 LINE",
"300 0 LINE",
"360 49 LINE",
"43 479 LINE"
);
},
{
closed = 1;
nodes = (
"241 -250 LINE",
"328 -201 LINE",
"420 500 LINE",
"331 449 LINE"
);
}
);
width = 450;
},
{
guideLines = (
{
angle = 209.9192;
position = "{420, 500}";
}
);
layerId = "9CB12610-55A2-455C-B486-F31D9B41679C";
paths = (
{
closed = 1;
nodes = (
"-20 430 LINE",
"300 0 LINE",
"360 49 LINE",
"43 479 LINE"
);
},
{
closed = 1;
nodes = (
"246 -250 LINE",
"328 -201 LINE",
"420 500 LINE",
"331 449 LINE"
);
}
);
width = 450;
}
);
leftKerningGroup = v;
rightKerningGroup = v;
unicode = 0079;
},
{
glyphname = z;
lastChange = "2018-06-14 18:49:52 +0000";
layers = (
{
associatedMasterId = "9CB12610-55A2-455C-B486-F31D9B41679C";
guideLines = (
{
angle = 234.9506;
position = "{67, 0}";
},
{
angle = -34.8753;
position = "{298, 330}";
showMeasurement = 1;
},
{
angle = 90;
position = "{348, 238}";
showMeasurement = 1;
}
);
layerId = "7E76829D-A2DF-4E8D-A697-A8A23B79FCA4";
name = "corr fut";
paths = (
{
closed = 1;
nodes = (
"67 0 LINE",
"410 0 LINE",
"463 78 LINE",
"122 78 LINE"
);
},
{
closed = 1;
nodes = (
"387 500 LINE",
"30 0 LINE",
"138 0 LINE",
"493 500 LINE"
);
},
{
closed = 1;
nodes = (
"60 422 LINE",
"401 421 LINE",
"457 500 LINE",
"115 500 LINE"
);
}
);
width = 518;
},
{
associatedMasterId = "9CB12610-55A2-455C-B486-F31D9B41679C";
guideLines = (
{
angle = -75;
position = "{390, 500}";
},
{
angle = -34.8753;
position = "{190, 308}";
showMeasurement = 1;
}
);
layerId = "230741D3-E0E0-486F-8E33-FCE852FE7C12";
name = "Mar 2 18, 10:37";
paths = (
{
closed = 1;
nodes = (
"61 0 LINE",
"404 0 LINE",
"451 68 LINE",
"110 68 LINE"
);
},
{
closed = 1;
nodes = (
"387 500 LINE",
"30 0 LINE",
"126 0 LINE",
"481 500 LINE"
);
},
{
closed = 1;
nodes = (
"63 434 LINE",
"404 433 LINE",
"451 500 LINE",
"109 500 LINE"
);
}
);
width = 506;
},
{
guideLines = (
{
angle = 234.9506;
position = "{64, 2}";
},
{
angle = -34.8753;
position = "{266, 333}";
showMeasurement = 1;
},
{
angle = 90;
position = "{348, 238}";
showMeasurement = 1;
},
{
angle = 38.7655;
position = "{414, 5}";
},
{
angle = 90;
position = "{483, 346}";
}
);
layerId = "9CB12610-55A2-455C-B486-F31D9B41679C";
paths = (
{
closed = 1;
nodes = (
"67 5 LINE",
"410 5 LINE",
"461 80 LINE",
"120 80 LINE"
);
},
{
closed = 1;
nodes = (
"387 495 LINE",
"38 5 LINE",
"139 5 LINE",
"486 495 LINE"
);
},
{
closed = 1;
nodes = (
"62 420 LINE",
"403 419 LINE",
"457 495 LINE",
"115 495 LINE"
);
}
);
width = 518;
}
);
leftKerningGroup = z;
rightKerningGroup = z;
unicode = 007A;
},
{
glyphname = colon;
lastChange = "2018-04-27 08:52:39 +0000";
layers = (
{
guideLines = (
{
angle = 105;
position = "{303, 0}";
}
);
layerId = "9CB12610-55A2-455C-B486-F31D9B41679C";
paths = (
{
closed = 1;
nodes = (
"329 0 OFFCURVE",
"352 22 OFFCURVE",
"352 49 CURVE SMOOTH",
"352 76 OFFCURVE",
"330 98 OFFCURVE",
"303 98 CURVE SMOOTH",
"276 98 OFFCURVE",
"253 76 OFFCURVE",
"253 49 CURVE SMOOTH",
"253 22 OFFCURVE",
"276 0 OFFCURVE",
"303 0 CURVE SMOOTH"
);
},
{
closed = 1;
nodes = (
"230 368 OFFCURVE",
"253 390 OFFCURVE",
"253 417 CURVE SMOOTH",
"253 445 OFFCURVE",
"231 466 OFFCURVE",
"204 466 CURVE SMOOTH",
"177 466 OFFCURVE",
"154 444 OFFCURVE",
"154 417 CURVE SMOOTH",
"154 390 OFFCURVE",
"177 368 OFFCURVE",
"204 368 CURVE SMOOTH"
);
}
);
width = 600;
},
{
associatedMasterId = "9CB12610-55A2-455C-B486-F31D9B41679C";
guideLines = (
{
angle = 90;
position = "{303, 76}";
}
);
layerId = "F6573BB4-12E4-45ED-8220-79ADFE7E0588";
name = "Apr 27 18, 10:52";
paths = (
{
closed = 1;
nodes = (
"329 0 OFFCURVE",
"352 22 OFFCURVE",
"352 49 CURVE SMOOTH",
"352 76 OFFCURVE",
"330 98 OFFCURVE",
"303 98 CURVE SMOOTH",
"276 98 OFFCURVE",
"253 76 OFFCURVE",
"253 49 CURVE SMOOTH",
"253 22 OFFCURVE",
"276 0 OFFCURVE",
"303 0 CURVE SMOOTH"
);
},
{
closed = 1;
nodes = (
"329 368 OFFCURVE",
"352 390 OFFCURVE",
"352 417 CURVE SMOOTH",
"352 445 OFFCURVE",
"330 466 OFFCURVE",
"303 466 CURVE SMOOTH",
"276 466 OFFCURVE",
"253 444 OFFCURVE",
"253 417 CURVE SMOOTH",
"253 390 OFFCURVE",
"276 368 OFFCURVE",
"303 368 CURVE SMOOTH"
);
}
);
width = 600;
}
);
unicode = 003A;
},
{
glyphname = comma;
lastChange = "2018-03-16 07:55:05 +0000";
layers = (
{
guideLines = (
{
position = "{-89, -138}";
},
{
position = "{149, 98}";
}
);
layerId = "9CB12610-55A2-455C-B486-F31D9B41679C";
paths = (
{
closed = 1;
nodes = (
"90 -67 LINE",
"134 98 LINE",
"61 86 LINE",
"17 -79 LINE"
);
}
);
width = 177;
},
{
associatedMasterId = "9CB12610-55A2-455C-B486-F31D9B41679C";
guideLines = (
{
position = "{-109, -138}";
},
{
position = "{203, 106}";
}
);
layerId = "5BB796C1-3C98-4E63-9F22-7552AD1C3A83";
name = "Nov 29 17, 14:01";
paths = (
{
closed = 1;
nodes = (
"28 71 LINE",
"28 -126 LINE",
"106 -92 LINE",
"106 106 LINE"
);
}
);
width = 372;
}
);
unicode = 002C;
},
{
glyphname = exclam;
lastChange = "2018-06-15 11:21:41 +0000";
layers = (
{
guideLines = (
{
angle = 38.7655;
position = "{256, 332}";
},
{
angle = 38.7655;
position = "{322, 146}";
},
{
angle = -75.1601;
position = "{247, 750}";
}
);
hints = (
{
horizontal = 1;
origin = "{1, 5}";
target = "{1, 11}";
},
{
place = "{340, 121}";
},
{
horizontal = 1;
place = "{108.097, 0}";
}
);
layerId = "9CB12610-55A2-455C-B486-F31D9B41679C";
paths = (
{
closed = 1;
nodes = (
"388 199 LINE",
"338 398 LINE",
"247 750 LINE",
"181 697 LINE",
"274 346 LINE",
"330 153 LINE"
);
},
{
closed = 1;
nodes = (
"367 116 OFFCURVE",
"338 88 OFFCURVE",
"338 54 CURVE SMOOTH",
"338 20 OFFCURVE",
"366 -8 OFFCURVE",
"400 -8 CURVE SMOOTH",
"434 -8 OFFCURVE",
"463 20 OFFCURVE",
"463 54 CURVE SMOOTH",
"463 88 OFFCURVE",
"434 116 OFFCURVE",
"400 116 CURVE SMOOTH"
);
}
);
width = 600;
}
);
unicode = 0021;
},
{
glyphname = period;
lastChange = "2018-03-16 07:50:02 +0000";
layers = (
{
guideLines = (
{
position = "{224, 106}";
}
);
layerId = "9CB12610-55A2-455C-B486-F31D9B41679C";
paths = (
{
closed = 1;
nodes = (
"120 0 OFFCURVE",
"143 22 OFFCURVE",
"143 49 CURVE SMOOTH",
"143 76 OFFCURVE",
"121 98 OFFCURVE",
"94 98 CURVE SMOOTH",
"67 98 OFFCURVE",
"44 76 OFFCURVE",
"44 49 CURVE SMOOTH",
"44 22 OFFCURVE",
"67 0 OFFCURVE",
"94 0 CURVE SMOOTH"
);
}
);
width = 185;
}
);
unicode = 002E;
},
{
glyphname = question;
lastChange = "2018-06-15 11:22:01 +0000";
layers = (
{
associatedMasterId = "9CB12610-55A2-455C-B486-F31D9B41679C";
layerId = "F4BCD150-97D8-40DB-8614-1A2E7D8D1F7E";
name = "Jun 15 18, 08:36";
paths = (
{
closed = 1;
nodes = (
"122 721 OFFCURVE",
"63 650 OFFCURVE",
"50 568 CURVE",
"119 565 LINE",
"130 618 OFFCURVE",
"170 662 OFFCURVE",
"225 677 CURVE SMOOTH",
"302 698 OFFCURVE",
"383 651 OFFCURVE",
"404 573 CURVE SMOOTH",
"433 466 OFFCURVE",
"377 431 OFFCURVE",
"346 414 CURVE SMOOTH",
"328 404 OFFCURVE",
"284 368 OFFCURVE",
"312 265 CURVE",
"346 153 LINE",
"404 199 LINE",
"391 247 LINE",
"379 293 OFFCURVE",
"358 347 OFFCURVE",
"410 378 CURVE SMOOTH",
"485 423 OFFCURVE",
"493 504 OFFCURVE",
"470 591 CURVE SMOOTH",
"440 705 OFFCURVE",
"321 773 OFFCURVE",
"207 743 CURVE SMOOTH"
);
},
{
closed = 1;
nodes = (
"377 116 OFFCURVE",
"348 88 OFFCURVE",
"348 54 CURVE SMOOTH",
"348 20 OFFCURVE",
"376 -8 OFFCURVE",
"410 -8 CURVE SMOOTH",
"444 -8 OFFCURVE",
"473 20 OFFCURVE",
"473 54 CURVE SMOOTH",
"473 88 OFFCURVE",
"444 116 OFFCURVE",
"410 116 CURVE SMOOTH"
);
}
);
width = 531;
},
{
associatedMasterId = "9CB12610-55A2-455C-B486-F31D9B41679C";
layerId = "A167A37B-4D33-4BE7-A28E-13BF45834DBE";
name = "Jun 15 18, 13:22";
paths = (
{
closed = 1;
nodes = (
"106 752 OFFCURVE",
"15 704 OFFCURVE",
"15 581 CURVE",
"81 560 LINE",
"96 674 OFFCURVE",
"176 684 OFFCURVE",
"212 684 CURVE SMOOTH",
"261 684 OFFCURVE",
"354 662 OFFCURVE",
"358 586 CURVE SMOOTH",
"363 483 OFFCURVE",
"306 474 OFFCURVE",
"273 446 CURVE SMOOTH",
"246 423 OFFCURVE",
"189 379 OFFCURVE",
"189 264 CURVE",
"193 147 LINE",
"261 176 LINE",
"261 226 LINE",
"261 312 OFFCURVE",
"261 349 OFFCURVE",
"317 396 CURVE SMOOTH",
"364 436 OFFCURVE",
"426 457 OFFCURVE",
"426 587 CURVE SMOOTH",
"426 704 OFFCURVE",
"330 752 OFFCURVE",
"212 752 CURVE SMOOTH"
);
},
{
closed = 1;
nodes = (
"184 116 OFFCURVE",
"155 88 OFFCURVE",
"155 54 CURVE SMOOTH",
"155 20 OFFCURVE",
"183 -8 OFFCURVE",
"217 -8 CURVE SMOOTH",
"251 -8 OFFCURVE",
"280 20 OFFCURVE",
"280 54 CURVE SMOOTH",
"280 88 OFFCURVE",
"251 116 OFFCURVE",
"217 116 CURVE SMOOTH"
);
}
);
width = 531;
},
{
guideLines = (
{
position = "{330, 153}";
}
);
layerId = "9CB12610-55A2-455C-B486-F31D9B41679C";
paths = (
{
closed = 1;
nodes = (
"255 116 OFFCURVE",
"226 88 OFFCURVE",
"226 54 CURVE SMOOTH",
"226 20 OFFCURVE",
"254 -8 OFFCURVE",
"288 -8 CURVE SMOOTH",
"322 -8 OFFCURVE",
"351 20 OFFCURVE",
"351 54 CURVE SMOOTH",
"351 88 OFFCURVE",
"322 116 OFFCURVE",
"288 116 CURVE SMOOTH"
);
},
{
closed = 1;
nodes = (
"294 200 LINE",
"257 350 LINE",
"246 408 LINE",
"170 388 LINE",
"193 298 LINE",
"236 153 LINE"
);
},
{
closed = 1;
nodes = (
"10 565 LINE",
"21 618 OFFCURVE",
"60 663 OFFCURVE",
"115 678 CURVE SMOOTH",
"193 699 OFFCURVE",
"274 652 OFFCURVE",
"295 573 CURVE SMOOTH",
"316 495 OFFCURVE",
"269 414 OFFCURVE",
"192 394 CURVE",
"209 328 LINE",
"323 358 OFFCURVE",
"391 476 OFFCURVE",
"360 591 CURVE SMOOTH",
"329 706 OFFCURVE",
"212 774 OFFCURVE",
"98 743 CURVE SMOOTH",
"13 720 OFFCURVE",
"-46 651 OFFCURVE",
"-59 569 CURVE"
);
}
);
width = 600;
}
);
unicode = 003F;
},
{
glyphname = quotesingle;
lastChange = "2018-04-27 07:38:26 +0000";
layers = (
{
layerId = "9CB12610-55A2-455C-B486-F31D9B41679C";
paths = (
{
closed = 1;
nodes = (
"70 545 LINE",
"16 740 LINE",
"-50 687 LINE",
"11 497 LINE"
);
}
);
width = 140;
},
{
associatedMasterId = "9CB12610-55A2-455C-B486-F31D9B41679C";
layerId = "5BF0BED0-9030-4AC0-A75B-37254F4BDEC6";
name = "Apr 11 18, 21:45";
paths = (
{
closed = 1;
nodes = (
"95 543 LINE",
"43 740 LINE",
"-23 687 LINE",
"29 489 LINE"
);
}
);
width = 124;
}
);
unicode = 0027;
},
{
glyphname = semicolon;
lastChange = "2018-04-27 08:53:27 +0000";
layers = (
{
guideLines = (
{
angle = 90;
position = "{303, 416}";
},
{
angle = 105;
position = "{303, 0}";
}
);
layerId = "9CB12610-55A2-455C-B486-F31D9B41679C";
paths = (
{
closed = 1;
nodes = (
"232 363 OFFCURVE",
"255 385 OFFCURVE",
"255 412 CURVE SMOOTH",
"255 440 OFFCURVE",
"233 461 OFFCURVE",
"206 461 CURVE SMOOTH",
"179 461 OFFCURVE",
"156 439 OFFCURVE",
"156 412 CURVE SMOOTH",
"156 385 OFFCURVE",
"179 363 OFFCURVE",
"206 363 CURVE SMOOTH"
);
},
{
closed = 1;
nodes = (
"301 -67 LINE",
"345 98 LINE",
"272 86 LINE",
"228 -79 LINE"
);
}
);
width = 600;
},
{
associatedMasterId = "9CB12610-55A2-455C-B486-F31D9B41679C";
layerId = "2A7074CA-EC48-49D2-B8C5-8825C95FD6C1";
name = "Apr 27 18, 10:50";
paths = (
{
closed = 1;
nodes = (
"329 0 OFFCURVE",
"352 22 OFFCURVE",
"352 49 CURVE SMOOTH",
"352 76 OFFCURVE",
"330 98 OFFCURVE",
"303 98 CURVE SMOOTH",
"276 98 OFFCURVE",
"253 76 OFFCURVE",
"253 49 CURVE SMOOTH",
"253 22 OFFCURVE",
"276 0 OFFCURVE",
"303 0 CURVE SMOOTH"
);
},
{
closed = 1;
nodes = (
"329 363 OFFCURVE",
"352 385 OFFCURVE",
"352 412 CURVE SMOOTH",
"352 440 OFFCURVE",
"330 461 OFFCURVE",
"303 461 CURVE SMOOTH",
"276 461 OFFCURVE",
"253 439 OFFCURVE",
"253 412 CURVE SMOOTH",
"253 385 OFFCURVE",
"276 363 OFFCURVE",
"303 363 CURVE SMOOTH"
);
}
);
visible = 1;
width = 600;
}
);
unicode = 003B;
},
{
glyphname = parenleft;
lastChange = "2018-04-27 07:32:29 +0000";
layers = (
{
guideLines = (
{
angle = 158.8243;
position = "{479, 267}";
}
);
layerId = "9CB12610-55A2-455C-B486-F31D9B41679C";
paths = (
{
closed = 1;
nodes = (
"94 750 LINE",
"36 560 OFFCURVE",
"40 410 OFFCURVE",
"81 254 CURVE SMOOTH",
"118 112 OFFCURVE",
"209 -59 OFFCURVE",
"338 -177 CURVE",
"402 -125 LINE",
"270 -4 OFFCURVE",
"194 133 OFFCURVE",
"156 274 CURVE SMOOTH",
"114 430 OFFCURVE",
"111 539 OFFCURVE",
"170 741 CURVE"
);
}
);
width = 312;
},
{
associatedMasterId = "9CB12610-55A2-455C-B486-F31D9B41679C";
guideLines = (
{
angle = 158.8243;
position = "{629, 267}";
}
);
layerId = "4A96C0D3-51DF-4E1D-A2EE-849BFE54EC0F";
name = "Apr 27 18, 09:25";
paths = (
{
closed = 1;
nodes = (
"250 750 LINE",
"145 581 OFFCURVE",
"109 436 OFFCURVE",
"109 274 CURVE SMOOTH",
"109 127 OFFCURVE",
"152 -61 OFFCURVE",
"246 -208 CURVE",
"321 -175 LINE",
"225 -28 OFFCURVE",
"187 127 OFFCURVE",
"187 274 CURVE SMOOTH",
"187 436 OFFCURVE",
"212 542 OFFCURVE",
"321 722 CURVE"
);
}
);
width = 600;
}
);
unicode = 0028;
},
{
glyphname = parenright;
lastChange = "2018-04-27 08:30:55 +0000";
layers = (
{
layerId = "9CB12610-55A2-455C-B486-F31D9B41679C";
paths = (
{
closed = 1;
nodes = (
"51 553 OFFCURVE",
"96 454 OFFCURVE",
"126 295 CURVE SMOOTH",
"153 152 OFFCURVE",
"147 0 OFFCURVE",
"83 -167 CURVE",
"163 -185 LINE",
"227 -22 OFFCURVE",
"231 167 OFFCURVE",
"203 310 CURVE SMOOTH",
"172 468 OFFCURVE",
"109 605 OFFCURVE",
"-26 750 CURVE",
"-90 708 LINE"
);
}
);
width = 269;
}
);
unicode = 0029;
},
{
glyphname = hyphen;
lastChange = "2018-04-04 21:02:00 +0000";
layers = (
{
guideLines = (
{
angle = 90;
position = "{32, 181}";
},
{
angle = 90;
position = "{350, 172}";
}
);
layerId = "9CB12610-55A2-455C-B486-F31D9B41679C";
paths = (
{
closed = 1;
nodes = (
"336 289 LINE",
"30 289 LINE",
"64 211 LINE",
"370 211 LINE"
);
}
);
width = 385;
}
);
unicode = 002D;
},
{
glyphname = dieresiscomb;
lastChange = "2018-06-15 12:13:30 +0000";
layers = (
{
anchors = (
{
name = _top;
position = "{246, 516}";
}
);
layerId = "9CB12610-55A2-455C-B486-F31D9B41679C";
paths = (
{
closed = 1;
nodes = (
"167 541 OFFCURVE",
"184 568 OFFCURVE",
"177 590 CURVE SMOOTH",
"169 614 OFFCURVE",
"144 630 OFFCURVE",
"120 624 CURVE SMOOTH",
"95 617 OFFCURVE",
"80 590 OFFCURVE",
"86 566 CURVE SMOOTH",
"93 542 OFFCURVE",
"120 526 OFFCURVE",
"144 534 CURVE SMOOTH"
);
},
{
closed = 1;
nodes = (
"349 588 OFFCURVE",
"365 614 OFFCURVE",
"359 639 CURVE SMOOTH",
"352 664 OFFCURVE",
"326 679 OFFCURVE",
"301 672 CURVE SMOOTH",
"276 666 OFFCURVE",
"260 640 OFFCURVE",
"267 615 CURVE SMOOTH",
"273 589 OFFCURVE",
"300 575 OFFCURVE",
"325 582 CURVE SMOOTH"
);
}
);
width = 600;
}
);
unicode = 0308;
},
{
glyphname = gravecomb;
lastChange = "2018-06-15 12:11:28 +0000";
layers = (
{
anchors = (
{
name = _top;
position = "{186, 515}";
}
);
layerId = "9CB12610-55A2-455C-B486-F31D9B41679C";
paths = (
{
closed = 1;
nodes = (
"84 715 LINE",
"87 636 LINE",
"286 562 LINE",
"285 644 LINE"
);
}
);
width = 600;
}
);
unicode = 0300;
},
{
glyphname = acutecomb;
lastChange = "2018-06-15 12:19:40 +0000";
layers = (
{
anchors = (
{
name = _top;
position = "{295, 536}";
}
);
layerId = "9CB12610-55A2-455C-B486-F31D9B41679C";
paths = (
{
closed = 1;
nodes = (
"129 518 LINE",
"280 658 LINE",
"247 730 LINE",
"94 592 LINE"
);
}
);
width = 600;
}
);
unicode = 0301;
},
{
glyphname = circumflexcomb;
lastChange = "2018-06-15 12:11:12 +0000";
layers = (
{
anchors = (
{
name = _top;
position = "{217, 544}";
}
);
layerId = "9CB12610-55A2-455C-B486-F31D9B41679C";
paths = (
{
closed = 1;
nodes = (
"320 581 LINE",
"300 656 LINE",
"164 700 LINE",
"68 594 LINE",
"88 519 LINE",
"185 620 LINE"
);
}
);
width = 600;
}
);
unicode = 0302;
},
